<svg width="24" height="24" viewBox="0 0 24 24" fill="none" xmlns="http://www.w3.org/2000/svg">
<path d="M14.4844 7.0625C14.4844 7.75 14.2422 8.33594 13.7578 8.82031C13.2734 9.30469 12.6875 9.54688 12 9.54688C11.3125 9.54688 10.7266 9.30469 10.2422 8.82031C9.75781 8.33594 9.51562 7.75 9.51562 7.0625C9.51562 6.375 9.75781 5.78906 10.2422 5.30469C10.7266 4.82031 11.3125 4.57812 12 4.57812C12.6875 4.57812 13.2734 4.82031 13.7578 5.30469C14.2422 5.78906 14.4844 6.375 14.4844 7.0625ZM17.8281 12.7344C17.724 12.526 17.5781 12.3594 17.3906 12.2344C17.2031 12.1094 16.9557 12.0599 16.6484 12.0859C16.3411 12.112 16.026 12.2552 15.7031 12.5156C15.599 12.599 15.4479 12.7031 15.25 12.8281C15.0521 12.9531 14.6302 13.1198 13.9844 13.3281C13.3385 13.5365 12.6771 13.6406 12 13.6406C11.3229 13.6406 10.6771 13.5469 10.0625 13.3594C9.44792 13.1719 9 12.9844 8.71875 12.7969L8.29688 12.5156C7.97396 12.2552 7.65885 12.112 7.35156 12.0859C7.04427 12.0599 6.79688 12.1094 6.60938 12.2344C6.42188 12.3594 6.27604 12.526 6.17188 12.7344C5.94271 13.2031 5.93229 13.5911 6.14062 13.8984C6.34896 14.2057 6.80208 14.5885 7.5 15.0469C8.36458 15.599 9.54167 15.9479 11.0312 16.0938L10.2344 16.9062C8.75521 18.3854 7.76042 19.375 7.25 19.875C7.02083 20.1042 6.90625 20.3776 6.90625 20.6953C6.90625 21.013 7.02083 21.2865 7.25 21.5156L7.39062 21.6562C7.61979 21.8854 7.89323 22 8.21094 22C8.52865 22 8.80208 21.8854 9.03125 21.6562L12.0156 18.6719C13.2031 19.8698 14.1979 20.8646 15 21.6562C15.2292 21.8854 15.5026 22 15.8203 22C16.138 22 16.4115 21.8854 16.6406 21.6562L16.7812 21.5156C17.0104 21.2865 17.125 21.013 17.125 20.6953C17.125 20.3776 17.0104 20.1042 16.7812 19.875L13.7969 16.9062L12.9844 16.0938C14.4531 15.9479 15.625 15.599 16.5 15.0469C17.1979 14.5885 17.651 14.2057 17.8594 13.8984C18.0677 13.5911 18.0573 13.2031 17.8281 12.7344ZM17.0625 7.0625C17.0625 5.66667 16.5677 4.47396 15.5781 3.48438C14.5885 2.49479 13.3958 2 12 2C10.6042 2 9.41146 2.49479 8.42188 3.48438C7.43229 4.47396 6.9375 5.66667 6.9375 7.0625C6.9375 8.45833 7.43229 9.65104 8.42188 10.6406C9.41146 11.6302 10.6042 12.125 12 12.125C13.3958 12.125 14.5885 11.6302 15.5781 10.6406C16.5677 9.65104 17.0625 8.45833 17.0625 7.0625ZM24 4.5V19.5C24 20.7396 23.5599 21.7995 22.6797 22.6797C21.7995 23.5599 20.7396 24 19.5 24H4.5C3.26042 24 2.20052 23.5599 1.32031 22.6797C0.440104 21.7995 0 20.7396 0 19.5V4.5C0 3.26042 0.440104 2.20052 1.32031 1.32031C2.20052 0.440104 3.26042 0 4.5 0H19.5C20.7396 0 21.7995 0.440104 22.6797 1.32031C23.5599 2.20052 24 3.26042 24 4.5Z" fill="#F24E1E"/>
</svg>