<svg width="20" height="20" viewBox="0 0 20 20" fill="none" xmlns="http://www.w3.org/2000/svg">
<path d="M8.795 5.2L5.97583 1.94584C5.65083 1.57084 5.055 1.5725 4.6775 1.95084L2.35917 4.27334C1.66917 4.96417 1.47167 5.99001 1.87083 6.81251C4.25552 11.75 8.23754 15.7376 13.1717 18.1292C13.9933 18.5283 15.0183 18.3308 15.7083 17.64L18.0483 15.2958C18.4275 14.9167 18.4283 14.3175 18.05 13.9925L14.7833 11.1883C14.4417 10.895 13.9108 10.9333 13.5683 11.2767L12.4317 12.415C12.3735 12.476 12.2969 12.5162 12.2136 12.5294C12.1304 12.5427 12.0451 12.5283 11.9708 12.4883C10.1129 11.4184 8.57166 9.8752 7.50417 8.01584C7.46419 7.94146 7.44971 7.85603 7.46296 7.77264C7.47621 7.68924 7.51644 7.6125 7.5775 7.55417L8.71083 6.42C9.05417 6.075 9.09167 5.54167 8.795 5.19917V5.2Z" stroke="#252525" stroke-width="2" stroke-linecap="round" stroke-linejoin="round"/>
</svg>