<svg width="55" height="58" viewBox="0 0 55 58" fill="none" xmlns="http://www.w3.org/2000/svg">
<path fill-rule="evenodd" clip-rule="evenodd" d="M51.9493 26.3267C51.2732 26.6715 48.873 27.7466 47.3111 26.9285C46.7432 26.631 46.635 26.1104 46.5065 25.2922C46.3781 24.4741 46.2023 23.3247 44.9447 22.9326L44.539 24.2307C44.9312 24.3524 45.0258 24.6094 45.1611 25.5018C45.2963 26.3943 45.4721 27.5302 46.6756 28.132C47.3035 28.4499 48.0003 28.6079 48.704 28.5917C49.6811 28.5687 50.6458 28.3671 51.5504 27.9968L51.6789 27.9494C51.7668 40.5794 46.7161 42.9459 45.756 43.2839C44.9109 42.8174 42.5242 40.9648 44.0454 35.8466C44.0454 35.8466 44.681 33.7032 46.0738 33.0745L45.5194 31.8372C44.4203 32.4148 43.5589 33.36 43.0853 34.5079C39.0827 35.948 34.6879 32.4795 34.6473 32.4186L33.836 33.4058C34.005 33.541 37.2571 36.1576 41.0299 36.1576C41.5566 36.1574 42.082 36.1053 42.5985 36.0021C42.0727 37.746 42.0727 39.6063 42.5985 41.3502V41.3502C40.8338 42.0264 38.1632 42.7025 37.0949 41.9655L36.3173 43.0744C36.9765 43.4856 37.7454 43.6861 38.5215 43.6491C40.1201 43.5649 41.6918 43.2035 43.1665 42.5808H43.2003C43.6797 43.3019 44.3093 43.9108 45.0461 44.3657C44.539 47.2866 43.3964 49.4232 41.6655 50.7146C40.2871 51.6894 38.618 52.1663 36.9326 52.0668L35.1882 49.2947L34.0118 49.9708L35.6412 52.797C35.2702 54.0166 34.3757 55.0078 33.2004 55.5016C30.861 56.3467 27.974 54.6361 27.9469 54.6226L27.8049 54.5414V54.4603C29.9753 46.9418 27.6562 44.4266 26.6555 43.2164C28.2512 41.3029 30.0835 37.5437 27.7441 34.1901C26.1539 31.9681 25.6728 29.1387 26.4392 26.5161C26.8043 25.9414 28.6298 22.7298 27.3316 17.5506C27.6765 17.6385 28.0889 17.7264 28.481 17.7805C30.1984 18.3147 32.2673 19.2477 32.8353 20.627C33.1734 21.4384 32.957 22.3579 32.1592 23.4329C30.7123 25.4613 30.9759 26.773 31.483 27.5302C32.1592 28.5985 33.5587 29.0245 34.9448 29.0245C35.3551 29.0252 35.7647 28.989 36.1686 28.9163C38.197 28.5512 39.6168 27.395 39.9211 25.9143L38.5688 25.6439C38.3389 26.7595 37.0408 27.3815 35.8981 27.5843C34.4445 27.848 33.0584 27.5235 32.6054 26.8068C32.1524 26.0901 32.8082 24.8596 33.2815 24.224C34.3363 22.7568 34.6338 21.3707 34.0861 20.1064C33.6011 19.0895 32.8023 18.2553 31.8076 17.7264C34.1395 17.3767 36.0849 15.7621 36.8582 13.5345L35.5871 13.0544C34.2349 16.6041 30.8542 16.7258 28.6704 16.4012C28.0741 16.2263 27.4693 16.0819 26.8583 15.9685C25.8509 12.7975 26.1011 10.8976 26.4797 9.88338L26.5608 9.71435C27.1164 8.91005 27.5705 8.0403 27.9131 7.12479V7.12479C29.3396 8.58812 31.2794 9.43919 33.3221 9.49799C35.2125 9.43907 37.0228 8.72161 38.4404 7.46962L37.5005 6.48924C37.3247 6.65827 32.9975 10.4175 28.2917 5.6238C28.7551 3.57509 28.6165 1.43613 27.8928 -0.535699L27.832 -0.691209L28.0213 -0.806149C29.8536 -1.96908 31.4019 -2.32067 32.531 -1.8609C34.0456 -1.25915 34.5594 0.600191 34.5594 0.613721L34.7014 1.19519L35.2964 1.12758C39.9211 0.600201 41.9495 2.35136 44.2348 4.37974C44.6134 4.71104 44.9988 5.05586 45.3909 5.3804C46.568 6.28985 47.3674 7.6022 47.6357 9.06528C45.8913 8.57171 42.9907 8.22012 41.5505 10.4175L42.6864 11.1613C43.6939 9.62646 46.3848 10.093 47.7844 10.4851L48.0346 10.5866C49.7249 11.4588 50.6647 12.473 50.827 13.6021C51.0704 15.2789 49.5423 16.7799 49.5288 16.7934L48.8527 17.4357L49.664 17.882C51.0574 18.5585 52.1077 19.7826 52.5646 21.2626C53.1664 23.3315 52.3415 25.4748 51.9493 26.3268L51.9493 26.3267ZM26.1214 54.3318V54.3927L25.9659 54.4603C24.2485 55.204 22.7948 55.3122 21.6522 54.7781C20.7646 54.274 20.104 53.4489 19.8064 52.4725L21.3614 50.0993L20.2255 49.3555L18.6637 51.7422L18.5285 51.9113C14.1269 52.3372 12.1796 50.6267 9.93491 48.6456C9.55628 48.3143 9.17089 47.9695 8.77874 47.6449C7.57614 46.7132 6.77156 45.3602 6.52724 43.8586H6.56781C7.39555 44.1179 8.25628 44.2568 9.12356 44.2711C10.5008 44.3664 11.8264 43.7293 12.6124 42.5943L11.4765 41.8505C10.1242 43.8789 6.33117 42.3982 5.47925 42.0331C4.20137 41.2488 3.45087 40.3563 3.33593 39.3894C3.09252 37.7126 4.62057 36.2117 4.63409 36.1981L5.31022 35.5558L4.49887 35.1096C3.10551 34.4331 2.05519 33.2089 1.59829 31.7289C1.01682 29.7006 1.83493 27.5505 2.22709 26.6918L2.32175 26.6377C3.54554 26.0495 5.91874 25.2855 6.73685 25.9616C7.8795 26.969 9.44135 28.2199 10.584 28.443L10.8477 27.0907C10.6178 27.0434 9.69828 26.7527 7.62933 24.9271C6.34469 23.798 4.04586 24.4403 2.65305 24.9947L2.49754 25.0623C2.39612 12.4729 7.41297 10.0591 8.40687 9.70754L8.58266 9.8022C9.46839 10.3093 11.6252 12.1213 10.131 17.172C10.131 17.172 9.49543 19.3153 8.10261 19.9441L8.59618 21.2355C9.69411 20.6595 10.5554 19.7169 11.0302 18.5716V18.5716C15.0397 17.1179 19.4209 20.5999 19.4615 20.654L20.3134 19.6263C20.1241 19.4708 15.9592 16.124 11.5711 17.03V17.03C12.9234 11.8103 10.6178 9.5926 9.36696 8.78802L9.17088 8.65956C9.67797 5.7387 10.8206 3.60891 12.5515 2.31751C14.025 1.26233 15.833 0.781481 17.636 0.965261L18.1972 1.05315L18.3865 0.519011C18.9274 -1.02932 19.7387 -1.98265 20.807 -2.30043C22.9706 -2.97656 25.6075 -0.948179 25.6345 -0.948179C25.7503 -0.844229 25.8525 -0.726099 25.9388 -0.596599C27.4602 2.06143 27.4884 5.31977 26.0132 8.00371C25.8878 8.23204 25.7307 8.44147 25.5466 8.62575C23.656 8.06061 21.649 8.00927 19.732 8.477V8.42291C18.9341 7.07066 17.0275 6.63794 15.8172 6.63794V7.99019C15.8172 7.99019 17.6765 7.99019 18.4338 8.93V8.93C17.2397 9.5065 16.2115 10.3766 15.4453 11.4587L16.5474 12.2565C19.1843 8.61899 23.4236 9.38301 25.0328 9.84277V9.87658C24.6609 11.2288 24.573 13.4262 25.648 16.6378C27.548 22.3308 25.3438 25.6303 25.2491 25.7588L25.168 25.9143C24.2148 28.972 24.7477 32.2996 26.6081 34.9067C28.8258 38.0913 26.2701 41.499 25.452 42.4455L25.3776 42.5131C25.3235 42.5131 25.1004 42.4523 24.7488 42.3914C22.9909 42.0128 19.7387 40.9648 18.995 39.1798C18.6569 38.3685 18.8733 37.449 19.6711 36.3739C21.1248 34.3456 20.8543 33.0339 20.3472 32.2766C19.4683 30.8906 17.3587 30.5795 15.6617 30.9244C13.6333 31.2895 12.2134 32.4456 11.9092 33.9263L13.2614 34.1968C13.4913 33.0812 14.7895 32.4592 15.9321 32.2563C17.3858 31.9926 18.7719 32.3172 19.2249 33.0339C19.6779 33.7505 19.022 34.9811 18.5487 35.6167C17.494 37.0838 17.1965 38.4699 17.7441 39.7343C18.3236 40.8825 19.2777 41.7985 20.4486 42.3306C18.2445 42.6348 15.9389 43.6355 14.972 46.2927L16.2499 46.7524C17.6427 42.912 23.2613 43.3718 24.8502 43.6693L25.3303 43.764C25.3303 43.764 28.596 45.6842 26.1213 54.3318L26.1214 54.3318ZM53.8966 20.9109C53.4349 19.3612 52.4225 18.0338 51.0501 17.1787C51.9004 16.1407 52.3084 14.8098 52.186 13.4736C51.9696 11.9793 50.9149 10.6947 49.042 9.63994C48.9299 7.54974 47.9129 5.61204 46.2564 4.33236C45.871 4.01458 45.4991 3.65624 45.1272 3.35874C42.8757 1.37769 40.5499 -0.698009 35.6615 -0.251769C35.2171 -1.51241 34.2837 -2.5409 33.0719 -3.10502C31.5304 -3.72706 29.6913 -3.37547 27.5209 -2.06379L26.3107 -2.17197C25.6345 -2.65202 22.93 -4.36262 20.4351 -3.61212C19.0829 -3.19968 18.0078 -2.13141 17.3047 -0.434329C15.3322 -0.530149 13.3854 0.0441309 11.7807 1.19513C9.70503 2.71641 8.40011 5.17751 7.81188 8.51756C6.15537 9.13283 0.827511 12.1754 1.11824 25.8061C0.746371 26.5228 -0.538269 29.2949 0.252801 32.1008C0.707101 33.663 1.72029 35.0035 3.09929 35.8668C2.249 36.9049 1.84101 38.2357 1.9634 39.572C2.17976 41.0662 3.23452 42.3509 5.10738 43.4056C5.22558 45.4851 6.23922 47.4113 7.88626 48.6862C8.27165 49.004 8.64352 49.3623 9.01539 49.6598C11.2669 51.6476 13.5995 53.7165 18.4811 53.2703C18.9915 54.4445 19.8986 55.4019 21.0437 55.9748C22.5176 56.6509 24.3026 56.5968 26.3377 55.7449L27.379 55.8193C28.7219 56.5779 30.2259 57.0066 31.767 57.0701C34.0733 57.1132 36.1358 55.6412 36.8447 53.4461C38.8173 53.543 40.7645 52.9686 42.3686 51.8166C44.4443 50.2953 45.7493 47.8343 46.3375 44.4942C47.994 43.8789 53.3219 40.8364 53.0311 27.2057C53.403 26.489 54.6809 23.7169 53.8966 20.9109H53.8966Z" fill="#1466CF"/>
</svg>
