<svg width="39" height="46" viewBox="0 0 39 46" fill="none" xmlns="http://www.w3.org/2000/svg">
<path fill-rule="evenodd" clip-rule="evenodd" d="M37.6061 5.01915C37.6061 -7.63488 23.1447 -1.1271 19.5293 -1.1271C15.914 -1.1271 1.45259 -7.4541 1.45259 5.01915C1.45259 9.89998 2.71796 14.2385 4.70641 18.0347C6.33331 21.1078 6.87561 24.7233 6.15254 27.9771C5.42948 31.4118 3.0795 44.2466 6.87561 44.2466C12.2986 44.2466 12.2986 27.9771 19.5293 27.9771C26.76 27.9771 28.5677 44.2466 32.183 44.2466C36.1599 44.2466 33.6292 31.4118 32.9061 27.9771C32.183 24.5425 32.7253 21.1078 34.3523 18.0347C36.3407 14.4193 37.6061 9.89998 37.6061 5.01915Z" stroke="#1466CF" stroke-width="2" stroke-linecap="round" stroke-linejoin="round"/>
</svg>
