<svg width="63" height="43" viewBox="0 0 63 43" fill="none" xmlns="http://www.w3.org/2000/svg">
<path fill-rule="evenodd" clip-rule="evenodd" d="M61.704 41.229H49.2134V38.2891C49.2134 37.0511 48.5745 35.9006 47.5234 35.2461C46.4722 34.5916 45.1578 34.5258 44.0467 35.0721L44.0062 35.0923C43.9161 35.137 43.8312 35.1792 43.7512 35.2121L37.5396 37.7687C36.2783 38.2846 35.4554 39.5133 35.4585 40.876V41.2289H34.0281V33.0785C34.0281 31.8087 32.9987 30.7793 31.7289 30.7793C30.4591 30.7793 29.4297 31.8087 29.4297 33.0785V41.229H27.7147V40.876C27.7177 39.5133 26.8947 38.2846 25.6334 37.7688L19.4221 35.2123C19.3423 35.1794 19.2573 35.1372 19.1673 35.0925L19.1265 35.0722C18.0153 34.5259 16.7009 34.5916 15.6498 35.2461C14.5987 35.9005 13.9597 37.051 13.9596 38.2892L13.9596 41.229H1.75365V1.49635H61.7041L61.704 41.229ZM47.9167 41.229H36.7551V40.876C36.7532 40.0392 37.2586 39.2846 38.0331 38.9677L44.2447 36.411C44.3669 36.3608 44.4768 36.3062 44.5828 36.2536L44.6219 36.2341C44.9344 36.0788 45.2785 35.9979 45.6274 35.9977C46.8912 36.001 47.9146 37.0253 47.9169 38.2891L47.9167 41.229ZM30.7257 41.2288V33.0783C30.7256 32.5246 31.1745 32.0757 31.7283 32.0757C32.2821 32.0757 32.731 32.5246 32.731 33.0783V41.2288H30.7257ZM26.4179 41.229H15.256V38.2891C15.256 37.4996 15.6632 36.7657 16.3333 36.3477C17.0036 35.9297 17.8418 35.8868 18.5511 36.2342L18.5903 36.2536C18.6963 36.3063 18.8058 36.3607 18.9281 36.4111L25.1397 38.9677C25.9143 39.2845 26.4197 40.039 26.4179 40.8759L26.4179 41.229ZM62.3524 0.199707H1.10531C0.747271 0.199707 0.457031 0.489957 0.457031 0.848007V41.8772C0.457031 42.2352 0.747281 42.5255 1.10531 42.5255H14.6057L27.0642 42.5669H27.0664C27.1423 42.5662 27.2174 42.5522 27.2884 42.5255L35.8846 42.5255C35.9556 42.5522 36.0308 42.5662 36.1066 42.5669H36.1088L48.5672 42.5255H62.3524C62.7104 42.5255 63.0007 42.2352 63.0007 41.8772V0.848007C63.0007 0.489957 62.7104 0.199707 62.3524 0.199707Z" fill="#1466CF"/>
<path fill-rule="evenodd" clip-rule="evenodd" d="M30.726 6.22669C30.726 5.67295 31.1749 5.224 31.7286 5.224C32.2824 5.224 32.7313 5.67294 32.7313 6.22669V27.1507C32.7313 27.7044 32.2824 28.1534 31.7286 28.1534C31.1749 28.1534 30.726 27.7044 30.726 27.1507V6.22669ZM31.7289 29.45C32.9981 29.4485 34.0267 28.42 34.0282 27.1508V6.22671C34.0282 4.95687 32.9988 3.92749 31.7289 3.92749C30.4591 3.92749 29.4297 4.95688 29.4297 6.22671V27.1507C29.4311 28.42 30.4597 29.4486 31.7289 29.45Z" fill="#1466CF"/>
<path fill-rule="evenodd" clip-rule="evenodd" d="M15.873 21.1843L15.8819 21.1607C16.0134 20.7972 16.4107 20.6049 16.7774 20.7273C19.6865 21.691 22.7021 22.2972 25.7577 22.5326C26.1406 22.561 26.4321 22.8879 26.4165 23.2716L26.4149 23.3061C26.4076 23.5009 26.3206 23.6843 26.1744 23.8133C26.0272 23.9448 25.8325 24.0102 25.6358 23.9941C22.4679 23.7494 19.3415 23.1209 16.3251 22.1224C16.1383 22.0613 15.9846 21.9267 15.8993 21.7496C15.814 21.5726 15.8045 21.3684 15.8731 21.1843L15.873 21.1843ZM15.9175 23.3533C19.0337 24.3848 22.2636 25.034 25.5363 25.2868C25.5898 25.291 25.6432 25.293 25.6963 25.293C26.7746 25.2918 27.6615 24.4433 27.7105 23.3661L27.7121 23.3317C27.7617 22.2474 26.9398 21.3203 25.8573 21.2397C22.9067 21.0125 19.9948 20.4271 17.1856 19.4965C16.159 19.1523 15.0446 19.6862 14.6694 20.7019L14.6569 20.7352C14.4666 21.2491 14.4934 21.8183 14.7311 22.312C14.9689 22.8057 15.3971 23.1816 15.9176 23.3532L15.9175 23.3533Z" fill="#1466CF"/>
<path fill-rule="evenodd" clip-rule="evenodd" d="M15.8721 27.2404C15.8726 27.239 15.8813 27.2157 15.8818 27.2143C16.0134 26.8509 16.4107 26.6586 16.7773 26.781C19.6864 27.7447 22.702 28.3509 25.7576 28.5862C26.1405 28.6147 26.432 28.9415 26.4165 29.3252L26.4149 29.3596C26.4075 29.5545 26.3206 29.7379 26.1743 29.8669C26.0271 29.9984 25.8324 30.0638 25.6357 30.0478C22.4678 29.803 19.3413 29.1745 16.325 28.1761C16.1373 28.1149 15.983 27.9793 15.8981 27.8011C15.813 27.6257 15.8036 27.423 15.8722 27.2405L15.8721 27.2404ZM15.9174 29.4072C19.0336 30.4387 22.2634 31.0879 25.5361 31.3407C25.5896 31.3449 25.6429 31.3469 25.696 31.3469C26.7745 31.3458 27.6616 30.4971 27.7103 29.4198L27.712 29.3856C27.7615 28.3013 26.9396 27.3743 25.8572 27.2935C22.9066 27.0664 19.9947 26.481 17.1856 25.5504C16.1589 25.2063 15.0446 25.7401 14.6694 26.7559L14.6569 26.7891C14.4666 27.303 14.4934 27.8722 14.7311 28.3659C14.9689 28.8597 15.3971 29.2356 15.9175 29.4072H15.9174Z" fill="#1466CF"/>
<path fill-rule="evenodd" clip-rule="evenodd" d="M15.8818 15.085C16.014 14.7221 16.4108 14.53 16.7774 14.6517C19.6865 15.6154 22.7021 16.2216 25.7576 16.4569C26.1406 16.4853 26.4321 16.8123 26.4165 17.196L26.4149 17.2304C26.4064 17.4263 26.3186 17.6103 26.1716 17.7401C26.0246 17.8699 25.8312 17.9343 25.6357 17.9185C22.4679 17.6738 19.3414 17.0453 16.325 16.0469C16.1376 15.9855 15.9834 15.8501 15.8983 15.6722C15.8132 15.4943 15.8046 15.2894 15.8744 15.1049L15.8818 15.085ZM15.9175 17.2777C19.0337 18.3091 22.2635 18.9584 25.5362 19.2112C25.5898 19.2153 25.643 19.2174 25.6961 19.2174C26.7746 19.2163 27.6617 18.3676 27.7105 17.2902L27.7121 17.256C27.7616 16.1717 26.9397 15.2447 25.8573 15.164C22.9067 14.9368 19.9948 14.3515 17.1856 13.4208C16.1589 13.0766 15.0445 13.6104 14.6694 14.6262L14.6569 14.6596C14.4666 15.1735 14.4934 15.7426 14.7311 16.2364C14.9689 16.7301 15.3971 17.106 15.9175 17.2776L15.9175 17.2777Z" fill="#1466CF"/>
<path fill-rule="evenodd" clip-rule="evenodd" d="M15.8722 9.03546C15.8727 9.03412 15.8814 9.01077 15.8819 9.00944C16.0136 8.64607 16.4109 8.45382 16.7776 8.576H16.7774L25.7577 10.3813C26.1407 10.4098 26.4321 10.7367 26.4166 11.1204L26.415 11.1548C26.4076 11.3497 26.3206 11.533 26.1744 11.662C26.0272 11.7935 25.8325 11.8589 25.6358 11.8429C22.4679 11.5982 19.3414 10.9697 16.325 9.9712C16.1374 9.90998 15.9831 9.77444 15.8982 9.59625C15.8131 9.42076 15.8037 9.21803 15.8722 9.03543L15.8722 9.03546ZM15.9175 11.2021C19.0337 12.2335 22.2636 12.8828 25.5363 13.1357C25.5898 13.1397 25.6431 13.1418 25.6961 13.1418C26.7745 13.1406 27.6615 12.292 27.7105 11.2148L27.7121 11.1804C27.7616 10.0961 26.9397 9.16905 25.8573 9.08836C22.9067 8.86123 19.9948 8.27584 17.1856 7.34512H17.1855C16.1588 7.00088 15.0443 7.53488 14.6694 8.55076L14.6569 8.5841C14.4666 9.09797 14.4934 9.66715 14.7311 10.1609C14.9689 10.6547 15.3971 11.0305 15.9175 11.2022L15.9175 11.2021Z" fill="#1466CF"/>
<path fill-rule="evenodd" clip-rule="evenodd" d="M37.0418 23.2783C37.0232 22.8924 37.3151 22.5618 37.7004 22.5325C40.7559 22.2972 43.7715 21.691 46.6807 20.7273C47.0502 20.6058 47.4491 20.8015 47.579 21.1681L47.5859 21.1867C47.6544 21.3692 47.645 21.5719 47.5599 21.7474C47.475 21.9256 47.3207 22.0611 47.1331 22.1224C44.1167 23.1208 40.9902 23.7493 37.8223 23.994C37.6268 24.0098 37.4333 23.9455 37.2864 23.8157C37.1394 23.6858 37.0516 23.5018 37.0431 23.3059H37.0431L37.0418 23.2783ZM36.4227 24.7826C36.7909 25.1121 37.2679 25.2938 37.762 25.293C37.815 25.293 37.8685 25.2909 37.922 25.2868C41.1946 25.034 44.4245 24.3848 47.5407 23.3533C48.0608 23.1818 48.4887 22.8064 48.7266 22.3132C48.9645 21.82 48.9917 21.2513 48.8022 20.7376L48.7917 20.7094C48.4186 19.69 47.3022 19.1524 46.2726 19.4965C43.4635 20.4271 40.5516 21.0125 37.601 21.2398C36.5186 21.3203 35.6967 22.2474 35.7463 23.3317L35.7475 23.3593C35.7682 23.9062 36.0122 24.4206 36.4226 24.7827L36.4227 24.7826Z" fill="#1466CF"/>
<path fill-rule="evenodd" clip-rule="evenodd" d="M37.0418 29.3323C37.0233 28.9464 37.3152 28.6158 37.7004 28.5864C40.7559 28.3511 43.7715 27.7449 46.6807 26.7812C47.0472 26.6594 47.4442 26.8515 47.5762 27.2145C47.5771 27.2171 47.5849 27.2381 47.5859 27.2406C47.6544 27.4231 47.645 27.6259 47.5599 27.8013C47.475 27.9795 47.3207 28.1151 47.1331 28.1763L37.8223 30.0479C37.6256 30.0639 37.431 29.9986 37.2838 29.8671C37.1375 29.7381 37.0505 29.5547 37.0432 29.3598L37.0418 29.3323ZM36.4225 30.8366C36.7908 31.1661 37.2679 31.3479 37.7621 31.347C37.8151 31.347 37.8684 31.3449 37.922 31.3408C41.1946 31.088 44.4245 30.4387 47.5407 29.4073C48.0604 29.2359 48.4883 28.8608 48.7262 28.368C48.9641 27.8752 48.9917 27.307 48.8028 26.7933L48.7917 26.7633C48.4187 25.7439 47.3022 25.2063 46.2726 25.5505C43.4635 26.4811 40.5516 27.0665 37.6011 27.2937C36.5186 27.3744 35.6967 28.3014 35.7463 29.3857L35.7475 29.4133C35.7682 29.9601 36.0121 30.4745 36.4225 30.8366V30.8366Z" fill="#1466CF"/>
<path fill-rule="evenodd" clip-rule="evenodd" d="M37.0418 17.2029C37.0233 16.817 37.3152 16.4864 37.7004 16.457C40.7559 16.2217 43.7716 15.6155 46.6807 14.6518C47.0473 14.5299 47.4443 14.722 47.5762 15.0852C47.5771 15.0877 47.5849 15.1087 47.5859 15.1112C47.6544 15.2938 47.645 15.4965 47.5599 15.6719C47.4751 15.8501 47.3207 15.9857 47.1331 16.0469C44.1167 17.0454 40.9902 17.6739 37.8223 17.9187C37.6269 17.9345 37.4334 17.8701 37.2864 17.7403C37.1395 17.6105 37.0516 17.4265 37.0431 17.2306V17.2306L37.0418 17.2029ZM36.4225 18.7071C36.7908 19.0367 37.2679 19.2185 37.7621 19.2176C37.8151 19.2176 37.8684 19.2155 37.922 19.2114C41.1946 18.9586 44.4246 18.3094 47.5407 17.2779C48.0613 17.1062 48.4896 16.7301 48.7273 16.2362C48.965 15.7423 48.9916 15.1729 48.801 14.6589L48.7917 14.6339C48.4186 13.6145 47.3022 13.0769 46.2726 13.4211C43.4635 14.3517 40.5516 14.937 37.6011 15.1641C36.5186 15.2448 35.6967 16.1718 35.7463 17.2561L35.7475 17.2837C35.7682 17.8306 36.0121 18.3451 36.4225 18.7072L36.4225 18.7071Z" fill="#1466CF"/>
<path fill-rule="evenodd" clip-rule="evenodd" d="M37.0417 11.1272C37.0232 10.7412 37.3151 10.4106 37.7004 10.3812C40.7559 10.146 43.7714 9.53976 46.6805 8.57592C47.0471 8.45443 47.4439 8.64645 47.5761 9.00936C47.5771 9.01189 47.5848 9.03295 47.5858 9.03542C47.6544 9.21798 47.645 9.42069 47.5599 9.59617C47.475 9.77435 47.3207 9.90988 47.1331 9.97112C44.1167 10.9696 40.9902 11.598 37.8223 11.8428C37.6255 11.8588 37.4309 11.7934 37.2837 11.662C37.1375 11.5329 37.0505 11.3496 37.0431 11.1547L37.0417 11.1272ZM36.4226 12.6314C36.7909 12.9609 37.2679 13.1427 37.7621 13.1418C37.8151 13.1418 37.8684 13.1398 37.922 13.1357C41.1946 12.8828 44.4246 12.2335 47.5407 11.2022C48.0604 11.0307 48.4883 10.6556 48.7262 10.1628C48.9641 9.67004 48.9917 9.10174 48.8028 8.58816L48.7917 8.55816C48.4186 7.5389 47.3023 7.0014 46.2728 7.34524H46.2726C43.4635 8.27595 40.5516 8.86134 37.6011 9.08847C36.5186 9.16916 35.6967 10.0962 35.7463 11.1805L35.7475 11.2081C35.7682 11.7549 36.0122 12.2694 36.4226 12.6314L36.4226 12.6314Z" fill="#1466CF"/>
<path fill-rule="evenodd" clip-rule="evenodd" d="M57.9788 6.10327V10.858H59.2749V6.10327C59.2735 4.90057 58.2994 3.92599 57.0974 3.92466L52.2995 3.92468V5.22156H57.0974C57.5839 5.22208 57.9781 5.6165 57.9788 6.10327Z" fill="#1466CF"/>
<path fill-rule="evenodd" clip-rule="evenodd" d="M5.48447 6.1026C5.48507 5.61599 5.87923 5.2217 6.3656 5.22115H10.8416V3.92466H6.36557C5.16385 3.92605 4.18999 4.90032 4.18858 6.10259V10.9636H5.48447V6.1026Z" fill="#1466CF"/>
<path fill-rule="evenodd" clip-rule="evenodd" d="M6.36408 38.7957H11.1117V37.4988H6.36408C5.87805 37.4983 5.48414 37.1039 5.48356 36.6171V31.8624H4.18856V36.6171C4.18997 37.8197 5.16317 38.7943 6.36408 38.7957Z" fill="#1466CF"/>
<path fill-rule="evenodd" clip-rule="evenodd" d="M57.9788 36.6171C57.9783 37.1038 57.5841 37.4982 57.0976 37.4988H52.519V38.7957H57.0977C58.2996 38.7943 59.2737 37.8197 59.275 36.6171V31.8624H57.9789L57.9788 36.6171Z" fill="#1466CF"/>
</svg>
