<svg width="63" height="52" viewBox="0 0 63 52" fill="none" xmlns="http://www.w3.org/2000/svg">
<path fill-rule="evenodd" clip-rule="evenodd" d="M60.3996 45.2722C58.8224 48.4128 55.7235 50.0873 51.1376 50.1568C35.9696 50.4834 34.851 39.6233 34.844 39.5121C33.9512 31.6509 33.786 23.724 34.3507 15.8325V15.7005L40.0621 21.7455C40.0621 22.3569 40.0621 24.5248 38.2903 24.7402L38.4641 26.1298C40.2845 25.9005 41.0627 24.4414 41.3337 23.1073L41.7714 23.5729C42.4279 24.7283 42.9324 25.9637 43.2722 27.2485V27.311C44.1547 32.5569 39.4993 34.3148 39.2978 34.3913L39.7703 35.6975C41.4525 34.9945 42.87 33.7788 43.8211 32.2234L43.8211 32.2859C43.753 34.354 43.3879 36.4015 42.7372 38.3657C42.6677 38.588 41.1461 43.5838 42.7998 46.3422L43.9879 45.6474C42.8762 43.7922 43.6613 40.0888 44.0574 38.8034C44.3638 37.8554 44.6144 36.8903 44.8078 35.9129C44.9815 36.0936 45.2247 36.3159 45.447 36.5313C47.059 38.4143 49.5604 41.7911 49.7688 44.8692L51.1585 44.7719C50.9279 42.8092 50.2479 40.9261 49.1713 39.2689C50.8941 40.2426 52.9179 40.5399 54.848 40.1027L54.5006 38.7617C51.3183 39.5816 48.1777 37.2122 46.4614 35.5655C45.8153 34.8221 45.2803 34.3079 45.0718 34.1272C45.4425 31.2378 45.1332 28.3018 44.1685 25.5531H44.2311C45.718 25.4836 48.6849 25.7129 50.005 28.4644L51.2557 27.8669C50.6746 26.6663 49.7152 25.6898 48.5251 25.0876L48.5737 25.0459C49.7132 24.1357 52.4647 24.6846 53.4375 24.9903L53.8474 23.6632C53.3194 23.4964 48.8169 22.1832 47.1771 24.49V24.5387C46.049 24.2173 44.8704 24.1113 43.703 24.226H43.6196C43.4251 23.8161 43.2375 23.4478 43.0568 23.1351L43.0082 22.9892C42.5149 21.5996 40.9237 18.9801 39.1866 16.3953H39.2422C40.9838 15.857 42.7973 15.5876 44.6202 15.5963L44.6966 15.6658C45.4262 16.305 47.1076 18.0838 46.6213 19.1399L47.8858 19.7166C48.5042 18.327 47.6496 16.8678 46.795 15.8256L46.7463 15.77C48.5334 16.0096 50.2306 16.6981 51.6796 17.7711L52.5828 16.715C50.5999 15.2417 48.2265 14.3861 45.7597 14.2553V14.1789C45.7289 12.6917 46.306 11.2563 47.3578 10.2045L46.5031 9.09274C45.1503 10.3972 44.396 12.2024 44.4187 14.0816V14.158C43.5933 14.1612 42.7691 14.2216 41.952 14.3387H41.9034L42.0771 14.0677C43.8975 11.0244 42.2994 6.23702 42.2369 6.03552L40.9237 6.48021C41.146 7.18652 41.3132 7.90898 41.424 8.64111H41.3128C40.5415 8.64111 39.0338 8.58552 38.4779 7.45991L37.2342 8.0783C38.0749 9.75977 39.937 10.0308 41.0696 10.0308H41.4587H41.5282C41.6176 11.1859 41.3766 12.3426 40.8334 13.3659C40.2807 14.2679 39.3471 14.869 38.2972 14.9988H38.2625C36.9771 13.0949 35.7403 11.344 35.0107 10.3226V10.2323C35.3709 8.05064 35.9053 5.90139 36.6088 3.80514C36.6088 3.7565 38.068 -0.829328 40.9028 -1.30876C41.0566 -1.33551 41.2123 -1.34946 41.3684 -1.35045C43.1124 -1.35045 45.1621 0.199012 47.3299 3.16591C53.3332 11.2398 65.5135 34.9124 60.3926 45.2722L60.3996 45.2722ZM28.6115 39.5121C28.6115 39.6233 27.4789 50.4834 12.3178 50.1568C7.72505 50.0595 4.61224 48.4197 3.05583 45.293C-2.06502 34.9124 10.1152 11.2397 16.056 3.11724C18.2308 0.150342 20.2736 -1.39911 22.0176 -1.39911C22.1736 -1.39811 22.3294 -1.38417 22.4831 -1.35742C25.3249 -0.877988 26.7632 3.70784 26.7771 3.75648C27.4806 5.85274 28.015 8.00199 28.3752 10.1836V10.2739C27.6457 11.2953 26.4089 13.0532 25.1234 14.9501H25.0887C24.0388 14.8203 23.1053 14.2193 22.5526 13.3172C22.0093 12.2939 21.7683 11.1372 21.8578 9.98209H21.9967H22.3858C23.5253 9.98209 25.3875 9.70416 26.2213 8.02964L24.9775 7.41125C24.4147 8.53687 22.8931 8.62719 22.1426 8.59245H22.0593C22.17 7.86032 22.3373 7.13786 22.5595 6.43155L21.2463 5.98687C21.1768 6.18837 19.5857 10.9757 21.4061 14.019L21.5798 14.29H21.5312C20.7142 14.173 19.89 14.1126 19.0646 14.1094V14.0329C19.0872 12.1537 18.333 10.3486 16.9801 9.04409L16.0977 10.1141C17.1494 11.166 17.7265 12.6014 17.6958 14.0885V14.1649C15.2289 14.2958 12.8555 15.1513 10.8726 16.6246L11.7759 17.6808C13.2249 16.6077 14.9221 15.9193 16.7091 15.6797L16.6605 15.7353C15.8059 16.7775 14.9512 18.2644 15.5696 19.6263L16.8342 19.0496C16.3478 17.9795 18.0224 16.2008 18.7589 15.5754L18.8353 15.506C20.6581 15.4972 22.4717 15.7667 24.2132 16.305H24.2688C22.5596 18.8898 20.9406 21.5231 20.4473 22.8989L20.3986 23.0448C20.218 23.3575 20.0234 23.7396 19.8358 24.1357H19.7525C18.5851 24.0209 17.4065 24.127 16.2783 24.4483V24.3997C14.6455 22.0929 10.143 23.4061 9.60802 23.5729L10.018 24.9C11.0116 24.5943 13.7631 24.0453 14.8817 24.9556L14.9304 24.9973C13.7402 25.5995 12.7808 26.5759 12.1997 27.7765L13.4504 28.3741C14.7706 25.5948 17.7375 25.3933 19.2244 25.4628H19.273C18.2905 28.2314 17.9739 31.1926 18.3489 34.1064C18.1613 34.294 17.6541 34.8012 16.9593 35.5447C15.2431 37.1914 12.0955 39.5607 8.92015 38.7409L8.57274 40.0819C10.5028 40.519 12.5266 40.2218 14.2495 39.2481C13.1763 40.9038 12.4987 42.7844 12.2692 44.7441L13.6589 44.8414C13.8742 41.7633 16.3687 38.3795 17.9807 36.5035C18.203 36.2881 18.4462 36.0658 18.6199 35.8851C18.8133 36.8625 19.0639 37.8276 19.3703 38.7756C19.7664 40.0541 20.5515 43.7644 19.4398 45.6196L20.6279 46.3144C22.2816 43.5351 20.76 38.5532 20.6905 38.3378C20.0398 36.3737 19.6747 34.3262 19.6065 32.2581V32.1956C20.5577 33.751 21.9752 34.9667 23.6574 35.6697L24.1298 34.3635C23.9283 34.287 19.2661 32.5361 20.1554 27.2832V27.2207C20.4953 25.9359 20.9997 24.7005 21.6563 23.5451L22.094 23.0795C22.365 24.4136 23.1432 25.8588 24.9636 26.102L25.1373 24.7124C23.435 24.5247 23.3864 22.3638 23.3864 21.7455L29.0839 15.6935V15.8256C29.6559 23.7188 29.4978 31.648 28.6115 39.5121ZM48.5112 2.29734C45.7736 -1.44776 43.1541 -3.14313 40.757 -2.71929C37.13 -2.10784 35.4833 2.98521 35.3721 3.34652C35.0803 4.1942 34.8162 5.07663 34.573 5.98685L34.5383 6.13276V-1.01697H28.945V6.11192L28.9102 5.96601C28.674 5.06274 28.41 4.18031 28.1112 3.32568C28 2.96437 26.3533 -2.12174 22.7263 -2.74013C20.3014 -3.15008 17.6819 -1.45471 14.9373 2.29039C7.9474 11.872 -3.46855 35.2042 1.80516 45.9184C3.60475 49.5662 7.13446 51.477 12.2831 51.5742H12.9779C28.7782 51.5742 29.9872 39.7622 30.0011 39.6858C30.0914 38.991 31.6548 26.4216 30.3972 14.4359V14.3456L31.6409 13.0185H31.8493L33.0931 14.3456V14.4359C31.8077 26.3938 33.371 38.9701 33.4613 39.665C33.4613 39.7553 34.6842 51.5534 50.4845 51.5534H51.1793C56.328 51.4422 59.8507 49.5384 61.6573 45.8975C66.9171 35.2042 55.5011 11.872 48.5112 2.29734H48.5112Z" fill="#1466CF"/>
</svg>
