<svg width="63" height="55" viewBox="0 0 63 55" fill="none" xmlns="http://www.w3.org/2000/svg">
<path fill-rule="evenodd" clip-rule="evenodd" d="M60.3999 48.2721C58.8227 51.4127 55.7238 53.0873 51.1379 53.1568C35.9699 53.4833 34.8513 42.6232 34.8443 42.5121C33.9515 34.6508 33.7863 26.724 34.351 18.8324V18.7004L40.0624 24.7454C40.0624 25.3569 40.0624 27.5247 38.2906 27.7401L38.4644 29.1298C40.2848 28.9005 41.063 27.4413 41.334 26.1073L41.7717 26.5728C42.4282 27.7282 42.9327 28.9637 43.2725 30.2484V30.311C44.155 35.5569 39.4996 37.3148 39.2981 37.3912L39.7706 38.6975C41.4528 37.9945 42.8703 36.7787 43.8215 35.2234L43.8214 35.2859C43.7533 37.3539 43.3882 39.4014 42.7375 41.3656C42.668 41.5879 41.1464 46.5837 42.8001 49.3422L43.9882 48.6474C42.8765 46.7922 43.6616 43.0888 44.0577 41.8033C44.3641 40.8554 44.6147 39.8902 44.8081 38.9129C44.9818 39.0935 45.225 39.3159 45.4473 39.5313C47.0593 41.4142 49.5607 44.7911 49.7691 47.8692L51.1588 47.7719C50.9282 45.8092 50.2482 43.9261 49.1716 42.2689C50.8945 43.2426 52.9182 43.5398 54.8483 43.1027L54.5009 41.7617C51.3186 42.5816 48.178 40.2122 46.4618 38.5655C45.8156 37.822 45.2806 37.3078 45.0721 37.1272C45.4428 34.2378 45.1335 31.3018 44.1688 28.5531H44.2314C45.7183 28.4836 48.6852 28.7129 50.0053 31.4644L51.256 30.8668C50.6749 29.6662 49.7155 28.6897 48.5254 28.0875L48.574 28.0458C49.7135 27.1356 52.465 27.6845 53.4378 27.9903L53.8477 26.6631C53.3197 26.4964 48.8172 25.1832 47.1774 27.49V27.5386C46.0493 27.2173 44.8707 27.1112 43.7033 27.226H43.6199C43.4254 26.816 43.2378 26.4478 43.0571 26.1351L43.0085 25.9892C42.5152 24.5995 40.924 21.98 39.1869 19.3953H39.2425C40.9841 18.857 42.7976 18.5875 44.6205 18.5962L44.6969 18.6657C45.4265 19.305 47.1079 21.0837 46.6216 22.1398L47.8861 22.7166C48.5045 21.3269 47.6499 19.8678 46.7953 18.8255L46.7466 18.77C48.5337 19.0096 50.2309 19.698 51.6799 20.771L52.5831 19.7149C50.6003 18.2416 48.2268 17.386 45.76 17.2552V17.1788C45.7292 15.6917 46.3064 14.2563 47.3581 13.2044L46.5034 12.0927C45.1506 13.3972 44.3963 15.2023 44.419 17.0815V17.158C43.5936 17.1612 42.7694 17.2216 41.9523 17.3386H41.9037L42.0774 17.0676C43.8978 14.0243 42.2997 9.23697 42.2372 9.03547L40.924 9.48016C41.1463 10.1865 41.3135 10.9089 41.4243 11.6411H41.3131C40.5418 11.6411 39.0341 11.5855 38.4782 10.4599L37.2345 11.0783C38.0752 12.7597 39.9373 13.0307 41.0699 13.0307H41.459H41.5285C41.6179 14.1858 41.3769 15.3425 40.8337 16.3659C40.281 17.2679 39.3474 17.8689 38.2976 17.9987H38.2628C36.9774 16.0949 35.7406 14.3439 35.011 13.3225V13.2322C35.3712 11.0506 35.9056 8.90134 36.6091 6.80509C36.6091 6.75645 38.0683 2.17062 40.9031 1.69119C41.0569 1.66444 41.2126 1.65049 41.3687 1.6495C43.1127 1.6495 45.1624 3.19896 47.3303 6.16586C53.3335 14.2397 65.5138 37.9124 60.3929 48.2722L60.3999 48.2721ZM28.6123 42.5122C28.6123 42.6234 27.4797 53.4835 12.3187 53.1569C7.7259 53.0597 4.61309 51.4199 3.05668 48.2932C-2.06417 37.9125 10.1161 14.2399 16.0568 6.11739C18.2316 3.15049 20.2744 1.60104 22.0184 1.60104C22.1745 1.60204 22.3302 1.61598 22.484 1.64273C25.3258 2.12216 26.7641 6.70799 26.778 6.75663C27.4815 8.85289 28.0159 11.0021 28.3761 13.1837V13.2741C27.6465 14.2955 26.4097 16.0534 25.1243 17.9502H25.0895C24.0397 17.8205 23.1061 17.2194 22.5534 16.3174C22.0102 15.2941 21.7692 14.1374 21.8586 12.9822H21.9976H22.3867C23.5262 12.9822 25.3883 12.7043 26.2221 11.0298L24.9784 10.4114C24.4156 11.537 22.8939 11.6273 22.1435 11.5926H22.0601C22.1709 10.8605 22.3381 10.138 22.5604 9.4317L21.2472 8.98702C21.1777 9.18852 19.5865 13.9758 21.407 17.0192L21.5807 17.2902H21.5321C20.715 17.1731 19.8908 17.1127 19.0654 17.1095V17.0331C19.0881 15.1539 18.3338 13.3487 16.981 12.0442L16.0985 13.1143C17.1502 14.1662 17.7274 15.6015 17.6966 17.0887V17.1651C15.2298 17.2959 12.8564 18.1515 10.8735 19.6248L11.7767 20.6809C13.2257 19.6079 14.9229 18.9194 16.71 18.6798L16.6613 18.7354C15.8067 19.7776 14.9521 21.2646 15.5705 22.6264L16.8351 22.0497C16.3487 20.9797 18.0232 19.2009 18.7597 18.5756L18.8361 18.5061C20.659 18.4974 22.4725 18.7668 24.2141 19.3052H24.2697C22.5604 21.8899 20.9415 24.5233 20.4481 25.899L20.3995 26.0449C20.2188 26.3576 20.0243 26.7398 19.8367 27.1358H19.7533C18.5859 27.0211 17.4073 27.1271 16.2792 27.4485V27.3998C14.6463 25.093 10.1439 26.4062 9.60887 26.573L10.0188 27.9001C11.0124 27.5944 13.7639 27.0455 14.8826 27.9557L14.9312 27.9974C13.7411 28.5996 12.7817 29.5761 12.2006 30.7767L13.4513 31.3742C14.7714 28.5949 17.7383 28.3934 19.2252 28.4629H19.2739C18.2913 31.2316 17.9747 34.1927 18.3498 37.1065C18.1622 37.2941 17.6549 37.8013 16.9601 38.5448C15.2439 40.1915 12.0963 42.5609 8.921 41.741L8.57359 43.082C10.5037 43.5192 12.5274 43.2219 14.2503 42.2482C13.1772 43.904 12.4996 45.7845 12.2701 47.7443L13.6597 47.8415C13.8751 44.7635 16.3695 41.3797 17.9815 39.5037C18.2038 39.2883 18.447 39.0659 18.6207 38.8853C18.8142 39.8626 19.0647 40.8278 19.3712 41.7757C19.7672 43.0542 20.5524 46.7646 19.4406 48.6197L20.6288 49.3146C22.2825 46.5353 20.7608 41.5534 20.6913 41.338C20.0406 39.3738 19.6756 37.3263 19.6074 35.2583V35.1957C20.5585 36.7511 21.9761 37.9669 23.6582 38.6699L24.1307 37.3636C23.9292 37.2872 19.2669 35.5362 20.1563 30.2833V30.2208C20.4961 28.9361 21.0006 27.7006 21.6571 26.5452L22.0949 26.0797C22.3658 27.4137 23.144 28.859 24.9645 29.1021L25.1382 27.7125C23.4359 27.5249 23.3872 25.364 23.3872 24.7456L29.0848 18.6937V18.8257C29.6568 26.7189 29.4986 34.6481 28.6123 42.5122ZM48.5119 5.29734C45.7743 1.55224 43.1548 -0.143128 40.7577 0.280712C37.1307 0.892162 35.484 5.98521 35.3728 6.34652C35.081 7.1942 34.817 8.07663 34.5738 8.98685L34.539 9.13276V1.98303H28.9457V9.11192L28.911 8.96601C28.6747 8.06274 28.4107 7.18031 28.1119 6.32568C28.0007 5.96437 26.354 0.878262 22.727 0.259872C20.3021 -0.150078 17.6826 1.54529 14.9381 5.29039C7.94813 14.872 -3.46782 38.2042 1.80589 48.9184C3.60548 52.5662 7.13519 54.477 12.2838 54.5742H12.9787C28.7789 54.5742 29.9879 42.7622 30.0018 42.6858C30.0922 41.991 31.6555 29.4216 30.3979 17.4359V17.3456L31.6416 16.0185H31.8501L33.0938 17.3456V17.4359C31.8084 29.3938 33.3717 41.9701 33.4621 42.665C33.4621 42.7553 34.685 54.5534 50.4853 54.5534H51.1801C56.3287 54.4422 59.8515 52.5384 61.658 48.8975C66.9178 38.2042 55.5019 14.872 48.512 5.29734H48.5119Z" fill="#1466CF"/>
</svg>
