<svg width="39" height="50" viewBox="0 0 39 50" fill="none" xmlns="http://www.w3.org/2000/svg">
<path fill-rule="evenodd" clip-rule="evenodd" d="M37.6056 9.01905C37.6056 -3.63498 23.1442 2.8728 19.5289 2.8728C15.9135 2.8728 1.45215 -3.4542 1.45215 9.01905C1.45215 13.8999 2.71752 18.2384 4.70597 22.0346C6.33287 25.1077 6.87517 28.7232 6.1521 31.977C5.42904 35.4117 3.07906 48.2465 6.87517 48.2465C12.2982 48.2465 12.2982 31.977 19.5289 31.977C26.7596 31.977 28.5673 48.2465 32.1826 48.2465C36.1595 48.2465 33.6287 35.4117 32.9057 31.977C32.1826 28.5424 32.7249 25.1077 34.3518 22.0346C36.3403 18.4192 37.6056 13.8999 37.6056 9.01905Z" stroke="#1466CF" stroke-width="2" stroke-linecap="round" stroke-linejoin="round"/>
</svg>
