<svg width="73" height="56" viewBox="0 0 73 56" fill="none" xmlns="http://www.w3.org/2000/svg">
<path fill-rule="evenodd" clip-rule="evenodd" d="M43.9414 13.077L43.4929 13.6116L41.6761 12.0871C41.6266 12.0467 41.5709 12.0145 41.5111 11.992L32.4542 4.39231C32.4217 4.33752 32.3806 4.2884 32.3323 4.24686L30.5263 2.73133L30.9757 2.19589C31.4429 1.6391 32.1467 1.33729 32.8721 1.38273C33.5975 1.42816 34.2582 1.81542 34.6523 2.42616V2.42623L35.8335 4.25682C37.0964 6.21943 38.9246 7.75301 41.077 8.65528L43.0756 9.49598C43.7456 9.77786 44.242 10.3613 44.4128 11.0679C44.5836 11.7745 44.4086 12.5202 43.9413 13.077H43.9414ZM30.3007 29.3092C30.1636 29.4728 29.9718 29.581 29.7609 29.6141L23.2956 30.6282C23.155 30.6502 23.0271 30.7224 22.9356 30.8314L16.6664 38.3028C16.423 38.5915 16.0465 38.7321 15.6734 38.6737H15.6734L14.3739 38.4671L22.3061 29.0138C22.3612 28.9929 22.4183 28.9775 22.4764 28.9679L28.9417 27.9538C29.0823 27.9318 29.2101 27.8596 29.3017 27.7506L41.3484 13.3938L42.7022 14.5298L30.3007 29.3092ZM4.55801 49.9814C4.42733 50.2402 4.19147 50.4302 3.91076 50.5028C3.82096 50.528 3.72463 50.5128 3.64699 50.4611L1.26604 48.4633C1.20175 48.3957 1.17004 48.3036 1.17915 48.2108C1.20187 47.9217 1.34803 47.6564 1.58027 47.4828L4.97731 44.829L6.58147 46.1752L4.55801 49.9814ZM10.8579 33.4287L17.1271 25.9575C17.2186 25.8485 17.2675 25.71 17.2648 25.5677L17.1408 19.0244C17.1368 18.8109 17.2101 18.6032 17.3473 18.4397L29.7488 3.6602L31.1026 4.79617L19.056 19.1528C18.9645 19.2619 18.9156 19.4003 18.9182 19.5427L19.0422 26.0858C19.0463 26.2992 18.9729 26.5069 18.8357 26.6704L11.1387 35.8434L10.6651 34.4708C10.543 34.1136 10.616 33.7185 10.8578 33.4286L10.8579 33.4287ZM36.3607 17.5052L27.9195 10.422L32.0047 5.55344L40.4459 12.6364L36.3607 17.5052ZM34.4677 19.7616L26.0265 12.6786L27.1625 11.3248L35.6037 18.4078L34.4677 19.7616ZM7.21416 45.1674L5.86035 44.0314L19.7699 27.4546L21.0344 28.5156L12.6687 38.4854C12.5875 38.5824 12.5397 38.7029 12.5325 38.8292L7.21416 45.1674ZM22.2937 27.8042C22.2201 27.8161 22.1473 27.8321 22.0755 27.8519L20.2102 26.2868C20.2173 26.2126 20.2204 26.1381 20.2194 26.0636L20.0996 19.7412L25.2686 13.5811L33.7097 20.6641L28.5407 26.8242L22.2937 27.8042ZM45.5577 10.7912C45.3038 9.71842 44.5503 8.83276 43.5321 8.41017L41.5336 7.56947C39.6001 6.7589 37.9577 5.38121 36.8232 3.61817L35.642 1.78757C35.0452 0.862464 34.0444 0.275844 32.9456 0.206994C31.8468 0.138144 30.7806 0.595274 30.0729 1.43865L29.2236 2.45079C29.2206 2.45423 29.2188 2.45833 29.216 2.46183L16.4445 17.6824C16.1242 18.064 15.953 18.5487 15.9625 19.0468L16.0823 25.3692L9.95509 32.6713C9.44825 33.2787 9.29505 34.1066 9.55095 34.8552L10.2709 36.9417L4.73151 43.5433C4.69498 43.5608 4.66035 43.582 4.6282 43.6067L0.855312 46.554C0.340972 46.9447 0.0278922 47.5446 0.00150219 48.19C-0.0188378 48.639 0.168262 49.0724 0.508982 49.3656L2.88992 51.3634C3.14837 51.5788 3.47517 51.6949 3.81159 51.691C3.92045 51.6908 4.02904 51.6801 4.13584 51.659C4.76681 51.5211 5.3032 51.1086 5.59856 50.5342L7.84594 46.3068C7.86461 46.2708 7.87949 46.233 7.89034 46.194L13.4908 39.5197L15.4884 39.8373C15.6041 39.8557 15.721 39.865 15.8381 39.8649C16.5054 39.8645 17.1386 39.5701 17.569 39.0603L23.6962 31.7581L29.9433 30.7782C30.4355 30.701 30.8831 30.4483 31.2033 30.0667L43.9008 14.9343C43.9355 14.9084 43.9671 14.8787 43.9953 14.8458L44.8437 13.8346C45.5563 12.9935 45.8219 11.8615 45.5577 10.7912H45.5577Z" fill="#1466CF"/>
<path fill-rule="evenodd" clip-rule="evenodd" d="M70.9414 17.077L70.4929 17.6116L68.6761 16.0871C68.6266 16.0467 68.5709 16.0145 68.5111 15.992L59.4542 8.39231C59.4217 8.33752 59.3806 8.2884 59.3323 8.24686L57.5263 6.73133L57.9757 6.19589C58.4429 5.6391 59.1467 5.33729 59.8721 5.38273C60.5975 5.42816 61.2582 5.81542 61.6523 6.42616V6.42623L62.8335 8.25682C64.0964 10.2194 65.9246 11.753 68.077 12.6553L70.0756 13.496C70.7456 13.7779 71.242 14.3613 71.4128 15.0679C71.5836 15.7745 71.4086 16.5202 70.9413 17.077H70.9414ZM57.3007 33.3092C57.1636 33.4728 56.9718 33.581 56.7609 33.6141L50.2956 34.6282C50.155 34.6502 50.0271 34.7224 49.9356 34.8314L43.6664 42.3028C43.423 42.5915 43.0465 42.7321 42.6734 42.6737H42.6734L41.3739 42.4671L49.3061 33.0138C49.3612 32.9929 49.4183 32.9775 49.4764 32.9679L55.9417 31.9538C56.0823 31.9318 56.2101 31.8596 56.3017 31.7506L68.3484 17.3938L69.7022 18.5298L57.3007 33.3092ZM31.558 53.9814C31.4273 54.2402 31.1915 54.4302 30.9108 54.5028C30.821 54.528 30.7246 54.5128 30.647 54.4611L28.266 52.4633C28.2017 52.3957 28.17 52.3036 28.1791 52.2108C28.2019 51.9217 28.348 51.6564 28.5803 51.4828L31.9773 48.829L33.5815 50.1752L31.558 53.9814ZM37.8579 37.4287L44.1271 29.9575C44.2186 29.8485 44.2675 29.71 44.2648 29.5677L44.1408 23.0244C44.1368 22.8109 44.2101 22.6032 44.3473 22.4397L56.7488 7.6602L58.1026 8.79617L46.056 23.1528C45.9645 23.2619 45.9156 23.4003 45.9182 23.5427L46.0422 30.0858C46.0463 30.2992 45.9729 30.5069 45.8357 30.6704L38.1387 39.8434L37.6651 38.4708C37.543 38.1136 37.616 37.7185 37.8578 37.4286L37.8579 37.4287ZM63.3607 21.5052L54.9195 14.422L59.0047 9.55344L67.4459 16.6364L63.3607 21.5052ZM61.4677 23.7616L53.0265 16.6786L54.1625 15.3248L62.6037 22.4078L61.4677 23.7616ZM34.2142 49.1674L32.8604 48.0314L46.7699 31.4546L48.0344 32.5156L39.6687 42.4854C39.5875 42.5824 39.5397 42.7029 39.5325 42.8292L34.2142 49.1674ZM49.2937 31.8042C49.2201 31.8161 49.1473 31.8321 49.0755 31.8519L47.2102 30.2868C47.2173 30.2126 47.2204 30.1381 47.2194 30.0636L47.0996 23.7412L52.2686 17.5811L60.7097 24.6641L55.5407 30.8242L49.2937 31.8042ZM72.5577 14.7912C72.3038 13.7184 71.5503 12.8328 70.5321 12.4102L68.5336 11.5695C66.6001 10.7589 64.9577 9.38121 63.8232 7.61817L62.642 5.78757C62.0452 4.86246 61.0444 4.27584 59.9456 4.20699C58.8468 4.13814 57.7806 4.59527 57.0729 5.43865L56.2236 6.45079C56.2206 6.45423 56.2188 6.45833 56.216 6.46183L43.4445 21.6824C43.1242 22.064 42.953 22.5487 42.9625 23.0468L43.0823 29.3692L36.9551 36.6713C36.4483 37.2787 36.2951 38.1066 36.551 38.8552L37.2709 40.9417L31.7315 47.5433C31.695 47.5608 31.6604 47.582 31.6282 47.6067L27.8553 50.554C27.341 50.9447 27.0279 51.5446 27.0015 52.19C26.9812 52.639 27.1683 53.0724 27.509 53.3656L29.8899 55.3634C30.1484 55.5788 30.4752 55.6949 30.8116 55.691C30.9205 55.6908 31.029 55.6801 31.1358 55.659C31.7668 55.5211 32.3032 55.1086 32.5986 54.5342L34.8459 50.3068C34.8646 50.2708 34.8795 50.233 34.8903 50.194L40.4908 43.5197L42.4884 43.8373C42.6041 43.8557 42.721 43.865 42.8381 43.8649C43.5054 43.8645 44.1386 43.5701 44.569 43.0603L50.6962 35.7581L56.9433 34.7782C57.4355 34.701 57.8831 34.4483 58.2033 34.0667L70.9008 18.9343C70.9355 18.9084 70.9671 18.8787 70.9953 18.8458L71.8437 17.8346C72.5563 16.9935 72.8219 15.8615 72.5577 14.7912H72.5577Z" fill="#1466CF"/>
</svg>
