<svg width="55" height="62" viewBox="0 0 55 62" fill="none" xmlns="http://www.w3.org/2000/svg">
<path fill-rule="evenodd" clip-rule="evenodd" d="M51.9493 30.3267C51.2732 30.6715 48.873 31.7466 47.3111 30.9285C46.7432 30.631 46.635 30.1103 46.5065 29.2922C46.3781 28.4741 46.2023 27.3247 44.9447 26.9326L44.539 28.2307C44.9312 28.3524 45.0258 28.6094 45.1611 29.5018C45.2963 30.3943 45.4721 31.5302 46.6756 32.132C47.3035 32.4499 48.0003 32.6079 48.704 32.5917C49.6811 32.5687 50.6458 32.3671 51.5504 31.9967L51.6789 31.9494C51.7668 44.5794 46.7161 46.9459 45.756 47.2839C44.9109 46.8174 42.5242 44.9648 44.0454 39.8466C44.0454 39.8466 44.681 37.7033 46.0738 37.0745L45.5194 35.8372C44.4203 36.4148 43.5589 37.36 43.0853 38.5079C39.0827 39.948 34.6879 36.4795 34.6473 36.4186L33.836 37.4058C34.005 37.541 37.2571 40.1576 41.0299 40.1576C41.5566 40.1574 42.082 40.1054 42.5985 40.0021C42.0727 41.746 42.0727 43.6063 42.5985 45.3502C40.8338 46.0264 38.1632 46.7025 37.0949 45.9655L36.3173 47.0744C36.9765 47.4856 37.7454 47.6861 38.5215 47.6491C40.1201 47.5649 41.6918 47.2035 43.1665 46.5808H43.2003C43.6797 47.3019 44.3093 47.9108 45.0461 48.3657C44.539 51.2866 43.3964 53.4232 41.6655 54.7146C40.2871 55.6894 38.618 56.1663 36.9326 56.0668L35.1882 53.2947L34.0118 53.9708L35.6412 56.797C35.2702 58.0166 34.3757 59.0078 33.2004 59.5016C30.861 60.3467 27.974 58.6361 27.9469 58.6226L27.8049 58.5414V58.4603C29.9753 50.9418 27.6562 48.4266 26.6555 47.2164C28.2512 45.3029 30.0835 41.5437 27.7441 38.1901C26.1539 35.9681 25.6728 33.1387 26.4392 30.5161C26.8043 29.9414 28.6298 26.7298 27.3316 21.5506C27.6765 21.6385 28.0889 21.7264 28.481 21.7805C30.1984 22.3146 32.2673 23.2477 32.8353 24.627C33.1734 25.4384 32.957 26.3579 32.1592 27.4329C30.7123 29.4613 30.9759 30.773 31.483 31.5302C32.1592 32.5985 33.5587 33.0245 34.9448 33.0245C35.3551 33.0252 35.7647 32.989 36.1686 32.9163C38.197 32.5512 39.6168 31.395 39.9211 29.9143L38.5688 29.6439C38.3389 30.7595 37.0408 31.3815 35.8981 31.5843C34.4445 31.848 33.0584 31.5235 32.6054 30.8068C32.1524 30.0901 32.8082 28.8596 33.2815 28.224C34.3363 26.7568 34.6338 25.3707 34.0861 24.1064C33.6011 23.0895 32.8023 22.2553 31.8076 21.7264C34.1395 21.3767 36.0849 19.7621 36.8582 17.5345L35.5871 17.0544C34.2349 20.6041 30.8542 20.7258 28.6704 20.4012C28.0741 20.2263 27.4693 20.0819 26.8583 19.9685C25.8509 16.7975 26.1011 14.8976 26.4797 13.8834L26.5608 13.7144C27.1164 12.9101 27.5705 12.0403 27.9131 11.1248C29.3396 12.5881 31.2794 13.4392 33.3221 13.498C35.2125 13.4391 37.0228 12.7216 38.4404 11.4696L37.5005 10.4892C37.3247 10.6583 32.9975 14.4175 28.2917 9.6238C28.7551 7.57509 28.6165 5.43613 27.8928 3.4643L27.832 3.30879L28.0213 3.19385C29.8536 2.03092 31.4019 1.67933 32.531 2.1391C34.0456 2.74085 34.5594 4.60019 34.5594 4.61372L34.7014 5.19519L35.2964 5.12758C39.9211 4.6002 41.9495 6.35136 44.2348 8.37974C44.6134 8.71104 44.9988 9.05586 45.3909 9.3804C46.568 10.2899 47.3674 11.6022 47.6357 13.0653C45.8913 12.5717 42.9907 12.2201 41.5505 14.4175L42.6864 15.1613C43.6939 13.6265 46.3848 14.093 47.7844 14.4851L48.0346 14.5866C49.7249 15.4588 50.6647 16.4729 50.827 17.6021C51.0704 19.2789 49.5423 20.7799 49.5288 20.7934L48.8527 21.4357L49.664 21.882C51.0574 22.5585 52.1077 23.7826 52.5646 25.2626C53.1664 27.3315 52.3415 29.4748 51.9493 30.3268L51.9493 30.3267ZM26.1217 58.3319V58.3928L25.9662 58.4604C24.2489 59.2041 22.7952 59.3123 21.6525 58.7782C20.765 58.2741 20.1044 57.4489 19.8067 56.4726L21.3618 54.0994L20.2259 53.3556L18.6641 55.7423L18.5288 55.9114C14.1273 56.3373 12.18 54.6267 9.93528 52.6457C9.55665 52.3144 9.17126 51.9696 8.77911 51.645C7.57651 50.7133 6.77193 49.3603 6.52761 47.8587H6.56818C7.39592 48.118 8.25665 48.2569 9.12393 48.2712C10.5012 48.3665 11.8268 47.7294 12.6127 46.5944L11.4769 45.8506C10.1246 47.879 6.33154 46.3983 5.47962 46.0332C4.20174 45.2489 3.45124 44.3564 3.3363 43.3895C3.09289 41.7127 4.62094 40.2118 4.63446 40.1982L5.31059 39.5559L4.49924 39.1097C3.10588 38.4332 2.05556 37.209 1.59866 35.729C1.01719 33.7007 1.8353 31.5506 2.22746 30.6919L2.32212 30.6378C3.54591 30.0496 5.91911 29.2856 6.73722 29.9617C7.87987 30.9691 9.44172 32.2199 10.5844 32.4431L10.8481 31.0908C10.6182 31.0435 9.69865 30.7528 7.6297 28.9272C6.34506 27.7981 4.04623 28.4404 2.65342 28.9948L2.49791 29.0624C2.39649 16.473 7.41334 14.0592 8.40724 13.7076L8.58303 13.8023C9.46876 14.3094 11.6256 16.1214 10.1314 21.1721C10.1314 21.1721 9.4958 23.3154 8.10298 23.9442L8.59655 25.2356C9.69448 24.6596 10.5558 23.717 11.0306 22.5716C15.04 21.118 19.4213 24.6 19.4619 24.6541L20.3138 23.6264C20.1245 23.4709 15.9596 20.1241 11.5715 21.0301C12.9238 15.8104 10.6182 13.5927 9.36733 12.7881L9.17125 12.6597C9.67834 9.7388 10.821 7.60901 12.5519 6.31761C14.0253 5.26243 15.8334 4.78158 17.6363 4.96536L18.1975 5.05325L18.3868 4.51911C18.9277 2.97078 19.7391 2.01745 20.8074 1.69967C22.971 1.02354 25.6079 3.05192 25.6349 3.05192C25.7507 3.15587 25.8529 3.274 25.9392 3.4035C27.4606 6.06153 27.4888 9.31987 26.0135 12.0038C25.8882 12.2321 25.7311 12.4416 25.547 12.6258C23.6564 12.0607 21.6494 12.0094 19.7323 12.4771V12.423C18.9345 11.0708 17.0278 10.638 15.8176 10.638V11.9903C15.8176 11.9903 17.6769 11.9903 18.4342 12.9301C17.2401 13.5066 16.2119 14.3766 15.4457 15.4588L16.5478 16.2566C19.1847 12.6191 23.424 13.3831 25.0331 13.8429V13.8767C24.6613 15.2289 24.5734 17.4263 25.6484 20.6379C27.5483 26.3309 25.3442 29.6304 25.2495 29.7589L25.1684 29.9144C24.2152 32.9721 24.7481 36.2997 26.6085 38.9068C28.8262 42.0914 26.2705 45.4991 25.4523 46.4456L25.378 46.5132C25.3239 46.5132 25.1008 46.4524 24.7492 46.3915C22.9912 46.0129 19.7391 44.9649 18.9953 43.1799C18.6573 42.3686 18.8736 41.4491 19.6715 40.374C21.1251 38.3456 20.8547 37.034 20.3476 36.2767C19.4686 34.8906 17.3591 34.5796 15.662 34.9244C13.6337 35.2896 12.2138 36.4457 11.9095 37.9264L13.2618 38.1969C13.4917 37.0813 14.7898 36.4592 15.9325 36.2564C17.3862 35.9927 18.7722 36.3173 19.2252 37.034C19.6782 37.7506 19.0224 38.9812 18.5491 39.6167C17.4943 41.0839 17.1969 42.47 17.7445 43.7343C18.324 44.8826 19.2781 45.7985 20.449 46.3307C18.2448 46.6349 15.9393 47.6356 14.9724 50.2928L16.2503 50.7525C17.6431 46.9121 23.2617 47.3719 24.8506 47.6694L25.3306 47.7641C25.3306 47.7641 28.5963 49.6843 26.1217 58.3319L26.1217 58.3319ZM53.8966 24.9109C53.4349 23.3612 52.4225 22.0338 51.0501 21.1787C51.9004 20.1407 52.3084 18.8098 52.186 17.4736C51.9696 15.9793 50.9149 14.6947 49.042 13.6399C48.9299 11.5497 47.9129 9.61204 46.2564 8.33236C45.871 8.01458 45.4991 7.65624 45.1272 7.35874C42.8757 5.37769 40.5499 3.30199 35.6615 3.74823C35.2172 2.48759 34.2837 1.4591 33.0719 0.894981C31.5304 0.272941 29.6913 0.624531 27.5209 1.93621L26.3107 1.82803C25.6345 1.34798 22.93 -0.362619 20.4351 0.387881C19.0829 0.800321 18.0078 1.86859 17.3047 3.56567C15.3322 3.46985 13.3854 4.04413 11.7807 5.19513C9.70503 6.71641 8.40011 9.17751 7.81188 12.5176C6.15537 13.1328 0.827511 16.1754 1.11824 29.8061C0.746371 30.5228 -0.538269 33.2949 0.252801 36.1008C0.707101 37.663 1.72029 39.0035 3.09929 39.8668C2.249 40.9049 1.84101 42.2357 1.9634 43.572C2.17976 45.0662 3.23452 46.3509 5.10738 47.4056C5.22558 49.4851 6.23922 51.4113 7.88626 52.6862C8.27165 53.004 8.64352 53.3623 9.01539 53.6598C11.2669 55.6476 13.5995 57.7165 18.4811 57.2703C18.9915 58.4445 19.8986 59.4019 21.0437 59.9748C22.5176 60.6509 24.3026 60.5968 26.3377 59.7449L27.379 59.8193C28.7219 60.5779 30.2259 61.0066 31.767 61.0701C34.0733 61.1132 36.1358 59.6412 36.8447 57.4461C38.8173 57.543 40.7645 56.9686 42.3686 55.8166C44.4443 54.2953 45.7493 51.8343 46.3375 48.4942C47.994 47.8789 53.3219 44.8364 53.0311 31.2057C53.403 30.489 54.6809 27.7169 53.8966 24.9109H53.8966Z" fill="#1466CF"/>
</svg>
