<svg width="63" height="43" viewBox="0 0 63 43" fill="none" xmlns="http://www.w3.org/2000/svg">
<path fill-rule="evenodd" clip-rule="evenodd" d="M61.7032 41.2289H49.2126V38.2891C49.2126 37.0511 48.5737 35.9005 47.5226 35.246C46.4714 34.5915 45.1571 34.5258 44.0459 35.0721L44.0054 35.0923C43.9154 35.1369 43.8304 35.1792 43.7504 35.2121L37.5388 37.7687C36.2775 38.2846 35.4546 39.5132 35.4577 40.8759V41.2289H34.0274V33.0785C34.0274 31.8086 32.998 30.7792 31.7281 30.7792C30.4583 30.7792 29.4289 31.8086 29.4289 33.0785V41.2289H27.7139V40.876C27.7169 39.5132 26.8939 38.2846 25.6326 37.7688L19.4213 35.2122C19.3416 35.1793 19.2566 35.1371 19.1665 35.0924L19.1257 35.0722C18.0145 34.5258 16.7001 34.5915 15.649 35.246C14.5979 35.9004 13.9589 37.051 13.9588 38.2891L13.9588 41.2289H1.75288V1.4963H61.7034L61.7032 41.2289ZM47.9159 41.2289H36.7543V40.8759C36.7525 40.0391 37.2578 39.2845 38.0324 38.9676L44.244 36.411C44.3661 36.3607 44.476 36.3062 44.5821 36.2535L44.6211 36.2341C44.9336 36.0788 45.2777 35.9979 45.6267 35.9977C46.8904 36.001 47.9138 37.0252 47.9161 38.289L47.9159 41.2289ZM30.7254 41.2289V33.0785C30.7254 32.5247 31.1743 32.0758 31.728 32.0758C32.2818 32.0758 32.7307 32.5247 32.7307 33.0785V41.2289H30.7254ZM26.4173 41.2289H15.2554V38.2891C15.2554 37.4995 15.6626 36.7656 16.3327 36.3476C17.003 35.9296 17.8413 35.8868 18.5505 36.2342L18.5898 36.2536C18.6958 36.3062 18.8053 36.3607 18.9275 36.411L25.1391 38.9676C25.9137 39.2844 26.4192 40.039 26.4173 40.8759L26.4173 41.2289ZM62.3516 0.199707H1.10458C0.746539 0.199707 0.456299 0.489957 0.456299 0.848007V41.8772C0.456299 42.2352 0.746549 42.5255 1.10458 42.5255H14.605L27.0635 42.5669H27.0657C27.1415 42.5662 27.2167 42.5522 27.2877 42.5255L35.8839 42.5255C35.9549 42.5522 36.03 42.5662 36.1059 42.5669H36.1081L48.5665 42.5255H62.3516C62.7097 42.5255 62.9999 42.2352 62.9999 41.8772V0.848007C62.9999 0.489957 62.7097 0.199707 62.3516 0.199707Z" fill="#1466CF"/>
<path fill-rule="evenodd" clip-rule="evenodd" d="M30.7255 6.22671C30.7255 5.67297 31.1744 5.22402 31.7282 5.22402C32.2819 5.22402 32.7308 5.67296 32.7308 6.22671V27.1507C32.7308 27.7044 32.282 28.1534 31.7282 28.1534C31.1744 28.1534 30.7255 27.7045 30.7255 27.1507V6.22671ZM31.7282 29.45C32.9974 29.4485 34.026 28.42 34.0274 27.1508V6.22671C34.0274 4.95687 32.998 3.92749 31.7282 3.92749C30.4583 3.92749 29.429 4.95688 29.429 6.22671V27.1507C29.4304 28.42 30.4589 29.4486 31.7282 29.45Z" fill="#1466CF"/>
<path fill-rule="evenodd" clip-rule="evenodd" d="M15.8722 21.1843L15.8811 21.1607C16.0126 20.7972 16.4099 20.6049 16.7766 20.7272C19.6857 21.691 22.7013 22.2972 25.7569 22.5325C26.1398 22.5609 26.4313 22.8879 26.4158 23.2716L26.4141 23.306C26.4068 23.5009 26.3198 23.6842 26.1736 23.8133C26.0264 23.9448 25.8317 24.0101 25.635 23.994C22.4671 23.7493 19.3407 23.1208 16.3243 22.1224C16.1376 22.0612 15.9838 21.9266 15.8985 21.7496C15.8132 21.5725 15.8037 21.3684 15.8723 21.1842L15.8722 21.1843ZM15.9165 23.3533C19.0327 24.3848 22.2626 25.034 25.5353 25.2868C25.5888 25.291 25.6423 25.293 25.6953 25.293C26.7736 25.2918 27.6605 24.4433 27.7095 23.3661L27.7111 23.3317C27.7607 22.2474 26.9388 21.3203 25.8563 21.2397C22.9058 21.0125 19.9938 20.4271 17.1847 19.4965C16.158 19.1523 15.0436 19.6862 14.6684 20.7019L14.6559 20.7352C14.4656 21.2491 14.4924 21.8183 14.7301 22.312C14.9679 22.8057 15.3961 23.1816 15.9166 23.3532L15.9165 23.3533Z" fill="#1466CF"/>
<path fill-rule="evenodd" clip-rule="evenodd" d="M15.8713 27.2406C15.8718 27.2392 15.8805 27.2159 15.881 27.2145C16.0126 26.8511 16.4099 26.6588 16.7765 26.7812C19.6856 27.7449 22.7012 28.3511 25.7568 28.5864C26.1397 28.6149 26.4312 28.9417 26.4157 29.3254L26.4141 29.3598C26.4067 29.5547 26.3198 29.7381 26.1735 29.8671C26.0263 29.9986 25.8316 30.064 25.6349 30.048C22.467 29.8032 19.3405 29.1747 16.3242 28.1763C16.1365 28.1151 15.9822 27.9795 15.8973 27.8013C15.8122 27.6259 15.8029 27.4232 15.8714 27.2407L15.8713 27.2406ZM15.9164 29.4072C19.0326 30.4387 22.2625 31.0879 25.5352 31.3407C25.5887 31.3449 25.6419 31.3469 25.695 31.3469C26.7735 31.3458 27.6606 30.4971 27.7094 29.4198L27.711 29.3856C27.7605 28.3013 26.9386 27.3743 25.8562 27.2935C22.9057 27.0664 19.9937 26.481 17.1846 25.5504C16.1579 25.2063 15.0436 25.7401 14.6684 26.7559L14.6559 26.7891C14.4656 27.303 14.4924 27.8722 14.7301 28.3659C14.9679 28.8597 15.3961 29.2356 15.9165 29.4072H15.9164Z" fill="#1466CF"/>
<path fill-rule="evenodd" clip-rule="evenodd" d="M15.8811 15.085C16.0132 14.722 16.41 14.53 16.7766 14.6516C19.6857 15.6153 22.7013 16.2215 25.7569 16.4568C26.1398 16.4853 26.4313 16.8122 26.4158 17.1959L26.4141 17.2304C26.4056 17.4263 26.3178 17.6103 26.1708 17.74C26.0239 17.8698 25.8304 17.9343 25.635 17.9184C22.4671 17.6737 19.3406 17.0452 16.3242 16.0468C16.1368 15.9854 15.9826 15.8501 15.8975 15.6722C15.8124 15.4943 15.8038 15.2893 15.8737 15.1049L15.8811 15.085ZM15.9165 17.2777C19.0327 18.3091 22.2626 18.9584 25.5353 19.2112C25.5888 19.2153 25.6421 19.2174 25.6952 19.2174C26.7736 19.2163 27.6607 18.3676 27.7095 17.2902L27.7111 17.256C27.7607 16.1717 26.9387 15.2447 25.8563 15.164C22.9057 14.9368 19.9938 14.3515 17.1847 13.4208C16.1579 13.0766 15.0435 13.6104 14.6684 14.6262L14.6559 14.6596C14.4656 15.1735 14.4924 15.7426 14.7301 16.2364C14.9679 16.7301 15.3961 17.106 15.9165 17.2776L15.9165 17.2777Z" fill="#1466CF"/>
<path fill-rule="evenodd" clip-rule="evenodd" d="M15.8714 9.03541C15.8719 9.03407 15.8806 9.01072 15.8811 9.00939C16.0128 8.64602 16.4101 8.45377 16.7768 8.57595H16.7766L25.7569 10.3812C26.1399 10.4097 26.4313 10.7366 26.4158 11.1204L26.4142 11.1547C26.4068 11.3496 26.3199 11.533 26.1736 11.662C26.0264 11.7935 25.8317 11.8588 25.635 11.8428C22.4671 11.5981 19.3406 10.9696 16.3242 9.97115C16.1366 9.90993 15.9823 9.77439 15.8974 9.5962C15.8123 9.42071 15.8029 9.21798 15.8715 9.03538L15.8714 9.03541ZM15.9165 11.2021C19.0327 12.2335 22.2626 12.8828 25.5353 13.1357C25.5888 13.1397 25.6421 13.1418 25.6951 13.1418C26.7735 13.1406 27.6605 12.292 27.7095 11.2148L27.7111 11.1804C27.7607 10.0961 26.9388 9.16905 25.8563 9.08836C22.9057 8.86123 19.9938 8.27584 17.1846 7.34512H17.1845C16.1578 7.00088 15.0434 7.53488 14.6684 8.55076L14.6559 8.5841C14.4656 9.09797 14.4924 9.66715 14.7301 10.1609C14.9679 10.6547 15.3961 11.0305 15.9165 11.2022L15.9165 11.2021Z" fill="#1466CF"/>
<path fill-rule="evenodd" clip-rule="evenodd" d="M37.0408 23.2783C37.0223 22.8924 37.3141 22.5618 37.6994 22.5325C40.7549 22.2972 43.7705 21.691 46.6797 20.7273C47.0492 20.6058 47.4481 20.8015 47.5781 21.1681L47.5849 21.1867C47.6534 21.3692 47.644 21.5719 47.559 21.7474C47.4741 21.9256 47.3197 22.0611 47.1321 22.1224C44.1157 23.1208 40.9892 23.7493 37.8213 23.994C37.6259 24.0098 37.4324 23.9455 37.2854 23.8157C37.1384 23.6858 37.0506 23.5018 37.0421 23.3059H37.0422L37.0408 23.2783ZM36.4217 24.7826C36.7899 25.1121 37.2669 25.2938 37.761 25.293C37.814 25.293 37.8675 25.2909 37.921 25.2868C41.1937 25.034 44.4236 24.3848 47.5398 23.3533C48.0598 23.1818 48.4878 22.8064 48.7256 22.3132C48.9635 21.82 48.9908 21.2513 48.8012 20.7376L48.7907 20.7094C48.4177 19.69 47.3012 19.1524 46.2717 19.4965C43.4626 20.4271 40.5506 21.0125 37.6001 21.2398C36.5176 21.3203 35.6957 22.2474 35.7453 23.3317L35.7465 23.3593C35.7672 23.9062 36.0112 24.4206 36.4217 24.7827L36.4217 24.7826Z" fill="#1466CF"/>
<path fill-rule="evenodd" clip-rule="evenodd" d="M37.0408 29.3323C37.0223 28.9464 37.3142 28.6158 37.6994 28.5864C40.7549 28.3511 43.7706 27.7449 46.6797 26.7812C47.0463 26.6594 47.4432 26.8515 47.5752 27.2145C47.5762 27.2171 47.5839 27.2381 47.5849 27.2406C47.6534 27.4231 47.6441 27.6259 47.559 27.8013C47.4741 27.9795 47.3198 28.1151 47.1321 28.1763L37.8214 30.0479C37.6246 30.0639 37.43 29.9986 37.2828 29.8671C37.1365 29.7381 37.0496 29.5547 37.0422 29.3598L37.0408 29.3323ZM36.4215 30.8366C36.7898 31.1661 37.2669 31.3479 37.7611 31.347C37.8141 31.347 37.8674 31.3449 37.921 31.3408C41.1937 31.088 44.4235 30.4387 47.5397 29.4073C48.0594 29.2359 48.4873 28.8608 48.7252 28.368C48.9631 27.8752 48.9908 27.307 48.8018 26.7933L48.7907 26.7633C48.4177 25.7439 47.3012 25.2063 46.2717 25.5505C43.4626 26.4811 40.5507 27.0665 37.6001 27.2937C36.5176 27.3744 35.6957 28.3014 35.7453 29.3857L35.7466 29.4133C35.7673 29.9601 36.0112 30.4745 36.4215 30.8366V30.8366Z" fill="#1466CF"/>
<path fill-rule="evenodd" clip-rule="evenodd" d="M37.0408 17.2029C37.0223 16.817 37.3142 16.4864 37.6994 16.457C40.755 16.2217 43.7706 15.6155 46.6797 14.6518C47.0463 14.5299 47.4433 14.722 47.5752 15.0852C47.5762 15.0877 47.5839 15.1087 47.5849 15.1112C47.6535 15.2938 47.6441 15.4965 47.559 15.6719C47.4741 15.8501 47.3198 15.9857 47.1322 16.0469C44.1157 17.0454 40.9893 17.6739 37.8213 17.9187C37.6259 17.9345 37.4324 17.8701 37.2855 17.7403C37.1385 17.6105 37.0507 17.4265 37.0422 17.2306V17.2306L37.0408 17.2029ZM36.4215 18.7071C36.7898 19.0367 37.2669 19.2185 37.7611 19.2176C37.8142 19.2176 37.8674 19.2155 37.921 19.2114C41.1937 18.9586 44.4236 18.3094 47.5398 17.2779C48.0603 17.1062 48.4886 16.7301 48.7263 16.2362C48.964 15.7423 48.9907 15.1729 48.8001 14.6589L48.7907 14.6339C48.4177 13.6145 47.3012 13.0769 46.2717 13.4211C43.4625 14.3517 40.5506 14.937 37.6001 15.1641C36.5176 15.2448 35.6957 16.1718 35.7453 17.2561L35.7466 17.2837C35.7672 17.8306 36.0112 18.3451 36.4215 18.7072L36.4215 18.7071Z" fill="#1466CF"/>
<path fill-rule="evenodd" clip-rule="evenodd" d="M37.0408 11.1272C37.0223 10.7412 37.3142 10.4106 37.6994 10.3812C40.7549 10.146 43.7704 9.53976 46.6795 8.57592C47.0461 8.45443 47.4429 8.64645 47.5751 9.00936C47.5761 9.01189 47.5839 9.03295 47.5849 9.03542C47.6534 9.21798 47.644 9.42069 47.5589 9.59617C47.474 9.77435 47.3197 9.90988 47.1321 9.97112C44.1157 10.9696 40.9893 11.598 37.8213 11.8428C37.6246 11.8588 37.4299 11.7934 37.2827 11.662C37.1365 11.5329 37.0495 11.3496 37.0421 11.1547L37.0408 11.1272ZM36.4217 12.6314C36.7899 12.9609 37.267 13.1427 37.7611 13.1418C37.8142 13.1418 37.8674 13.1398 37.921 13.1357C41.1937 12.8828 44.4236 12.2335 47.5398 11.2022C48.0594 11.0307 48.4873 10.6556 48.7252 10.1628C48.9631 9.67004 48.9908 9.10174 48.8018 8.58816L48.7907 8.55816C48.4176 7.5389 47.3013 7.0014 46.2718 7.34524H46.2717C43.4626 8.27595 40.5507 8.86134 37.6001 9.08847C36.5176 9.16916 35.6957 10.0962 35.7453 11.1805L35.7466 11.2081C35.7672 11.7549 36.0113 12.2694 36.4217 12.6314L36.4217 12.6314Z" fill="#1466CF"/>
<path fill-rule="evenodd" clip-rule="evenodd" d="M57.9785 6.10327V10.858H59.2746V6.10327C59.2732 4.90057 58.2992 3.92599 57.0971 3.92466L52.2993 3.92468V5.22156H57.0972C57.5837 5.22208 57.9779 5.6165 57.9785 6.10327Z" fill="#1466CF"/>
<path fill-rule="evenodd" clip-rule="evenodd" d="M5.48373 6.1026C5.48433 5.61599 5.8785 5.2217 6.36487 5.22115H10.8408V3.92466H6.36484C5.16311 3.92605 4.18926 4.90032 4.18785 6.10259V10.9636H5.48373V6.1026Z" fill="#1466CF"/>
<path fill-rule="evenodd" clip-rule="evenodd" d="M6.36334 38.7957H11.111V37.4988H6.36334C5.87731 37.4983 5.48341 37.1039 5.48283 36.6171V31.8624H4.18782V36.6171C4.18924 37.8197 5.16244 38.7943 6.36334 38.7957Z" fill="#1466CF"/>
<path fill-rule="evenodd" clip-rule="evenodd" d="M57.9786 36.6171C57.978 37.1038 57.5838 37.4982 57.0973 37.4988H52.5188V38.7957H57.0974C58.2994 38.7943 59.2735 37.8197 59.2748 36.6171V31.8624H57.9786L57.9786 36.6171Z" fill="#1466CF"/>
</svg>
