<svg width="73" height="52" viewBox="0 0 73 52" fill="none" xmlns="http://www.w3.org/2000/svg">
<path fill-rule="evenodd" clip-rule="evenodd" d="M43.9411 9.07715L43.4926 9.61176L41.6758 8.08725C41.6263 8.04678 41.5706 8.01466 41.5108 7.99215L32.4539 0.392425C32.4214 0.337635 32.3803 0.288514 32.332 0.246974L30.526 -1.26856L30.9754 -1.804C31.4426 -2.36079 32.1464 -2.6626 32.8718 -2.61716C33.5972 -2.57173 34.2579 -2.18447 34.652 -1.57373V-1.57366L35.8332 0.256934C37.0961 2.21954 38.9243 3.75312 41.0767 4.65539L43.0753 5.49609C43.7453 5.77798 44.2417 6.36139 44.4125 7.06798C44.5833 7.77457 44.4083 8.52029 43.941 9.07715H43.9411ZM30.3007 25.3092C30.1636 25.4728 29.9718 25.581 29.7609 25.6141L23.2956 26.6282C23.155 26.6502 23.0271 26.7224 22.9356 26.8314L16.6664 34.3028C16.423 34.5915 16.0465 34.7321 15.6734 34.6737H15.6734L14.3739 34.4671L22.3061 25.0138C22.3612 24.9929 22.4183 24.9775 22.4764 24.9679L28.9417 23.9538C29.0823 23.9318 29.2101 23.8596 29.3017 23.7506L41.3484 9.39381L42.7022 10.5298L30.3007 25.3092ZM4.55829 45.9813C4.42761 46.2402 4.19175 46.4302 3.91104 46.5027C3.82124 46.5279 3.72491 46.5127 3.64727 46.4611L1.26632 44.4632C1.20203 44.3956 1.17032 44.3035 1.17943 44.2107C1.20215 43.9216 1.34831 43.6563 1.58055 43.4827L4.97759 40.829L6.58175 42.1751L4.55829 45.9813ZM10.8576 29.4288L17.1267 21.9576C17.2182 21.8486 17.2671 21.7101 17.2644 21.5678L17.1404 15.0245C17.1364 14.811 17.2097 14.6033 17.347 14.4398L29.7485 -0.339716L31.1023 0.796255L19.0556 15.1529C18.9641 15.262 18.9152 15.4004 18.9178 15.5428L19.0418 22.0859C19.0459 22.2993 18.9725 22.507 18.8353 22.6705L11.1383 31.8435L10.6647 30.4709C10.5426 30.1137 10.6156 29.7186 10.8575 29.4287L10.8576 29.4288ZM36.3607 13.5052L27.9195 6.42199L32.0047 1.55344L40.4459 8.63643L36.3607 13.5052ZM34.4674 15.7615L26.0262 8.67853L27.1622 7.32469L35.6034 14.4077L34.4674 15.7615ZM7.21378 41.1675L5.85997 40.0315L19.7695 23.4547L21.034 24.5156L12.6683 34.4854C12.5871 34.5824 12.5394 34.703 12.5321 34.8293L7.21378 41.1675ZM22.294 23.8041C22.2205 23.816 22.1477 23.832 22.0759 23.8518L20.2106 22.2867C20.2177 22.2125 20.2207 22.138 20.2198 22.0636L20.1 15.7412L25.2689 9.58097L33.7101 16.664L28.5411 22.8242L22.294 23.8041ZM45.5577 6.7912C45.3038 5.71842 44.5503 4.83276 43.5321 4.41017L41.5336 3.56947C39.6001 2.7589 37.9577 1.38121 36.8232 -0.381826L35.642 -2.21243C35.0452 -3.13754 34.0444 -3.72416 32.9456 -3.79301C31.8468 -3.86186 30.7806 -3.40473 30.0729 -2.56135L29.2236 -1.54921C29.2206 -1.54577 29.2188 -1.54167 29.216 -1.53817L16.4445 13.6824C16.1242 14.064 15.953 14.5487 15.9625 15.0468L16.0823 21.3692L9.95509 28.6713C9.44825 29.2787 9.29505 30.1066 9.55095 30.8552L10.2709 32.9417L4.73151 39.5433C4.69498 39.5608 4.66035 39.582 4.6282 39.6067L0.855312 42.554C0.340972 42.9447 0.0278922 43.5446 0.00150219 44.19C-0.0188378 44.639 0.168262 45.0724 0.508982 45.3656L2.88992 47.3634C3.14837 47.5788 3.47517 47.6949 3.81159 47.691C3.92045 47.6908 4.02904 47.6801 4.13584 47.659C4.76681 47.5211 5.3032 47.1086 5.59856 46.5342L7.84594 42.3068C7.86461 42.2708 7.87949 42.233 7.89034 42.194L13.4908 35.5197L15.4884 35.8373C15.6041 35.8557 15.721 35.865 15.8381 35.8649C16.5054 35.8645 17.1386 35.5701 17.569 35.0603L23.6962 27.7581L29.9433 26.7782C30.4355 26.701 30.8831 26.4483 31.2033 26.0667L43.9008 10.9343C43.9355 10.9084 43.9671 10.8787 43.9953 10.8458L44.8437 9.83455C45.5563 8.99349 45.8219 7.86145 45.5577 6.7912H45.5577Z" fill="#1466CF"/>
<path fill-rule="evenodd" clip-rule="evenodd" d="M70.9411 13.0772L70.4926 13.6118L68.6758 12.0873C68.6263 12.0468 68.5706 12.0147 68.5108 11.9922L59.4539 4.39242C59.4214 4.33763 59.3803 4.28851 59.332 4.24697L57.526 2.73144L57.9754 2.196C58.4426 1.63921 59.1464 1.3374 59.8718 1.38284C60.5972 1.42827 61.2579 1.81553 61.652 2.42627V2.42634L62.8332 4.25693C64.0961 6.21954 65.9243 7.75312 68.0767 8.65539L70.0753 9.49609C70.7453 9.77798 71.2417 10.3614 71.4125 11.068C71.5833 11.7746 71.4083 12.5203 70.941 13.0772H70.9411ZM57.3007 29.3092C57.1636 29.4728 56.9718 29.581 56.7609 29.6141L50.2956 30.6282C50.155 30.6502 50.0271 30.7224 49.9356 30.8314L43.6664 38.3028C43.423 38.5915 43.0465 38.7321 42.6734 38.6737H42.6734L41.3739 38.4671L49.3061 29.0138C49.3612 28.9929 49.4183 28.9775 49.4764 28.9679L55.9417 27.9538C56.0823 27.9318 56.2101 27.8596 56.3017 27.7506L68.3484 13.3938L69.7022 14.5298L57.3007 29.3092ZM31.5583 49.9813C31.4276 50.2402 31.1918 50.4302 30.911 50.5027C30.8212 50.5279 30.7249 50.5127 30.6473 50.4611L28.2663 48.4632C28.202 48.3956 28.1703 48.3035 28.1794 48.2107C28.2022 47.9216 28.3483 47.6563 28.5806 47.4827L31.9776 44.829L33.5818 46.1751L31.5583 49.9813ZM37.8576 33.4288L44.1267 25.9576C44.2182 25.8486 44.2671 25.7101 44.2644 25.5678L44.1404 19.0245C44.1364 18.811 44.2097 18.6033 44.347 18.4398L56.7485 3.66028L58.1023 4.79625L46.0556 19.1529C45.9641 19.262 45.9152 19.4004 45.9178 19.5428L46.0418 26.0859C46.0459 26.2993 45.9725 26.507 45.8353 26.6705L38.1383 35.8435L37.6647 34.4709C37.5426 34.1137 37.6156 33.7186 37.8575 33.4287L37.8576 33.4288ZM63.3607 17.5052L54.9195 10.422L59.0047 5.55344L67.4459 12.6364L63.3607 17.5052ZM61.4674 19.7615L53.0262 12.6785L54.1622 11.3247L62.6034 18.4077L61.4674 19.7615ZM34.2138 45.1675L32.86 44.0315L46.7695 27.4547L48.034 28.5156L39.6683 38.4854C39.5871 38.5824 39.5394 38.703 39.5321 38.8293L34.2138 45.1675ZM49.294 27.8041C49.2205 27.816 49.1477 27.832 49.0759 27.8518L47.2106 26.2867C47.2177 26.2125 47.2207 26.138 47.2198 26.0636L47.1 19.7412L52.2689 13.581L60.7101 20.664L55.5411 26.8242L49.294 27.8041ZM72.5577 10.7912C72.3038 9.71842 71.5503 8.83276 70.5321 8.41017L68.5336 7.56947C66.6001 6.7589 64.9577 5.38121 63.8232 3.61817L62.642 1.78757C62.0452 0.862464 61.0444 0.275844 59.9456 0.206994C58.8468 0.138144 57.7806 0.595274 57.0729 1.43865L56.2236 2.45079C56.2206 2.45423 56.2188 2.45833 56.216 2.46183L43.4445 17.6824C43.1242 18.064 42.953 18.5487 42.9625 19.0468L43.0823 25.3692L36.9551 32.6713C36.4483 33.2787 36.2951 34.1066 36.551 34.8552L37.2709 36.9417L31.7315 43.5433C31.695 43.5608 31.6604 43.582 31.6282 43.6067L27.8553 46.554C27.341 46.9447 27.0279 47.5446 27.0015 48.19C26.9812 48.639 27.1683 49.0724 27.509 49.3656L29.8899 51.3634C30.1484 51.5788 30.4752 51.6949 30.8116 51.691C30.9205 51.6908 31.029 51.6801 31.1358 51.659C31.7668 51.5211 32.3032 51.1086 32.5986 50.5342L34.8459 46.3068C34.8646 46.2708 34.8795 46.233 34.8903 46.194L40.4908 39.5197L42.4884 39.8373C42.6041 39.8557 42.721 39.865 42.8381 39.8649C43.5054 39.8645 44.1386 39.5701 44.569 39.0603L50.6962 31.7581L56.9433 30.7782C57.4355 30.701 57.8831 30.4483 58.2033 30.0667L70.9008 14.9343C70.9355 14.9084 70.9671 14.8787 70.9953 14.8458L71.8437 13.8346C72.5563 12.9935 72.8219 11.8615 72.5577 10.7912H72.5577Z" fill="#1466CF"/>
</svg>
