<svg width="46" height="67" viewBox="0 0 46 67" fill="none" xmlns="http://www.w3.org/2000/svg">
<path fill-rule="evenodd" clip-rule="evenodd" d="M20.4034 21.4352C21.2741 21.8705 22.1005 22.4903 22.2038 23.265C22.1905 24.0008 21.8726 24.6982 21.3257 25.1908C20.7743 23.9987 20.461 22.7104 20.4034 21.3983V21.4352ZM43.2318 54.638C42.4939 58.6814 41.3282 63.0125 37.7792 64.5398C33.4407 66.4065 25.9737 63.802 15.5702 56.9032C9.43137 52.8082 5.28471 48.5213 3.17449 44.0869C3.75739 42.0431 6.29555 34.9524 14.1093 32.3479L14.9209 32.0749L14.5298 31.337C14.4856 31.2559 10.3094 22.9404 12.6557 16.4917C13.7088 13.7123 15.908 11.5211 18.6913 10.4783C19.038 10.3086 26.9698 6.59727 31.4706 12.5074C29.5967 13.2239 27.7769 14.0746 26.0254 15.0529C24.6014 14.4626 21.982 14.3667 19.9899 17.4214C17.3558 21.4574 20.3293 26.5042 20.4547 26.7182L20.8679 27.4117L21.5172 26.9321C21.6131 26.8583 23.9078 25.1539 23.6422 23.0363C23.4798 21.7377 22.4321 20.6605 20.5359 19.8341C20.669 19.262 20.9012 18.7176 21.2221 18.2256C23.17 15.2743 25.4499 16.3958 25.7008 16.536L26.1139 16.7721L26.4976 16.4991C26.4976 16.4991 29.4047 14.4922 40.5903 10.7661L41.8963 17.0156L33.3743 19.7603C31.1205 20.5556 29.2531 22.1777 28.1504 24.2981C26.4017 27.9873 28.0692 31.7797 28.1504 31.9421L28.5931 32.9382L29.3309 32.1487C32.9168 28.4595 39.5942 29.8466 41.3282 30.2967L41.3724 30.3631C44.1467 38.5015 44.2279 48.8976 43.2318 54.638L43.2318 54.638ZM1.53676 37.3504C1.4187 29.3818 7.7051 23.0732 10.4646 20.7343C10.5486 24.3575 11.3643 27.9264 12.8626 31.2264C7.98314 33.1469 4.15171 37.0535 2.32625 41.9693C1.83123 40.4784 1.56504 38.9211 1.53676 37.3504V37.3504ZM40.7158 28.5554L40.76 28.6439C38.1628 28.1053 32.843 27.456 29.1612 30.3483C28.6344 28.563 28.7493 26.6495 29.4859 24.94C30.386 23.0732 32.2601 21.6418 34.9606 20.749L35.0196 20.8007C37.5209 22.5125 39.3729 25.2867 40.7158 28.5554H40.7158ZM36.7536 20.2325L43.6524 18.019L41.7487 8.83292L32.8135 11.7843C29.6039 7.35724 24.7784 7.35725 21.5319 8.00655C21.4065 6.79649 21.4434 3.33603 25.5827 1.55783L24.9924 0.200195C21.6697 1.43689 19.6368 4.79958 20.0858 8.31643V8.36807C19.4023 8.5653 18.734 8.81191 18.0862 9.10592L17.6583 9.29776V9.26087C16.799 6.64426 16.6062 3.85456 17.0975 1.14464L15.6219 0.834735C15.0482 3.89354 15.2796 7.04892 16.2933 9.99132C15.9194 10.2127 15.5604 10.4586 15.2161 10.7292V10.6849L9.53469 2.73837L8.33939 3.60164L11.1358 7.49005C9.10121 6.3787 6.69718 6.15966 4.49525 6.88502L4.96009 8.31643C9.18053 6.90716 12.7886 10.316 14.0134 11.6662V11.7031C12.7543 12.8914 11.7936 14.3602 11.2096 15.9899C10.8909 16.8786 10.6683 17.7987 10.5455 18.7347C8.81899 20.0407 -0.145759 27.2937 0.00180091 37.3873C0.0462809 39.7562 0.573521 42.0911 1.55127 44.2492V44.382H1.64719C3.86071 49.1853 8.19921 53.7895 14.7217 58.1353C23.2659 63.802 29.8179 66.6057 34.6139 66.6057C35.9005 66.6183 37.1762 66.3672 38.3621 65.8679C42.5604 64.0676 43.918 59.2937 44.6854 54.8667C46.1832 46.3004 45.2461 27.3305 36.7536 20.2325L36.7536 20.2325Z" fill="#1466CF"/>
</svg>
