<svg width="743" height="640" viewBox="0 0 743 640" fill="none" xmlns="http://www.w3.org/2000/svg">
<path fill-rule="evenodd" clip-rule="evenodd" d="M-48.9171 860.478L-48.9169 860.477C-91.3885 858.397 -133.095 850.109 -172.876 835.843C-211.481 821.998 -247.899 802.671 -281.117 778.4C-307.87 758.853 -332.394 736.2 -354.008 711.071C-375.718 685.829 -394.484 658.096 -409.783 628.645C-425.355 598.667 -437.354 566.864 -445.446 534.121C-449.564 517.458 -452.711 500.346 -454.799 483.26C-456.923 465.88 -458 448.129 -458 430.5C-458 415.815 -457.252 401.006 -455.777 386.484C-454.324 372.171 -452.129 357.79 -449.254 343.739C-446.416 329.87 -442.847 315.989 -438.646 302.482C-434.491 289.125 -429.62 275.818 -424.169 262.93C-413.38 237.421 -400.026 212.818 -384.477 189.803C-369.078 167.009 -351.391 145.573 -331.91 126.091C-312.429 106.61 -290.993 88.9233 -268.197 73.5229C-245.182 57.9744 -220.578 44.6201 -195.07 33.831C-182.18 28.3789 -168.873 23.5083 -155.518 19.355C-142.012 15.1536 -128.131 11.5845 -114.261 8.74683C-100.208 5.8711 -85.8268 3.67603 -71.5165 2.2229C-56.9941 0.74805 -42.1849 0 -27.5003 0C-8.82 0 9.97954 1.20923 28.376 3.59375C46.4435 5.93506 64.516 9.46143 82.0914 14.0742C116.618 23.136 149.979 36.5378 181.248 53.9075C211.984 70.9817 240.629 91.8452 266.387 115.919C292.089 139.94 314.813 167.06 333.927 196.525C326.843 196.177 319.634 196 312.499 196C75.1208 196 -118.001 389.122 -118.001 626.5C-118.001 709.908 -94.1114 790.817 -48.9154 860.478L-48.9163 860.476L-48.9164 860.476C-48.9154 860.478 -48.9154 860.478 -48.9154 860.478C-48.9154 860.477 -48.9154 860.477 -48.9154 860.477L-48.9171 860.478ZM312.499 1057C266.075 1057 220.406 1049.65 176.761 1035.17C134.558 1021.16 94.8982 1000.72 58.8829 974.4C37.7138 958.933 17.8364 941.429 -0.196922 922.376C-18.2532 903.299 -34.6445 882.473 -48.9154 860.478H-48.9153C-41.8329 860.824 -34.6282 861.001 -27.5003 861.001C209.878 861.001 402.999 667.879 402.999 430.5C402.999 347.091 379.114 266.184 333.927 196.525C348.009 197.215 362.185 198.607 376.062 200.66C389.758 202.687 403.501 205.408 416.909 208.748C430.158 212.048 443.401 216.033 456.271 220.592C469.008 225.103 481.685 230.285 493.95 235.993C518.253 247.304 541.643 260.994 563.47 276.681C585.126 292.245 605.454 309.926 623.891 329.233C642.348 348.562 659.084 369.703 673.633 392.07C688.329 414.663 700.94 438.733 711.117 463.613C716.26 476.186 720.854 489.153 724.77 502.155C728.729 515.301 732.092 528.801 734.766 542.282C737.474 555.935 739.54 569.902 740.908 583.797C742.296 597.888 743 612.256 743 626.5C743 641.186 742.252 655.995 740.777 670.517C739.324 684.828 737.129 699.209 734.253 713.261C731.416 727.13 727.846 741.011 723.645 754.518C719.491 767.875 714.62 781.182 709.169 794.07C698.379 819.58 685.025 844.183 669.477 867.197C654.077 889.991 636.391 911.427 616.909 930.91C597.428 950.39 575.992 968.077 553.196 983.478C530.183 999.025 505.579 1012.38 480.069 1023.17C467.181 1028.62 453.874 1033.49 440.517 1037.65C427.01 1041.85 413.129 1045.42 399.26 1048.25C385.21 1051.13 370.828 1053.32 356.515 1054.78C341.991 1056.25 327.182 1057 312.499 1057H312.499Z" fill="#DBFBFF"/>
</svg>
