<svg width="40" height="34" viewBox="0 0 40 34" fill="none" xmlns="http://www.w3.org/2000/svg">
<path d="M40 1.20441L33.6734 32.5847C33.6734 32.5847 32.7888 34.7609 30.3556 33.7164L15.7565 22.705L10.448 20.1808L1.51171 17.2211C1.51171 17.2211 0.140299 16.7425 0.00747483 15.6979C-0.125349 14.6534 1.55598 14.0877 1.55598 14.0877L37.0798 0.377901C37.0798 0.377901 40 -0.884728 40 1.20441Z" fill="white"/>
<path d="M14.0601 31C14.0601 31 13.6469 30.962 13.1316 29.3583C12.6172 27.7548 10 19.3155 10 19.3155L30.8073 6.31884C30.8073 6.31884 32.0087 5.60144 31.9657 6.31884C31.9657 6.31884 32.1801 6.44554 31.5364 7.03624C30.8931 7.62721 15.1912 21.5099 15.1912 21.5099" fill="#D2E5F1"/>
</svg>
