<svg width="66" height="69" viewBox="0 0 66 69" fill="none" xmlns="http://www.w3.org/2000/svg">
<path d="M0 10C0 4.47715 4.47715 0 10 0H56C61.5228 0 66 4.47715 66 10V59C66 64.5228 61.5228 69 56 69H10C4.47715 69 0 64.5228 0 59V10Z" fill="#4B84AB"/>
<g clip-path="url(#clip0_239_141)">
<path d="M33.5 22.8461C36.4599 22.8461 38.8594 20.4466 38.8594 17.4867C38.8594 14.5268 36.4599 12.1273 33.5 12.1273C30.5401 12.1273 28.1406 14.5268 28.1406 17.4867C28.1406 20.4466 30.5401 22.8461 33.5 22.8461Z" fill="white"/>
<path d="M50.8223 24.3773H16.1777C15.4924 24.3773 14.8352 24.6495 14.3506 25.1341C13.866 25.6187 13.5938 26.2759 13.5938 26.9612C13.5938 27.6466 13.866 28.3038 14.3506 28.7884C14.8352 29.273 15.4924 29.5452 16.1777 29.5452H25.928C26.5893 29.5452 27.3635 29.841 27.8018 30.9808C28.3138 32.3043 28.0631 34.8606 27.7473 36.8407L27.3338 39.1806C27.3346 39.1867 27.334 39.1929 27.332 39.1987C27.33 39.2045 27.3267 39.2098 27.3224 39.2141L24.011 58.0494C23.8909 58.7332 24.0466 59.4366 24.4438 60.0059C24.8411 60.5752 25.4477 60.9639 26.1309 61.0871C26.4686 61.1468 26.8149 61.1389 27.1495 61.0637C27.4842 60.9885 27.8006 60.8476 28.0803 60.6491C28.3601 60.4506 28.5976 60.1986 28.7792 59.9076C28.9607 59.6166 29.0826 59.2924 29.1379 58.9538L31.4261 45.8617C31.4261 45.8617 32.1602 42.7523 33.5 42.7523C34.8619 42.7523 35.5806 45.8617 35.5806 45.8617L37.8688 58.9653C37.9242 59.3068 38.047 59.6339 38.23 59.9275C38.413 60.2211 38.6527 60.4753 38.935 60.6753C39.2173 60.8753 39.5365 61.0172 39.8742 61.0925C40.2118 61.1679 40.5611 61.1754 40.9017 61.1144C41.2422 61.0534 41.5672 60.9253 41.8577 60.7374C42.1483 60.5496 42.3985 60.3058 42.5938 60.0202C42.7892 59.7347 42.9257 59.4131 42.9955 59.0743C43.0654 58.7354 43.067 58.3861 43.0004 58.0466L39.6882 39.2112C39.6889 39.2052 39.6883 39.1991 39.6865 39.1934C39.6847 39.1876 39.6816 39.1823 39.6776 39.1777L39.2632 36.8378C38.9474 34.8577 38.6967 32.3015 39.2087 30.9779C39.6451 29.841 40.4442 29.5424 41.0538 29.5424H50.8223C51.5076 29.5424 52.1648 29.2701 52.6494 28.7855C53.134 28.3009 53.4062 27.6437 53.4062 26.9584C53.4062 26.2731 53.134 25.6158 52.6494 25.1312C52.1648 24.6466 51.5076 24.3744 50.8223 24.3744V24.3773Z" fill="white"/>
</g>
<defs>
<clipPath id="clip0_239_141">
<rect width="49" height="49" fill="white" transform="translate(6 2)"/>
</clipPath>
</defs>
</svg>
