<svg width="68" height="69" viewBox="0 0 68 69" fill="none" xmlns="http://www.w3.org/2000/svg">
<path d="M2 10C2 4.47715 6.47715 0 12 0H58C63.5228 0 68 4.47715 68 10V59C68 64.5228 63.5228 69 58 69H12C6.47715 69 2 64.5228 2 59V10Z" fill="#92AC7A"/>
<path d="M55.304 38.1142C55.506 41.724 53.9119 45.1941 51.0604 47.3134L52.7892 50.7835C53.3057 51.8315 53.373 53.0658 52.924 54.1604C52.4974 55.255 51.6217 56.1167 50.5439 56.4893L48.7702 57.0715C48.0316 57.3296 47.2342 57.3451 46.4868 57.1159C45.7394 56.8867 45.0784 56.4239 44.5939 55.7906L39.8339 49.9684C37.8356 49.619 35.9495 48.734 34.3554 47.4066C33.2327 47.7559 32.1101 47.9422 30.9874 47.9422C29.0116 47.9422 27.0357 47.3134 25.3742 46.1024C24.1842 46.475 22.9717 46.638 21.7368 46.6147C19.963 46.638 18.2117 46.2654 16.5726 45.5667C14.995 44.8366 13.6469 43.6612 12.6822 42.1746C11.7175 40.6881 11.175 38.9502 11.1166 37.1593C10.9369 35.4825 11.2064 33.7824 11.9024 32.2453C11.2513 30.4986 11.1839 28.5889 11.7453 26.819C12.576 24.6065 14.1477 22.7666 16.1011 21.6022C17.4034 17.6663 21.0632 15.0346 25.0823 15.3141C28.6748 11.8207 34.1757 11.4481 38.1724 14.4524C39.1154 14.1962 40.1033 14.0565 41.0913 14.0565C44.1449 13.9866 47.0413 15.384 48.9498 17.8759C53.5302 19.1102 56.8083 23.3489 56.9879 28.2862C57.1002 30.8713 56.4266 33.4098 55.057 35.5757C55.2142 36.4141 55.304 37.2525 55.304 38.1142ZM44.0775 34.8304C45.3573 34.9934 46.3677 35.9949 46.3677 37.3224C46.3677 37.94 46.1311 38.5324 45.7101 38.9691C45.289 39.4059 44.7179 39.6513 44.1224 39.6513H42.7079C41.9894 41.7473 40.732 43.5871 39.0705 44.9845C39.6318 45.1941 40.2156 45.3105 40.7994 45.4736C52.3177 45.3105 50.9705 38.021 50.9705 37.9046C50.911 36.3048 50.2412 34.7952 49.1085 33.7077C47.9758 32.6201 46.473 32.0439 44.9307 32.1056C44.3352 32.1056 43.7641 31.8602 43.343 31.4235C42.922 30.9867 42.6854 30.3943 42.6854 29.7767C42.6854 29.159 42.922 28.5666 43.343 28.1299C43.7641 27.6931 44.3352 27.4478 44.9307 27.4478C47.6924 27.5176 50.3419 28.5889 52.4075 30.4753C52.5198 29.8 52.5872 29.1013 52.5872 28.4026C52.4524 25.5148 51.1951 22.9995 46.1432 22.5105C43.3365 15.6169 36.2639 19.4363 36.2639 21.5789C36.1965 22.1145 36.7354 23.2557 36.8252 23.3256C37.4207 23.3256 37.9918 23.5709 38.4129 24.0077C38.8339 24.4445 39.0705 25.0368 39.0705 25.6545C39.0705 26.9354 38.0601 27.9834 36.8252 27.9834C35.6352 27.9368 34.5125 27.471 33.6144 26.6792C32.5367 27.4012 31.3018 27.8437 30.0219 27.9834C28.7421 28.0999 27.6868 27.1683 27.6195 25.8874C27.5781 25.5832 27.5971 25.2734 27.6754 24.9771C27.7536 24.6807 27.8894 24.4041 28.0745 24.1642C28.2595 23.9243 28.4898 23.7262 28.7514 23.582C29.0129 23.4377 29.3001 23.3505 29.5953 23.3256C29.9546 23.279 31.7059 22.9995 31.7059 21.5323C31.7059 19.9952 32.2672 18.528 33.2327 17.3636C31.1671 16.7813 28.9442 17.5499 26.6989 20.3679C22.5676 19.6925 20.8836 20.2747 19.6487 24.8161C17.5157 25.9107 16.393 26.6792 15.899 29.0081C18.324 28.4958 20.8162 28.7054 23.1289 29.5904C24.2515 30.0329 24.8802 31.337 24.4536 32.5947C24.027 33.8057 22.7247 34.4112 21.5572 33.9687C19.9181 33.2235 18.077 33.1769 16.393 33.829C15.6745 34.4578 15.6745 35.762 15.6745 36.7867C15.6745 38.5101 16.5053 40.1171 17.9198 41.0486C19.1098 41.6774 20.4345 42.0035 21.7593 41.9802C21.4225 41.3747 21.1306 40.7459 20.8836 40.0938C20.7068 39.4954 20.7607 38.8493 21.0338 38.2912C21.3069 37.7332 21.778 37.3068 22.348 37.1017C22.9181 36.8965 23.5426 36.9287 24.0902 37.1914C24.6378 37.454 25.0659 37.9268 25.2844 38.5101C26.1825 41.1651 28.4727 42.9816 31.1671 43.2844C34.2431 43.1213 36.9824 41.2349 38.3295 38.3238C38.846 35.1099 41.3382 34.8304 44.0775 34.8304ZM48.5681 52.2274L47.176 49.1998L45.5818 49.5724L47.8271 52.4836L48.5681 52.2274ZM38.1275 32.1755C38.147 31.5805 37.9461 31.0004 37.5661 30.5543C37.1861 30.1082 36.6559 29.8299 36.0842 29.7767C34.4901 29.6835 32.9408 30.2425 31.7508 31.337C30.471 32.6878 29.7974 34.5509 29.8648 36.4374C29.8648 37.055 30.1013 37.6474 30.5224 38.0842C30.9435 38.5209 31.5146 38.7663 32.1101 38.7663C33.3899 38.7663 34.3554 37.7183 34.3554 36.4374C34.3554 35.8086 34.5125 35.1798 34.8718 34.6674C35.1412 34.4345 35.478 34.3181 35.8373 34.3181C37.0722 34.3879 38.1275 33.4331 38.1275 32.1755Z" fill="white"/>
</svg>
