<svg width="79" height="68" viewBox="0 0 79 68" fill="none" xmlns="http://www.w3.org/2000/svg">
<path fill-rule="evenodd" clip-rule="evenodd" d="M58.5091 54.942H55.4848V57.9663C55.4848 59.2265 54.4767 60.2346 53.2165 60.2346C51.9564 60.2346 50.9483 59.2265 50.9483 57.9663V54.942H47.9239C46.6638 54.942 45.6557 53.9339 45.6557 52.6738C45.6557 51.4136 46.6638 50.4055 47.9239 50.4055H50.8223V47.3812C50.8223 46.121 51.8304 45.1129 53.0905 45.1129H53.2165C54.4767 45.1129 55.4848 46.121 55.4848 47.3812V50.4055H58.5091C59.1392 50.4055 59.6432 50.6575 60.0213 51.0356C60.3993 51.4136 60.6514 52.0437 60.6514 52.6738C60.6514 53.9339 59.6432 54.942 58.5091 54.942L58.5091 54.942ZM78.9234 40.7024C78.5453 39.1903 77.1591 38.0562 75.521 38.0562H30.7861C29.904 38.0562 29.0219 38.4342 28.3918 39.0643C27.7618 39.6943 27.3837 40.7024 27.3837 41.7106C27.5097 43.4747 29.1479 44.7349 30.9121 44.7349H34.1885V64.8971C34.1885 66.1572 35.1966 67.2913 36.5827 67.2913H69.7244C70.9845 67.2913 72.1186 66.2832 72.1186 64.8971V44.7349H75.521C76.4031 44.7349 77.2852 44.3569 77.9152 43.7268C78.7973 42.9707 79.1754 41.8366 78.9234 40.7024H78.9234Z" fill="#007BBF"/>
<path fill-rule="evenodd" clip-rule="evenodd" d="M21.9646 20.5425C21.9646 23.818 19.5713 26.2117 16.2962 26.2117C13.0211 26.2117 10.6278 23.818 10.6278 20.5425C10.6278 17.3929 13.1471 14.7472 16.2962 14.7472C19.4453 14.8732 22.0906 17.3929 21.9646 20.5425Z" fill="#2D3E50"/>
<path fill-rule="evenodd" clip-rule="evenodd" d="M18.438 63.6338C19.8242 63.6338 21.2104 63.5078 22.7227 63.5078C23.9829 63.3818 25.2432 63.3818 26.3773 63.3818C27.7636 63.3818 29.0238 62.2477 29.0238 60.7356C29.0238 59.2236 27.8896 58.0895 26.3773 58.0895C25.1171 58.0895 23.7309 58.2155 22.4707 58.2155C19.5722 58.3415 16.5476 58.4675 14.1532 57.9635C12.0108 57.5855 10.1205 56.3255 8.86028 54.4354C7.72609 52.7973 7.47404 50.9072 7.09597 48.5131C7.09597 48.1351 6.96996 47.7571 6.96996 47.5051L5.20565 36.0386C4.9536 34.6526 3.69339 33.6445 2.18112 33.8965C0.794882 34.1485 -0.213294 35.4086 0.0387525 36.9207L1.80306 48.3871C1.80306 48.7651 1.92908 49.0172 1.92908 49.3952C2.30714 52.0413 2.68521 54.9394 4.57554 57.5855C6.59189 60.4836 9.4904 62.4997 12.893 63.1298C14.6573 63.5078 16.5476 63.6338 18.438 63.6338H18.438Z" fill="#007BBF"/>
<path fill-rule="evenodd" clip-rule="evenodd" d="M21.8419 47.6356C21.8419 47.6356 26.8821 47.8876 30.2842 48.1397C30.6622 48.1397 30.9142 48.3918 30.9142 48.7699V55.8281C30.9142 56.2063 30.6622 56.4583 30.2842 56.4583C29.5282 56.4583 28.0161 56.4583 27.3861 56.4583C24.362 56.4583 21.3379 56.4583 18.1878 56.4583C13.3996 56.4583 10.8795 54.3157 10.8795 49.5261C10.7535 44.3585 10.3755 39.3169 9.99751 34.2753C9.7455 31.1243 11.8876 28.4775 14.9117 28.0994H15.0377C16.0457 27.9733 16.9277 28.2254 17.8098 28.6036C19.3218 29.3598 20.4559 30.8723 20.8339 32.8889C21.0859 34.5274 21.2119 36.1659 21.3379 37.9305C21.3379 38.4347 21.4639 38.8128 21.4639 39.3169L21.8419 47.6356Z" fill="#2D3E50"/>
<path fill-rule="evenodd" clip-rule="evenodd" d="M59.3912 9.57705C59.3912 9.82908 59.3912 9.95509 59.3912 10.0811C59.3912 10.2071 59.3912 10.4591 59.2652 10.5852C59.2652 10.7112 59.2652 10.8372 59.2652 10.9632C59.2652 11.4673 59.1392 11.7193 58.8871 11.9713C58.7611 11.9713 58.7611 12.0973 58.6351 12.0973C58.6351 12.0973 58.6351 12.0973 58.5091 12.2233C58.5091 12.2233 58.5091 12.3493 58.3831 12.3493C58.2571 12.6014 58.005 12.9794 58.005 12.9794C57.627 13.8615 57.249 14.6176 56.6189 15.3737C55.6108 16.6338 54.2246 17.2639 52.7125 17.0119C52.0824 16.8858 51.4523 16.6338 50.8223 16.2558C49.8142 15.7517 48.9321 14.6176 48.554 13.6095C48.554 13.4835 48.176 12.6014 48.05 12.2233H47.924C47.924 12.2233 47.924 12.2233 47.7979 12.2233C47.2939 11.9713 47.1679 11.3412 47.0419 10.9632C47.0419 10.8372 47.0419 10.7112 47.0419 10.5852C47.0419 10.4591 47.0419 10.2071 46.9159 10.0811C46.9159 9.95509 46.9159 9.82907 46.9159 9.70306V9.57705C46.9159 9.45104 46.9159 9.32502 47.0419 9.32502H47.1679H47.2939H47.4199H47.5459C47.6719 9.32502 47.6719 9.19901 47.7979 9.07299C47.9239 8.94698 47.9239 8.82096 47.9239 8.56894C47.9239 8.31691 47.9239 8.06488 47.7979 7.81286C49.1841 7.81286 50.4442 7.81286 51.8304 7.56083C52.2084 7.43482 52.5865 7.43482 52.9645 7.3088C54.0986 7.05677 55.2327 6.55272 56.2408 5.79664C56.7449 6.42671 57.375 6.93076 58.1311 7.18279H58.2571C58.2571 7.43482 58.1311 7.68685 58.1311 7.81286V8.06489C58.1311 8.31692 58.005 8.56895 58.1311 8.82097C58.1311 8.94698 58.2571 8.94698 58.2571 9.073C58.5091 9.32503 58.7611 9.32503 59.0131 9.32503C59.2652 9.19902 59.3912 9.32503 59.3912 9.57706V9.57705ZM59.6432 8.06489C59.6432 8.06489 59.6432 7.93888 59.6432 8.06489V7.81286C59.6432 7.56083 59.6432 7.43482 59.7692 7.18279C59.8952 6.55272 60.0213 5.92265 60.0213 5.4186C60.1473 3.40238 59.0131 1.7642 57.2489 0.8821C56.9969 0.75609 56.8709 0.75609 56.6189 0.63007C55.4848 0.25203 54.3506 0 53.2165 0C52.9645 0 52.7125 0 52.4604 0C51.7043 0 50.8222 0.12601 49.9401 0.50406C49.8141 0.50406 49.8141 0.63007 49.6881 0.63007C49.3101 0.8821 49.058 1.13413 48.806 1.51217C48.428 1.7642 48.1759 2.01623 47.9239 2.26825C47.5459 2.39426 47.2938 2.64629 47.0418 3.02433C46.7898 3.52839 46.6638 4.03244 46.6638 4.78852C46.6638 5.5446 46.6638 6.17467 46.6638 6.67873C46.6638 6.93076 46.7898 7.18278 46.7898 7.43481C46.7898 7.56082 46.9158 7.81285 46.9158 7.93887C46.9158 7.93887 46.9158 7.93887 46.7898 7.93887C46.1597 8.06488 45.7817 8.82097 45.7817 9.45104C45.7817 9.57705 45.7817 9.82908 45.7817 9.95509C45.7817 10.2071 45.7817 10.4592 45.9077 10.5852C45.9077 10.7112 45.9077 10.8372 45.9077 10.9632C46.0337 11.9713 46.5378 12.7274 47.2938 13.1054C47.2938 13.1054 47.2938 13.1054 47.2938 13.2314C47.9239 15.8777 50.0661 17.7679 52.4604 18.146C52.7124 18.146 52.9645 18.146 53.3425 18.146C55.2327 18.146 56.8709 17.1379 58.005 15.2477C58.257 14.8696 58.383 14.4916 58.6351 14.1135C58.7611 13.9875 58.7611 13.7355 58.7611 13.6095C58.7611 13.3574 58.8871 13.2314 58.8871 13.1054C59.0131 12.9794 59.1391 12.8534 59.2651 12.7274L59.5172 12.4754C60.1472 11.9713 60.2732 11.2152 60.2732 10.7112C60.2732 10.5852 60.2732 10.4591 60.2732 10.3331C60.2732 10.0811 60.3993 9.82907 60.3993 9.70306C60.3993 9.57705 60.3993 9.32502 60.3993 9.19901C60.5253 8.94698 60.2733 8.1909 59.6432 8.06488L59.6432 8.06489Z" fill="#2D3E50"/>
<path fill-rule="evenodd" clip-rule="evenodd" d="M59.3912 29.7392C59.3912 29.2352 59.7692 28.7311 60.3993 28.7311H61.6594V27.471C61.6594 26.9669 62.0375 26.4629 62.6675 26.4629C63.1716 26.4629 63.6757 26.8409 63.6757 27.471V28.7311H64.9358C65.1878 28.7311 65.4398 28.8571 65.5659 28.9832C65.6919 29.1092 65.8179 29.3612 65.8179 29.6132C65.8179 30.1173 65.4399 30.6213 64.8098 30.6213H63.5497V31.8815C63.5497 32.3855 63.1716 32.8896 62.5415 32.8896C62.0375 32.8896 61.5334 32.5115 61.5334 31.8815V30.6213H60.2733C59.7692 30.7473 59.3912 30.2433 59.3912 29.7392ZM68.8422 26.5889C68.7162 25.7068 68.3382 24.9507 67.7081 24.4467C67.3301 24.0686 66.826 23.6906 66.448 23.4385C64.9358 22.5564 63.1716 21.8004 61.5334 21.2963C61.4074 21.2963 61.2814 21.1703 61.1554 21.1703C61.0294 21.1703 60.9034 21.0443 60.7773 21.0443C60.3993 20.9183 59.8952 20.7923 59.5172 20.6663C59.3912 20.9183 59.2652 21.0443 59.1392 21.2963C58.7611 21.8004 58.3831 22.4304 58.005 22.9345C57.375 23.8166 56.7449 24.5727 56.1148 25.3288C55.7368 25.7068 55.4848 26.2109 55.1067 26.5889C55.1067 26.5889 55.1067 26.5889 54.9807 26.7149C54.8547 26.8409 54.8547 26.8409 54.7287 26.9669C54.7287 26.7149 54.7287 26.5889 54.6027 26.3369C54.3506 24.6987 54.2246 23.3125 54.2246 23.1865C54.3506 23.0605 54.3506 22.8085 54.4767 22.6825V22.5565C54.4767 22.4305 54.6027 22.4305 54.6027 22.3044C54.6027 22.3044 54.6027 22.3044 54.6027 22.1784C54.6027 22.0524 54.7287 21.9264 54.7287 21.8004C54.7287 21.6744 54.7287 21.5484 54.6027 21.4223V21.2963V21.1703L54.4767 21.0443C54.3507 20.9183 54.2246 20.9183 54.0986 20.9183C53.9726 20.9183 53.7206 20.9183 53.5946 20.9183C53.3425 20.9183 53.2165 20.9183 52.9645 20.9183C52.8385 20.9183 52.5865 20.9183 52.4605 20.9183C52.3344 20.9183 52.3344 20.9183 52.2084 20.9183C52.0824 20.9183 52.0824 20.9183 51.9564 20.9183C51.9564 20.9183 51.8304 20.9183 51.7044 21.0443L51.5783 21.1703V21.2963V21.4223C51.5783 21.5484 51.4523 21.6744 51.4523 21.8004C51.4523 21.9264 51.5783 22.0524 51.5783 22.1784C51.5783 22.1784 51.5783 22.1784 51.5783 22.3044C51.5783 22.4304 51.7044 22.4304 51.7044 22.5565V22.6825C51.7044 22.6825 51.7044 22.6825 51.7044 22.8085C51.8304 22.9345 51.8304 23.0605 51.9564 23.3125C51.9564 23.4386 51.7044 24.9507 51.5783 26.4629C51.5783 26.7149 51.5783 26.8409 51.4523 27.093C51.3263 26.9669 51.3263 26.9669 51.2003 26.8409C50.8223 26.3369 50.4442 25.9588 50.0662 25.4548C49.4361 24.6987 48.8061 23.8166 48.176 23.0605C47.6719 22.3044 47.1679 21.6744 46.6638 20.9183C46.1598 21.0443 45.5297 21.1703 45.0256 21.4223C43.1354 22.0524 41.3712 22.8085 39.7331 23.6906C39.229 23.9426 38.851 24.3207 38.4729 24.6987C37.8429 25.3288 37.4648 26.0848 37.3388 26.8409C37.3388 26.9669 37.3388 27.093 37.3388 27.345V32.3855V36.0399H68.7162V32.3855V27.345C68.8422 26.9669 68.8422 26.7149 68.8422 26.5889L68.8422 26.5889Z" fill="#2D3E50"/>
</svg>
