<svg width="83" height="74" viewBox="0 0 83 74" fill="none" xmlns="http://www.w3.org/2000/svg">
<path fill-rule="evenodd" clip-rule="evenodd" d="M12.9999 41C12.9999 29.402 22.402 20 33.9999 20C45.5979 20 54.9999 29.402 54.9999 41C54.9999 52.598 45.5979 62 33.9999 62C22.402 62 12.9999 52.598 12.9999 41Z" fill="#2D3E50"/>
<path fill-rule="evenodd" clip-rule="evenodd" d="M26.6143 6.65846C26.6143 4.53246 28.3377 2.809 30.4637 2.809C32.5897 2.809 34.3132 4.53246 34.3132 6.65846C34.3132 8.78446 32.5897 10.5079 30.4637 10.5079C28.3377 10.5079 26.6143 8.78446 26.6143 6.65846Z" fill="#007BBF"/>
<path fill-rule="evenodd" clip-rule="evenodd" d="M82.5897 10.3954C82.5897 11.6536 82.3101 12.9119 81.8907 14.0303C81.0518 16.4069 80.213 18.7835 79.3742 21.1601C78.6751 23.1173 77.9761 25.2144 77.2771 27.1716C77.1373 27.7308 76.8576 28.29 76.7178 28.8492C76.8576 29.2686 76.8576 29.5482 76.7178 29.9676C76.2984 32.484 75.4596 35.0004 73.9217 36.9576C72.8032 38.4954 70.846 40.0333 68.8887 40.3129H68.7489C68.3294 58.9064 53.0905 73.8651 34.4963 73.8651C15.6224 73.8651 0.243701 58.487 0.243701 39.6139C0.243701 24.3755 10.4496 10.8148 24.9895 6.6208C24.9895 6.9004 24.9895 7.04021 24.9895 7.31981C24.9895 8.43822 25.4089 9.27702 25.9681 10.1158C12.9661 13.7507 3.87867 25.7735 3.87867 39.4741C3.87867 56.39 17.7195 70.2303 34.6361 70.2303C51.4129 70.2303 64.9741 56.8094 65.3935 40.1731H64.1352C63.576 40.0333 63.0168 39.7537 62.4576 39.4741C60.5003 38.2158 58.9624 36.2586 58.1236 34.0218C57.5643 32.7636 57.1449 31.3656 56.8653 29.9676C56.7255 29.5482 56.8653 28.989 57.0051 28.5696C55.3274 23.3969 53.6497 18.3641 52.1119 13.6109C51.273 10.9546 51.5526 7.87901 52.8109 5.50239C53.9294 3.40538 55.8866 1.86756 57.9837 1.30835C58.4032 1.16855 58.6828 1.02875 59.1022 0.888949C59.8012 0.609348 60.3605 0.329747 61.0595 0.329747C61.8983 0.189941 62.5973 0.469542 63.1566 1.02875C63.576 1.44816 63.8556 2.14717 63.8556 2.98597C63.8556 4.66359 62.3177 5.64219 60.7799 5.64219H60.6401C60.0808 5.64219 59.6614 5.5024 59.242 5.22279C58.9624 5.08298 58.8226 5.08298 58.6828 4.94319C58.1235 4.80339 57.7041 5.22279 57.1449 5.64219C55.1876 7.4596 54.6284 9.69643 55.3274 12.073C57.0051 17.5253 58.9624 22.6979 60.5003 26.7522C60.5003 26.892 60.6401 27.1716 60.6401 27.3114C61.1993 27.7308 61.6187 28.29 61.7585 28.989C61.7585 29.1288 62.0381 30.387 62.5974 31.785L62.877 32.3442C63.8556 34.1616 64.9741 35.1402 66.5119 35.28H66.6517H66.7915C67.6304 35.28 70.7061 34.8606 71.545 28.989C71.6848 28.1502 72.244 27.4512 72.943 27.0318C73.9217 24.3755 75.0401 21.5795 76.0188 18.7835C76.2984 18.0845 76.578 17.5253 76.8576 16.8263C78.1159 13.8905 79.3741 10.675 78.2557 8.01882C77.4168 6.0616 76.4382 4.94319 75.4595 4.94319C75.1799 4.94319 74.7605 5.08299 74.4809 5.22279C74.0615 5.36259 73.5023 5.64219 72.943 5.64219C72.5236 5.64219 72.244 5.50239 71.8246 5.36259C70.8459 4.80339 70.2867 4.10438 70.1469 3.26558C70.0071 2.28697 70.5663 1.30836 71.6848 0.609358C72.1042 0.329757 72.5236 0.189951 72.943 0.189951C73.9217 0.189951 74.9003 0.749153 75.5994 1.16856C75.7392 1.30836 75.879 1.30836 76.0188 1.44816C77.2771 2.14717 78.6751 2.84617 79.9334 3.96458C81.8907 5.36259 82.7295 7.7392 82.5897 10.3954V10.3954Z" fill="#2D3E50"/>
<path fill-rule="evenodd" clip-rule="evenodd" d="M32.6897 46.1402V48.9435H21.9998C22.0874 47.8923 22.4379 46.841 23.0512 45.8774C23.6646 44.9138 24.8037 43.5998 26.4685 42.023C27.8705 40.7089 28.6591 39.8329 29.0096 39.3949C29.4477 38.7817 29.6229 38.1685 29.6229 37.5553C29.6229 36.8545 29.4477 36.3289 29.0972 35.9784C28.7467 35.628 28.221 35.4528 27.6076 35.4528C26.9943 35.4528 26.4685 35.628 26.118 36.066C25.7675 36.4165 25.5047 37.1173 25.5047 37.9933L22.4379 37.7305C22.6131 36.066 23.2265 34.8396 24.1903 34.1388C25.1542 33.438 26.3809 33 27.7829 33C29.3601 33 30.5868 33.438 31.463 34.314C32.3393 35.19 32.7774 36.2412 32.7774 37.4677C32.7774 38.1685 32.6897 38.8693 32.4269 39.4825C32.164 40.0957 31.7259 40.7965 31.2002 41.4973C30.8497 41.9353 30.1487 42.6361 29.1848 43.5122C28.221 44.3882 27.6076 45.0014 27.3448 45.2642C27.0819 45.527 26.9066 45.8774 26.7314 46.1402L32.6897 46.1402Z" fill="white"/>
<path fill-rule="evenodd" clip-rule="evenodd" d="M40.7445 43.0731V37.6424L37.0657 43.0731H40.7445ZM40.7445 49.0293V45.7884H34.2627V43.0731L41.1825 33H43.7227V43.1607H45.7373V45.876H43.7227V49.1169H40.7445V49.0293Z" fill="white"/>
</svg>
