<svg width="61" height="68" viewBox="0 0 61 68" fill="none" xmlns="http://www.w3.org/2000/svg">
<path fill-rule="evenodd" clip-rule="evenodd" d="M53.0392 56.6548H50.5429V59.1511C50.5429 60.1279 49.6746 60.9962 48.6978 60.9962C47.721 60.9962 46.8527 60.1279 46.8527 59.1511V56.6548H44.3564C43.3796 56.6548 42.5113 55.7865 42.5113 54.8097C42.5113 53.8329 43.3796 52.9646 44.3564 52.9646H46.8527V50.4683C46.8527 49.4915 47.721 48.6232 48.6978 48.6232H48.8063C49.7831 48.6232 50.6514 49.4915 50.6514 50.4683V52.9646H53.1477C53.6904 52.9646 54.1245 53.1817 54.4501 53.5073C54.7757 53.8329 54.9928 54.267 54.9928 54.8097C54.8843 55.895 54.016 56.6548 53.0392 56.6548ZM60.7451 51.1195C60.5281 49.4915 59.7683 48.0806 58.5744 46.9952C57.8147 46.2355 56.9464 45.5843 56.0781 45.1501C53.1477 43.5221 49.8917 42.1112 46.5271 40.9173C46.3101 40.8088 46.093 40.8088 45.8759 40.7002C45.6589 40.5917 45.3333 40.4832 45.1162 40.4832C44.3564 40.2661 43.4882 40.049 42.7284 39.832C42.5114 40.1576 42.2943 40.5917 41.9687 40.9173C41.209 42.0026 40.4492 42.9795 39.798 44.0648C38.6041 45.6928 37.5188 47.2123 36.3249 48.7318C35.6737 49.6 35.0225 50.3598 34.3713 51.2281L34.2628 51.3366C34.2628 51.3366 34.2628 51.3366 34.2628 51.4451C34.1542 51.6622 34.0457 51.7707 33.8286 51.9878C33.8286 51.6622 33.7201 51.2281 33.7201 50.9025C33.286 47.755 32.9604 45.1501 32.9604 44.716V44.6075C33.0689 44.2819 33.1774 43.9563 33.3945 43.7392V43.6307L33.503 43.5221C33.6116 43.4136 33.6116 43.1965 33.7201 43.088L33.8286 42.9795V42.8709L33.9372 42.7624C34.0457 42.5453 34.1542 42.2197 34.1542 41.8941C34.1542 41.5685 34.0457 41.3515 33.9372 41.1344L33.8286 40.9173C33.8286 40.9173 33.8286 40.9173 33.8286 40.8088C33.8286 40.7003 33.7201 40.7003 33.7201 40.5917C33.6116 40.4832 33.6116 40.3747 33.503 40.3747C33.3945 40.2661 33.1774 40.2661 33.0689 40.2661H32.8518C32.7433 40.2661 32.6348 40.2661 32.6348 40.2661C32.5262 40.2661 32.2006 40.2661 31.875 40.2661C31.6579 40.2661 31.4409 40.2661 31.1153 40.2661C30.6811 40.2661 30.3555 40.2661 30.0299 40.2661C29.9214 40.2661 29.8129 40.2661 29.8129 40.2661C29.7043 40.2661 29.7043 40.2661 29.7043 40.2661H29.5958C29.4873 40.2661 29.3787 40.2661 29.3787 40.2661H29.2702C29.2702 40.2661 29.2702 40.2661 29.1617 40.2661C29.1617 40.2661 29.0531 40.2661 28.9446 40.2661H28.7275C28.619 40.2661 28.5104 40.2661 28.2934 40.3747C28.1848 40.4832 28.0763 40.4832 28.0763 40.5917C27.9678 40.7003 27.9678 40.8088 27.9678 40.8088V40.9173L27.4251 40.8088C27.3166 41.0259 27.208 41.2429 27.208 41.5685C27.208 41.8941 27.3166 42.2197 27.4251 42.4368L27.5337 42.5453C27.5337 42.5453 27.5337 42.5453 27.5337 42.6539L27.6422 42.7624C27.7507 42.8709 27.7507 43.088 27.8593 43.1965L27.9678 43.3051V43.4136C28.0763 43.7392 28.1849 43.9563 28.4019 44.2819V44.3904C28.4019 44.716 28.0763 47.4294 27.6422 50.5768C27.6422 50.9024 27.5337 51.3366 27.5337 51.6622C27.4251 51.4451 27.3166 51.3366 27.0995 51.1195C26.3398 50.2512 25.6886 49.383 24.9288 48.4062C23.735 46.8867 22.5411 45.3672 21.4557 43.7392C20.4789 42.3282 19.5021 41.0258 18.5253 39.5063C17.44 39.7234 16.4632 40.049 15.3778 40.3746C11.7962 41.5685 8.32309 43.088 5.1756 44.8245C4.19879 45.3672 3.43905 45.9099 2.67931 46.6696C1.59397 47.8635 0.725685 49.1659 0.508615 50.7939C0.508615 51.1195 0.400085 51.3366 0.400085 51.6622V61.2132C1.15983 67.2911 4.95853 67.2911 5.1756 67.2911H56.2952C56.2952 67.2911 56.2952 67.2911 56.4038 67.2911H56.5123C56.9464 67.1826 57.7062 67.0741 58.5745 66.4229C58.683 66.3143 58.7915 66.2058 58.9001 66.2058L59.0086 66.0973C59.3342 65.7717 59.6598 65.3375 59.8769 64.9034C59.9854 64.7948 59.9854 64.6863 59.9854 64.5778C59.9854 64.4692 60.0939 64.3607 60.0939 64.2522C60.4195 63.4924 60.6366 62.6242 60.7451 61.5388V51.9878C60.7452 51.6622 60.7452 51.3366 60.7452 51.1195L60.7451 51.1195Z" fill="#2D3E50"/>
<path fill-rule="evenodd" clip-rule="evenodd" d="M43.7005 15.8419V12.3757H41.9674C42.0757 12.9173 42.184 13.4589 42.184 14.1088C42.184 14.7587 42.0757 15.3003 41.9674 15.8419H43.7005Z" fill="#007BBF"/>
<path fill-rule="evenodd" clip-rule="evenodd" d="M18.0922 12.3757V15.8419H29.4844C29.3759 15.3003 29.2674 14.7587 29.2674 14.1088C29.2674 13.4589 29.3759 12.9173 29.4844 12.3757H18.0922Z" fill="#007BBF"/>
<path fill-rule="evenodd" clip-rule="evenodd" d="M35.6737 15.629C34.9139 15.629 34.1542 14.9778 34.1542 14.1095C34.1542 13.3498 34.8054 12.59 35.6737 12.59C36.542 12.59 37.1932 13.2413 37.1932 14.1095C37.1932 14.8693 36.542 15.629 35.6737 15.629ZM35.6737 9.11694C33.503 9.11694 31.6579 10.5279 30.8982 12.373C30.6811 12.9156 30.5726 13.4583 30.5726 14.1095C30.5726 14.7607 30.6811 15.3034 30.8982 15.8461C31.6579 17.7997 33.503 19.1021 35.6737 19.1021C37.8444 19.1021 39.6895 17.6912 40.4492 15.8461C40.6663 15.3034 40.7748 14.7607 40.7748 14.1095C40.7748 13.4583 40.6663 12.9156 40.4492 12.373C39.6895 10.4194 37.8444 9.11694 35.6737 9.11694Z" fill="#007BBF"/>
<path fill-rule="evenodd" clip-rule="evenodd" d="M16.5733 19.4294C16.5733 19.8635 16.6818 20.2977 16.6818 20.7319C16.6818 20.949 16.7903 21.1661 16.7903 21.3832C17.0074 23.3371 17.9841 24.7482 19.3949 25.508C19.5034 25.508 19.5034 25.6166 19.5034 25.6166C20.8057 30.6098 24.8211 34.409 29.4877 35.1688C30.0303 35.2774 30.573 35.2774 31.1156 35.2774C34.6969 35.2774 37.9526 33.3235 40.1231 29.85C40.5572 29.1987 40.8828 28.4388 41.3169 27.5704C41.4254 27.2448 41.5339 26.9192 41.6425 26.5935C41.751 26.1593 41.8595 25.9422 41.968 25.7251C42.1851 25.508 42.4021 25.2909 42.7277 25.0738L43.1618 24.7482C44.2471 23.6627 44.5726 22.4687 44.6811 21.3832C44.6811 21.1661 44.7897 20.949 44.7897 20.7319C44.8982 20.2977 44.8982 19.8635 44.8982 19.4294C44.8982 19.1037 44.8982 18.7781 44.8982 18.4524V18.3439C44.8982 17.9097 44.7897 17.3669 44.6811 16.9327H41.6425C41.5339 17.0413 41.5339 17.1498 41.4254 17.2584C41.8595 17.4755 42.2936 17.584 42.5106 17.584C42.6192 17.6926 42.7277 17.9097 42.7277 18.1268V18.2353V18.4524C42.7277 18.6695 42.7277 18.9952 42.7277 19.2123C42.7277 19.5379 42.6192 19.9721 42.6192 20.2977C42.6192 20.5148 42.5106 20.7319 42.5106 21.0576C42.4021 22.0345 42.1851 22.5772 41.751 22.9029C41.6425 23.0114 41.5339 23.12 41.3169 23.2285L41.2084 23.3371C41.0998 23.4456 41.0998 23.5542 41.0998 23.6627C40.8828 24.0969 40.4487 24.9653 40.4487 24.9653C39.7975 26.5935 39.0379 28.2217 37.8441 29.5243C35.8907 32.0209 33.1775 33.2149 30.2474 32.7808C28.9451 32.5637 27.7513 32.1295 26.6661 31.3696C24.7126 30.3927 23.0848 28.2217 22.2166 26.2679C22.108 26.0508 21.4569 24.2055 21.1313 23.5542L21.0228 23.4456C21.0228 23.4456 20.9143 23.4456 20.9143 23.3371C19.9375 22.7943 19.612 21.6003 19.612 20.949C19.612 20.7319 19.5034 20.5148 19.5034 20.1892C19.3949 19.8635 19.3949 19.4293 19.3949 19.1037C19.3949 18.8866 19.3949 18.561 19.3949 18.3439V18.1268C19.3949 17.9097 19.5034 17.584 19.5034 17.584C19.612 17.584 19.7205 17.584 19.7205 17.584C19.829 17.584 19.9375 17.584 20.0461 17.584C20.1546 17.584 20.2631 17.584 20.3716 17.584L20.6972 17.4755C20.9143 17.3669 21.0228 17.2584 21.1313 17.0413C21.1313 17.0413 21.1313 16.9327 21.2398 16.9327H17.3329C17.1159 17.3669 17.1159 17.8011 17.1159 18.3439V18.4524C16.5733 18.7781 16.5733 19.1037 16.5733 19.4294H16.5733Z" fill="#2D3E50"/>
<path fill-rule="evenodd" clip-rule="evenodd" d="M30.0296 11.1781C31.1149 9.1161 33.2853 7.59675 35.7813 7.59675C38.2773 7.59675 40.4477 9.00758 41.5329 11.1781H43.7033C43.7033 10.8525 43.8118 10.5269 43.8118 10.2013C43.9204 6.29445 41.967 3.14722 38.4943 1.62787C38.0602 1.41082 37.7346 1.3023 37.4091 1.19377C35.1301 0.325572 32.9597 -9.99914e-06 30.6808 -9.99914e-06C30.2467 -9.99914e-06 29.7041 -9.99914e-06 29.27 -9.99914e-06C27.8592 0.108511 26.0144 0.217041 24.3865 0.976716C24.1695 1.08524 24.061 1.19377 23.8439 1.19377C23.1928 1.62787 22.6502 2.06196 22.3246 2.82164H22.2161C21.565 3.25574 21.0224 3.79836 20.5883 4.34099C19.9372 4.66656 19.3946 5.10066 18.9605 5.75182C18.4179 6.62001 18.2008 7.81379 18.0923 9.11609C18.0923 9.87576 18.0923 10.5269 18.0923 11.1781H30.0297L30.0296 11.1781Z" fill="#2D3E50"/>
</svg>
