<svg width="26" height="21" viewBox="0 0 26 21" fill="none" xmlns="http://www.w3.org/2000/svg">
<path d="M14.95 1.80001C16.3058 1.80035 17.6428 2.11759 18.8543 2.72641C20.0658 3.33524 21.1182 4.21878 21.9276 5.30656C22.7369 6.39433 23.2809 7.65622 23.5159 8.99154C23.751 10.3269 23.6708 11.6986 23.2816 12.9974C22.8923 14.2962 22.205 15.4861 21.2743 16.472C20.3435 17.458 19.1953 18.2128 17.921 18.6761C16.6468 19.1395 15.282 19.2987 13.9353 19.1409C12.5887 18.9831 11.2975 18.5128 10.165 17.7674V17.75H10.1389C8.58124 16.7168 7.3978 15.2094 6.76377 13.4511C6.12975 11.6928 6.07885 9.77707 6.61863 7.98758C7.1584 6.19809 8.26015 4.63001 9.7607 3.51557C11.2613 2.40113 13.0808 1.79958 14.95 1.80001ZM6.6197 16.3C6.9822 16.822 7.394 17.3063 7.8464 17.75H1.17495C0.982669 17.75 0.798263 17.8264 0.662299 17.9624C0.526335 18.0983 0.449951 18.2827 0.449951 18.475C0.449951 18.6673 0.526335 18.8517 0.662299 18.9877C0.798263 19.1236 0.982669 19.2 1.17495 19.2H9.71835C11.2584 20.1255 13.0166 20.6255 14.8132 20.6491C16.6098 20.6727 18.3804 20.219 19.9443 19.3342C21.5081 18.4495 22.8091 17.1655 23.7143 15.6134C24.6194 14.0613 25.0964 12.2968 25.0964 10.5C25.0964 8.70325 24.6194 6.93869 23.7143 5.3866C22.8091 3.8345 21.5081 2.55051 19.9443 1.66578C18.3804 0.781048 16.6098 0.327298 14.8132 0.350881C13.0166 0.374463 11.2584 0.874534 9.71835 1.80001H2.62495C2.43267 1.80001 2.24826 1.87639 2.1123 2.01235C1.97633 2.14832 1.89995 2.33272 1.89995 2.52501C1.89995 2.71729 1.97633 2.90169 2.1123 3.03766C2.24826 3.17362 2.43267 3.25001 2.62495 3.25001H7.8464C6.88049 4.19402 6.11333 5.32183 5.59012 6.56697C5.06691 7.81212 4.79824 9.1494 4.79995 10.5C4.79995 12.0573 5.15085 13.5305 5.77725 14.85H4.07495C3.88267 14.85 3.69826 14.9264 3.5623 15.0624C3.42633 15.1983 3.34995 15.3827 3.34995 15.575C3.34995 15.7673 3.42633 15.9517 3.5623 16.0877C3.69826 16.2236 3.88267 16.3 4.07495 16.3H6.6197ZM10.8856 7.46081C10.228 8.33744 9.87327 9.40414 9.87495 10.5C9.87495 11.6397 10.252 12.6924 10.8856 13.5392L12.4516 11.9732C12.1879 11.5271 12.0492 11.0182 12.05 10.5C12.05 9.96351 12.1964 9.45891 12.4516 9.02681L10.8856 7.46081ZM11.9108 6.43566L13.4768 8.00166C13.9228 7.73791 14.4317 7.59917 14.95 7.60001C15.4865 7.60001 15.991 7.74646 16.4232 8.00166L17.9891 6.43566C17.1125 5.77805 16.0458 5.42333 14.95 5.42501C13.8103 5.42501 12.7576 5.80201 11.9108 6.43566ZM19.0158 7.46081L17.4498 9.02681C17.7128 9.47326 17.8513 9.98204 17.8511 10.5002C17.8508 11.0184 17.7117 11.527 17.4483 11.9732L19.0143 13.5392C19.6494 12.6924 20.025 11.6397 20.025 10.5C20.025 9.36031 19.648 8.30761 19.0143 7.46081H19.0158ZM17.9891 14.5658L16.4232 12.9998C15.9769 13.263 15.468 13.4012 14.95 13.4C14.4135 13.4 13.9089 13.2536 13.4768 12.9984L11.9108 14.5644C12.7576 15.1995 13.8103 15.575 14.95 15.575C16.0897 15.575 17.1423 15.198 17.9891 14.5644V14.5658ZM8.42495 10.5C8.42495 9.64313 8.59373 8.79465 8.92164 8.003C9.24955 7.21135 9.73018 6.49204 10.3361 5.88613C10.942 5.28023 11.6613 4.7996 12.4529 4.47169C13.2446 4.14378 14.0931 3.97501 14.95 3.97501C15.8068 3.97501 16.6553 4.14378 17.447 4.47169C18.2386 4.7996 18.9579 5.28023 19.5638 5.88613C20.1697 6.49204 20.6504 7.21135 20.9783 8.003C21.3062 8.79465 21.475 9.64313 21.475 10.5C21.475 12.2305 20.7875 13.8902 19.5638 15.1139C18.3401 16.3376 16.6805 17.025 14.95 17.025C13.2194 17.025 11.5598 16.3376 10.3361 15.1139C9.1124 13.8902 8.42495 12.2305 8.42495 10.5ZM13.5 10.5C13.5 10.8846 13.6527 11.2534 13.9246 11.5253C14.1966 11.7972 14.5654 11.95 14.95 11.95C15.3345 11.95 15.7033 11.7972 15.9753 11.5253C16.2472 11.2534 16.4 10.8846 16.4 10.5C16.4 10.1154 16.2472 9.74663 15.9753 9.4747C15.7033 9.20277 15.3345 9.05001 14.95 9.05001C14.5654 9.05001 14.1966 9.20277 13.9246 9.4747C13.6527 9.74663 13.5 10.1154 13.5 10.5Z" fill="black"/>
</svg>