<svg
width="76"
height="18"
viewBox="0 0 76 18"
fill="none"
xmlns="http://www.w3.org/2000/svg"
>
<path
d="M69.9456 8.60655C69.9456 10.1311 69.3769 11.4344 68.2395 12.5164C67.102 13.5984 65.7234 14.1393 64.1034 14.1393C63.1383 14.1393 62.1991 13.9098 61.2857 13.4508L58.0544 14.4098L59.0884 11.459C58.537 10.5738 58.2612 9.62295 58.2612 8.60655C58.2612 7.08196 58.8299 5.78278 59.9673 4.70901C61.1048 3.63524 62.4834 3.09836 64.1034 3.09836C65.7234 3.09836 67.102 3.63524 68.2395 4.70901C69.3769 5.78278 69.9456 7.08196 69.9456 8.60655ZM64.1034 3.95901C62.7419 3.95901 61.583 4.41393 60.6265 5.32377C59.6701 6.2336 59.1918 7.32787 59.1918 8.60655C59.1918 9.62295 59.502 10.5328 60.1224 11.3361L59.502 13.0574L61.415 12.4918C62.2594 13 63.1556 13.2541 64.1034 13.2541C65.4649 13.2541 66.6238 12.7992 67.5803 11.8893C68.5367 10.9795 69.015 9.88524 69.015 8.60655C69.015 7.32787 68.5367 6.2336 67.5803 5.32377C66.6238 4.41393 65.4649 3.95901 64.1034 3.95901ZM67.0503 9.88524C67.0331 9.86885 66.9469 9.81147 66.7918 9.71311C66.7401 9.69672 66.5764 9.62705 66.3007 9.5041C66.0249 9.38114 65.8612 9.31147 65.8095 9.29508C65.6544 9.2459 65.5424 9.26229 65.4735 9.34426C65.4562 9.39344 65.4175 9.45492 65.3571 9.52869C65.2968 9.60246 65.2322 9.67623 65.1633 9.75C65.0943 9.82377 65.0512 9.86885 65.034 9.88524C64.9651 9.9836 64.8617 9.9918 64.7238 9.90983C64.1379 9.63114 63.7501 9.40983 63.5605 9.2459C63.4399 9.13114 63.3236 9.00819 63.2116 8.87705C63.0995 8.7459 62.9961 8.62295 62.9014 8.50819C62.8066 8.39344 62.7592 8.32787 62.7592 8.31147C62.7075 8.19672 62.7333 8.10655 62.8367 8.04098C62.9057 7.94262 62.9746 7.86065 63.0435 7.79508L63.1986 7.57377C63.2331 7.4918 63.2245 7.40983 63.1728 7.32787C63.1039 7.11475 62.9574 6.77869 62.7333 6.31967C62.6816 6.17213 62.5782 6.09836 62.4231 6.09836H62.1388C61.9837 6.09836 61.8544 6.15574 61.751 6.27049C61.4236 6.58196 61.2599 6.95082 61.2599 7.37705C61.2599 7.77049 61.4494 8.2377 61.8286 8.77869L61.8803 8.85246C61.9147 8.90164 61.9535 8.95492 61.9966 9.01229C62.0397 9.06967 62.1 9.14344 62.1775 9.2336C62.2551 9.32377 62.3326 9.40983 62.4102 9.4918C62.4878 9.57377 62.5782 9.66803 62.6816 9.77459C62.785 9.88114 62.897 9.9836 63.0177 10.082C63.1383 10.1803 63.2633 10.2746 63.3925 10.3648C63.5218 10.4549 63.6639 10.5369 63.819 10.6107C63.9741 10.6844 64.1292 10.7541 64.2844 10.8197C64.5601 10.918 64.7971 11 64.9952 11.0656C65.1934 11.1311 65.3485 11.1721 65.4605 11.1885C65.5726 11.2049 65.6544 11.2131 65.7061 11.2131C65.7578 11.2131 65.8181 11.2049 65.8871 11.1885C65.956 11.1721 65.9991 11.1639 66.0163 11.1639C66.1714 11.1475 66.3567 11.0738 66.5721 10.9426C66.7875 10.8115 66.9211 10.6721 66.9728 10.5246C67.1107 10.1803 67.1365 9.96721 67.0503 9.88524Z"
fill="#4ECB71"
/>
<path
d="M7.2017 13L5.21307 5.72727H6.10795L7.62784 11.6506H7.69886L9.24716 5.72727H10.2415L11.7898 11.6506H11.8608L13.3807 5.72727H14.2756L12.2869 13H11.3778L9.77273 7.20455H9.71591L8.1108 13H7.2017ZM16.0973 9.71875V13H15.2592V5.72727H16.0973V8.39773H16.1683C16.2962 8.116 16.4879 7.89228 16.7436 7.72656C17.0017 7.55848 17.3449 7.47443 17.7734 7.47443C18.1451 7.47443 18.4706 7.54901 18.75 7.69815C19.0294 7.84493 19.246 8.07102 19.3999 8.37642C19.5561 8.67945 19.6342 9.06534 19.6342 9.53409V13H18.7962V9.59091C18.7962 9.15767 18.6837 8.82268 18.4588 8.58594C18.2363 8.34683 17.9273 8.22727 17.532 8.22727C17.2573 8.22727 17.0111 8.28527 16.7933 8.40128C16.5779 8.51728 16.4074 8.68655 16.282 8.90909C16.1589 9.13163 16.0973 9.40152 16.0973 9.71875ZM22.7725 13.1278C22.4269 13.1278 22.1132 13.0627 21.8315 12.9325C21.5498 12.8 21.3261 12.6094 21.1603 12.3608C20.9946 12.1098 20.9118 11.8068 20.9118 11.4517C20.9118 11.1392 20.9733 10.8859 21.0964 10.6918C21.2195 10.4953 21.3841 10.3414 21.59 10.2301C21.796 10.1188 22.0233 10.036 22.2718 9.98153C22.5228 9.92472 22.7749 9.87973 23.0282 9.84659C23.3597 9.80398 23.6284 9.77202 23.8343 9.75071C24.0427 9.72704 24.1942 9.68797 24.2889 9.63352C24.3859 9.57907 24.4345 9.48437 24.4345 9.34943V9.32102C24.4345 8.97064 24.3386 8.69839 24.1468 8.50426C23.9574 8.31013 23.6698 8.21307 23.2839 8.21307C22.8838 8.21307 22.5701 8.30066 22.3429 8.47585C22.1156 8.65104 21.9558 8.83807 21.8635 9.03693L21.068 8.75284C21.21 8.4214 21.3994 8.16335 21.6362 7.97869C21.8753 7.79167 22.1357 7.66146 22.4174 7.58807C22.7015 7.51231 22.9809 7.47443 23.2555 7.47443C23.4307 7.47443 23.6319 7.49574 23.8592 7.53835C24.0888 7.5786 24.3102 7.66264 24.5233 7.79048C24.7387 7.91832 24.9174 8.11127 25.0595 8.36932C25.2015 8.62737 25.2725 8.97301 25.2725 9.40625V13H24.4345V12.2614H24.3919C24.335 12.3797 24.2404 12.5064 24.1078 12.6413C23.9752 12.7763 23.7988 12.8911 23.5787 12.9858C23.3585 13.0805 23.0898 13.1278 22.7725 13.1278ZM22.9004 12.375C23.2318 12.375 23.5112 12.3099 23.7385 12.1797C23.9681 12.0495 24.1409 11.8814 24.2569 11.6754C24.3753 11.4695 24.4345 11.2528 24.4345 11.0256V10.2585C24.399 10.3011 24.3208 10.3402 24.2001 10.3757C24.0817 10.4089 23.9444 10.4384 23.7882 10.4645C23.6343 10.4882 23.484 10.5095 23.3372 10.5284C23.1928 10.545 23.0756 10.5592 22.9856 10.571C22.7678 10.5994 22.5642 10.6456 22.3748 10.7095C22.1878 10.7711 22.0363 10.8646 21.9203 10.9901C21.8066 11.1132 21.7498 11.2812 21.7498 11.4943C21.7498 11.7855 21.8575 12.0057 22.073 12.1548C22.2908 12.3016 22.5666 12.375 22.9004 12.375ZM29.1744 7.54545V8.25568H26.3477V7.54545H29.1744ZM27.1715 6.23864H28.0096V11.4375C28.0096 11.6742 28.0439 11.8518 28.1126 11.9702C28.1836 12.0862 28.2736 12.1643 28.3825 12.2045C28.4937 12.2424 28.6109 12.2614 28.734 12.2614C28.8263 12.2614 28.9021 12.2566 28.9613 12.2472C29.0205 12.2353 29.0678 12.2259 29.1033 12.2188L29.2738 12.9716C29.217 12.9929 29.1377 13.0142 29.0359 13.0355C28.9341 13.0592 28.805 13.071 28.6488 13.071C28.4121 13.071 28.18 13.0201 27.9528 12.9183C27.7279 12.8165 27.5408 12.6615 27.3917 12.4531C27.2449 12.2448 27.1715 11.982 27.1715 11.6648V6.23864ZM34.201 8.76705L33.4482 8.98011C33.4008 8.85464 33.331 8.73272 33.2386 8.61435C33.1487 8.49361 33.0256 8.39418 32.8693 8.31605C32.7131 8.23793 32.513 8.19886 32.2692 8.19886C31.9354 8.19886 31.6572 8.2758 31.4347 8.42969C31.2145 8.5812 31.1044 8.77415 31.1044 9.00852C31.1044 9.21686 31.1802 9.38139 31.3317 9.50213C31.4832 9.62287 31.7199 9.72348 32.0419 9.80398L32.8516 10.0028C33.3393 10.1212 33.7027 10.3023 33.9418 10.5462C34.1809 10.7876 34.3004 11.099 34.3004 11.4801C34.3004 11.7926 34.2105 12.072 34.0305 12.3182C33.853 12.5644 33.6044 12.7585 33.2848 12.9006C32.9652 13.0426 32.5935 13.1136 32.1697 13.1136C31.6134 13.1136 31.1529 12.9929 30.7884 12.7514C30.4238 12.5099 30.1929 12.1572 30.0959 11.6932L30.8913 11.4943C30.9671 11.7879 31.1103 12.008 31.321 12.1548C31.5341 12.3016 31.8123 12.375 32.1555 12.375C32.5462 12.375 32.8563 12.2921 33.0859 12.1264C33.3179 11.9583 33.4339 11.7571 33.4339 11.5227C33.4339 11.3333 33.3677 11.1747 33.2351 11.0469C33.1025 10.9167 32.8989 10.8196 32.6243 10.7557L31.7152 10.5426C31.2157 10.4242 30.8487 10.2408 30.6143 9.99219C30.3823 9.74124 30.2663 9.42756 30.2663 9.05114C30.2663 8.74337 30.3527 8.47112 30.5256 8.23438C30.7008 7.99763 30.9387 7.81179 31.2393 7.67685C31.5424 7.5419 31.8857 7.47443 32.2692 7.47443C32.8089 7.47443 33.2327 7.5928 33.5405 7.82955C33.8506 8.06629 34.0708 8.37879 34.201 8.76705ZM35.9739 13H35.0506L37.7211 5.72727H38.6301L41.3006 13H40.3773L38.204 6.87784H38.1472L35.9739 13ZM36.3148 10.1591H40.0364V10.9403H36.3148V10.1591ZM42.3198 15.0455V7.54545H43.1294V8.41193H43.2289C43.2904 8.31723 43.3757 8.1965 43.4846 8.04972C43.5958 7.90057 43.7544 7.76799 43.9604 7.65199C44.1687 7.53362 44.4505 7.47443 44.8056 7.47443C45.2649 7.47443 45.6697 7.58925 46.0201 7.81889C46.3704 8.04853 46.6439 8.37405 46.8404 8.79545C47.0369 9.21686 47.1351 9.71402 47.1351 10.2869C47.1351 10.8646 47.0369 11.3653 46.8404 11.7891C46.6439 12.2105 46.3716 12.5372 46.0236 12.7692C45.6756 12.9988 45.2743 13.1136 44.8198 13.1136C44.4694 13.1136 44.1889 13.0556 43.9782 12.9396C43.7675 12.8213 43.6053 12.6875 43.4917 12.5384C43.378 12.3868 43.2904 12.2614 43.2289 12.1619H43.1578V15.0455H42.3198ZM43.1436 10.2727C43.1436 10.6847 43.204 11.0481 43.3248 11.3629C43.4455 11.6754 43.6219 11.9205 43.8539 12.098C44.0859 12.2732 44.37 12.3608 44.7061 12.3608C45.0565 12.3608 45.3489 12.2685 45.5833 12.0838C45.82 11.8968 45.9976 11.6458 46.1159 11.331C46.2367 11.0137 46.2971 10.661 46.2971 10.2727C46.2971 9.8892 46.2379 9.54356 46.1195 9.2358C46.0035 8.92566 45.8271 8.68063 45.5904 8.50071C45.356 8.31842 45.0613 8.22727 44.7061 8.22727C44.3652 8.22727 44.0788 8.31368 43.8468 8.48651C43.6148 8.65696 43.4396 8.89607 43.3212 9.20384C43.2028 9.50923 43.1436 9.86553 43.1436 10.2727ZM48.4135 15.0455V7.54545H49.2232V8.41193H49.3226C49.3842 8.31723 49.4694 8.1965 49.5783 8.04972C49.6896 7.90057 49.8482 7.76799 50.0542 7.65199C50.2625 7.53362 50.5442 7.47443 50.8993 7.47443C51.3586 7.47443 51.7634 7.58925 52.1138 7.81889C52.4642 8.04853 52.7376 8.37405 52.9341 8.79545C53.1306 9.21686 53.2289 9.71402 53.2289 10.2869C53.2289 10.8646 53.1306 11.3653 52.9341 11.7891C52.7376 12.2105 52.4654 12.5372 52.1174 12.7692C51.7694 12.9988 51.3681 13.1136 50.9135 13.1136C50.5632 13.1136 50.2826 13.0556 50.0719 12.9396C49.8612 12.8213 49.699 12.6875 49.5854 12.5384C49.4718 12.3868 49.3842 12.2614 49.3226 12.1619H49.2516V15.0455H48.4135ZM49.2374 10.2727C49.2374 10.6847 49.2978 11.0481 49.4185 11.3629C49.5392 11.6754 49.7156 11.9205 49.9476 12.098C50.1796 12.2732 50.4637 12.3608 50.7999 12.3608C51.1503 12.3608 51.4426 12.2685 51.677 12.0838C51.9138 11.8968 52.0913 11.6458 52.2097 11.331C52.3304 11.0137 52.3908 10.661 52.3908 10.2727C52.3908 9.8892 52.3316 9.54356 52.2132 9.2358C52.0972 8.92566 51.9209 8.68063 51.6841 8.50071C51.4498 8.31842 51.155 8.22727 50.7999 8.22727C50.459 8.22727 50.1725 8.31368 49.9405 8.48651C49.7085 8.65696 49.5333 8.89607 49.415 9.20384C49.2966 9.50923 49.2374 9.86553 49.2374 10.2727Z"
fill="#2DCA72"
/>
<path
d="M4 0.5C2.067 0.5 0.5 2.067 0.5 4V14C0.5 15.933 2.067 17.5 4 17.5H72C73.933 17.5 75.5 15.933 75.5 14V4C75.5 2.067 73.933 0.5 72 0.5H4Z"
stroke="#4ECB71"
/>
</svg>