<svg
width="25"
height="24"
viewBox="0 0 25 24"
fill="none"
xmlns="http://www.w3.org/2000/svg"
>
<path
d="M23.4727 3.75826C23.335 3.03185 23.0665 2.3696 22.6938 1.83747C22.3212 1.30533 21.8574 0.921877 21.3486 0.725281C19.4862 0 11.9904 0 11.9904 0C11.9904 0 4.49416 0.0219538 2.63169 0.747235C2.12295 0.943842 1.65916 1.32732 1.28649 1.85948C0.913832 2.39164 0.645306 3.05391 0.507658 3.78035C-0.0556949 8.50552 -0.27423 15.7056 0.523127 20.2417C0.66079 20.9682 0.929321 21.6304 1.30198 22.1625C1.67464 22.6947 2.13843 23.0781 2.64716 23.2747C4.50963 24 12.0056 24 12.0056 24C12.0056 24 19.5015 24 21.3639 23.2747C21.8727 23.0781 22.3365 22.6947 22.7092 22.1626C23.0818 21.6304 23.3504 20.9682 23.488 20.2417C24.0822 15.5099 24.2653 8.31436 23.4727 3.7584V3.75826Z"
fill="#FF0000"
/>
<path
d="M9.60242 17.0747L15.8195 11.9523L9.60242 6.82986V17.0747Z"
fill="white"
/>
</svg>