<svg
width="54"
height="18"
viewBox="0 0 54 18"
fill="none"
xmlns="http://www.w3.org/2000/svg"
>
<path
d="M41.6992 3.00191C40.7362 3.01354 38.6659 3.17179 37.5079 4.23416C36.6465 5.08766 36.3457 6.34954 36.3105 7.90991C36.2812 9.46466 36.246 12.3844 39.0604 13.1794V14.3903C39.0604 14.3903 39.0427 14.8748 39.363 14.9742C39.7575 15.099 39.9821 14.7263 40.3571 14.3258L41.0565 13.5349C42.9821 13.695 44.457 13.326 44.6269 13.2713C45.0176 13.1464 47.2185 12.8652 47.5781 9.94504C47.9471 6.92929 47.3985 5.02916 46.4081 4.16966H46.4021C46.1032 3.89441 44.9021 3.01916 42.2186 3.00941C42.2186 3.00941 42.0195 2.99591 41.6992 3.00154V3.00191ZM41.7322 3.84979C42.0056 3.84791 42.1717 3.85954 42.1717 3.85954C44.4431 3.86554 45.5272 4.54916 45.783 4.77941C46.617 5.49416 47.0467 7.20716 46.7321 9.72491C46.4332 12.1662 44.6482 12.3207 44.3179 12.426C44.1772 12.471 42.8782 12.7913 41.2417 12.6859C41.2417 12.6859 40.023 14.1567 39.642 14.5354C39.5816 14.6018 39.5111 14.6213 39.4661 14.6115C39.4016 14.5958 39.3821 14.5159 39.3859 14.4064L39.3975 12.3968C37.0106 11.7368 37.1512 9.24641 37.1767 7.94554C37.206 6.64466 37.4501 5.58041 38.1769 4.85966C39.1552 3.97504 40.9132 3.85579 41.7315 3.84979H41.7322ZM41.9122 5.15029C41.8926 5.15009 41.8731 5.15378 41.8549 5.16115C41.8367 5.16852 41.8201 5.17942 41.8061 5.19323C41.7922 5.20703 41.781 5.22347 41.7734 5.24158C41.7659 5.2597 41.7619 5.27914 41.7619 5.29879C41.7619 5.38279 41.8301 5.44916 41.9122 5.44916C42.2841 5.44209 42.6536 5.5087 42.9995 5.64515C43.3455 5.7816 43.661 5.98518 43.9279 6.24416C44.4727 6.77329 44.7382 7.48429 44.7484 8.41391C44.7484 8.49604 44.8147 8.56429 44.8987 8.56429V8.55829C44.9383 8.55839 44.9764 8.54284 45.0045 8.51502C45.0327 8.4872 45.0487 8.44938 45.0491 8.40979C45.0673 7.97222 44.9964 7.53552 44.8406 7.12623C44.6847 6.71693 44.4473 6.3436 44.1427 6.02891C43.5491 5.44879 42.7969 5.14991 41.9122 5.14991V5.15029ZM39.9356 5.49416C39.8295 5.47865 39.7212 5.49996 39.6289 5.55454H39.621C39.4066 5.68022 39.2134 5.83906 39.0487 6.02516C38.9119 6.18341 38.8376 6.34354 38.8181 6.49766C38.8065 6.58954 38.8144 6.68141 38.8417 6.76916L38.8515 6.77516C39.0056 7.22816 39.207 7.66391 39.453 8.07416C39.7699 8.65052 40.1598 9.18355 40.6132 9.66004L40.6267 9.67954L40.6481 9.69529L40.6616 9.71104L40.6774 9.72454C41.1556 10.1793 41.6899 10.5711 42.2674 10.8904C42.9274 11.2497 43.3279 11.4195 43.5682 11.49V11.4938C43.6387 11.5152 43.7029 11.5249 43.7674 11.5249C43.9722 11.5099 44.1662 11.4267 44.3182 11.2887C44.5035 11.1239 44.6606 10.93 44.7832 10.7145V10.7108C44.8984 10.494 44.8594 10.2889 44.6932 10.1502C44.3605 9.85935 44.0008 9.60105 43.6189 9.37879C43.3631 9.24004 43.1032 9.32404 42.9979 9.46466L42.7732 9.74779C42.6581 9.88841 42.4489 9.86891 42.4489 9.86891L42.4429 9.87266C40.8825 9.47404 40.4662 7.89416 40.4662 7.89416C40.4662 7.89416 40.4467 7.67929 40.5911 7.56979L40.8724 7.34329C41.007 7.23379 41.1007 6.97429 40.9564 6.71816C40.7356 6.33572 40.4779 5.97587 40.1869 5.64379C40.1232 5.5655 40.034 5.51223 39.9349 5.49341L39.9356 5.49416ZM42.1717 5.93966C41.9726 5.93966 41.9726 6.24041 42.1736 6.24041C42.4212 6.24443 42.6656 6.2972 42.8928 6.39571C43.12 6.49423 43.3256 6.63655 43.4977 6.81454C43.6548 6.98779 43.7755 7.19081 43.8527 7.41155C43.9298 7.6323 43.9619 7.86629 43.947 8.09966C43.9477 8.13916 43.9638 8.17682 43.9919 8.20457C44.02 8.23233 44.0579 8.24797 44.0974 8.24816L44.1034 8.25604C44.1432 8.25574 44.1812 8.23981 44.2094 8.21167C44.2375 8.18353 44.2534 8.14545 44.2537 8.10566C44.2672 7.50979 44.082 7.00991 43.7186 6.60941C43.3534 6.20891 42.8437 5.98429 42.1931 5.93966H42.1717ZM42.4181 6.74816C42.213 6.74216 42.2051 7.04891 42.4084 7.05491C42.9026 7.08041 43.1426 7.33016 43.1741 7.84391C43.1748 7.88291 43.1907 7.92009 43.2185 7.94749C43.2462 7.9749 43.2836 7.99035 43.3226 7.99054H43.3286C43.3487 7.98968 43.3683 7.98483 43.3865 7.97629C43.4047 7.96774 43.4209 7.95566 43.4344 7.94075C43.4478 7.92585 43.4582 7.90841 43.4648 7.88947C43.4714 7.87052 43.4742 7.85045 43.473 7.83041C43.4377 7.16066 43.0725 6.78341 42.4241 6.74854H42.4181V6.74816Z"
fill="#005F94"
/>
<path
d="M7.17898 5.72727L9.33807 11.8494H9.4233L11.5824 5.72727H12.5057L9.83523 13H8.92614L6.25568 5.72727H7.17898ZM13.5249 13V7.54545H14.3629V13H13.5249ZM13.951 6.63636C13.7876 6.63636 13.6468 6.58073 13.5284 6.46946C13.4124 6.35819 13.3544 6.22443 13.3544 6.06818C13.3544 5.91193 13.4124 5.77817 13.5284 5.6669C13.6468 5.55563 13.7876 5.5 13.951 5.5C14.1143 5.5 14.254 5.55563 14.37 5.6669C14.4884 5.77817 14.5476 5.91193 14.5476 6.06818C14.5476 6.22443 14.4884 6.35819 14.37 6.46946C14.254 6.58073 14.1143 6.63636 13.951 6.63636ZM16.0115 13V5.72727H16.8496V8.41193H16.9206C16.9822 8.31723 17.0674 8.1965 17.1763 8.04972C17.2876 7.90057 17.4462 7.76799 17.6522 7.65199C17.8605 7.53362 18.1422 7.47443 18.4973 7.47443C18.9566 7.47443 19.3614 7.58925 19.7118 7.81889C20.0622 8.04853 20.3356 8.37405 20.5321 8.79545C20.7286 9.21686 20.8269 9.71402 20.8269 10.2869C20.8269 10.8646 20.7286 11.3653 20.5321 11.7891C20.3356 12.2105 20.0634 12.5372 19.7154 12.7692C19.3674 12.9988 18.9661 13.1136 18.5115 13.1136C18.1612 13.1136 17.8806 13.0556 17.6699 12.9396C17.4592 12.8213 17.2971 12.6875 17.1834 12.5384C17.0698 12.3868 16.9822 12.2614 16.9206 12.1619H16.8212V13H16.0115ZM16.8354 10.2727C16.8354 10.6847 16.8958 11.0481 17.0165 11.3629C17.1373 11.6754 17.3136 11.9205 17.5456 12.098C17.7776 12.2732 18.0617 12.3608 18.3979 12.3608C18.7483 12.3608 19.0407 12.2685 19.275 12.0838C19.5118 11.8968 19.6893 11.6458 19.8077 11.331C19.9284 11.0137 19.9888 10.661 19.9888 10.2727C19.9888 9.8892 19.9296 9.54356 19.8113 9.2358C19.6953 8.92566 19.5189 8.68063 19.2821 8.50071C19.0478 8.31842 18.753 8.22727 18.3979 8.22727C18.057 8.22727 17.7705 8.31368 17.5385 8.48651C17.3065 8.65696 17.1313 8.89607 17.013 9.20384C16.8946 9.50923 16.8354 9.86553 16.8354 10.2727ZM24.3958 13.1136C23.8702 13.1136 23.4168 12.9976 23.0357 12.7656C22.6569 12.5312 22.3645 12.2045 22.1586 11.7855C21.955 11.3641 21.8532 10.8741 21.8532 10.3153C21.8532 9.75663 21.955 9.2642 22.1586 8.83807C22.3645 8.40956 22.651 8.07576 23.0179 7.83665C23.3873 7.59517 23.8181 7.47443 24.3105 7.47443C24.5946 7.47443 24.8752 7.52178 25.1522 7.61648C25.4292 7.71117 25.6813 7.86506 25.9086 8.07812C26.1358 8.28883 26.3169 8.56818 26.4519 8.91619C26.5868 9.2642 26.6543 9.69271 26.6543 10.2017V10.5568H22.4498V9.83239H25.802C25.802 9.52462 25.7405 9.25 25.6174 9.00852C25.4966 8.76705 25.3238 8.57647 25.0989 8.43679C24.8764 8.29711 24.6136 8.22727 24.3105 8.22727C23.9767 8.22727 23.6879 8.31013 23.4441 8.47585C23.2026 8.6392 23.0167 8.85227 22.8865 9.11506C22.7563 9.37784 22.6912 9.65956 22.6912 9.96023V10.4432C22.6912 10.8551 22.7623 11.2043 22.9043 11.4908C23.0487 11.7749 23.2488 11.9915 23.5044 12.1406C23.7601 12.2874 24.0572 12.3608 24.3958 12.3608C24.6159 12.3608 24.8148 12.33 24.9924 12.2685C25.1723 12.2045 25.3274 12.1098 25.4576 11.9844C25.5878 11.8565 25.6884 11.6979 25.7594 11.5085L26.5691 11.7358C26.4838 12.0104 26.3406 12.2519 26.1394 12.4602C25.9382 12.6662 25.6896 12.8272 25.3936 12.9432C25.0977 13.0568 24.7651 13.1136 24.3958 13.1136ZM27.9292 13V7.54545H28.7388V8.36932H28.7956C28.8951 8.09943 29.075 7.88045 29.3354 7.71236C29.5958 7.54427 29.8894 7.46023 30.2161 7.46023C30.2776 7.46023 30.3546 7.46141 30.4469 7.46378C30.5392 7.46615 30.6091 7.4697 30.6564 7.47443V8.3267C30.628 8.3196 30.5629 8.30895 30.4611 8.29474C30.3617 8.27817 30.2563 8.26989 30.1451 8.26989C29.8799 8.26989 29.6432 8.32552 29.4348 8.43679C29.2289 8.54569 29.0655 8.69721 28.9448 8.89134C28.8264 9.0831 28.7672 9.30208 28.7672 9.5483V13H27.9292Z"
fill="#005F94"
/>
<path
d="M4 0.5C2.067 0.5 0.5 2.067 0.5 4V14C0.5 15.933 2.067 17.5 4 17.5H50C51.933 17.5 53.5 15.933 53.5 14V4C53.5 2.067 51.933 0.5 50 0.5H4Z"
stroke="#005F94"
/>
</svg>