<?xml version="1.0" encoding="UTF-8" ?>
<!DOCTYPE svg PUBLIC "-//W3C//DTD SVG 1.1//EN" "http://www.w3.org/Graphics/SVG/1.1/DTD/svg11.dtd">
<svg width="1609pt" height="710pt" viewBox="0 0 1609 710" version="1.1" xmlns="http://www.w3.org/2000/svg">
<g id="#ffffffff">
<path fill="#ffffff" opacity="1.00" d=" M 0.00 0.00 L 1044.31 0.00 C 1043.45 13.21 1047.60 27.37 1057.58 36.48 C 1065.54 43.75 1076.35 46.74 1086.81 48.12 C 1099.33 49.62 1112.11 49.53 1124.55 47.30 C 1134.57 45.44 1144.73 41.45 1151.48 33.51 C 1159.59 24.43 1162.27 11.87 1162.11 0.00 L 1609.00 0.00 L 1609.00 710.00 L 0.00 710.00 L 0.00 0.00 M 312.37 27.83 C 309.99 40.97 305.79 53.73 301.32 66.29 C 296.87 76.50 292.97 87.06 286.97 96.49 C 279.52 88.85 274.10 79.51 268.74 70.35 C 261.55 58.01 256.49 44.62 252.03 31.10 C 242.49 33.01 232.97 35.15 223.68 38.07 C 196.75 46.38 170.81 59.43 150.16 78.87 C 142.34 86.11 135.50 94.74 130.04 103.98 C 121.11 119.61 116.90 138.19 119.87 156.07 C 120.77 160.50 121.95 164.91 123.85 169.03 C 129.23 181.55 139.96 191.10 151.99 197.10 C 153.17 197.38 154.55 198.85 155.72 197.91 C 158.52 194.82 160.60 191.16 162.79 187.63 C 169.95 175.15 171.54 160.18 168.90 146.18 C 177.17 142.02 184.95 136.90 191.99 130.89 C 200.60 123.24 207.62 113.94 213.30 103.96 C 224.48 114.13 233.65 126.60 239.41 140.61 C 241.23 144.91 242.40 149.43 244.06 153.79 L 243.88 153.95 C 232.34 165.93 218.83 175.80 205.18 185.22 C 194.45 192.50 182.63 197.90 171.31 204.15 C 184.63 208.16 198.62 208.87 212.36 210.45 C 221.80 211.25 231.26 211.80 240.70 212.66 C 248.76 212.68 256.79 214.48 264.75 214.76 C 269.09 216.06 273.58 216.76 277.96 217.92 C 288.95 220.71 299.48 225.11 309.37 230.63 C 313.94 233.07 318.21 236.04 322.86 238.35 C 321.87 225.38 320.86 212.18 323.14 199.30 C 336.49 198.67 349.87 199.68 363.02 201.98 C 368.64 203.15 374.10 204.98 379.76 205.98 C 380.47 205.18 381.19 204.39 381.92 203.60 C 381.94 204.31 381.97 205.74 381.99 206.45 C 381.41 207.59 380.31 208.58 380.36 209.94 C 380.42 217.31 380.14 224.73 381.32 232.04 C 383.27 247.70 389.60 262.56 398.22 275.68 C 399.25 276.92 400.12 278.84 402.00 278.84 C 409.18 279.32 416.52 278.69 423.41 276.51 C 435.47 272.84 445.17 263.76 451.67 253.17 C 454.06 248.90 456.22 244.49 457.94 239.91 C 467.19 214.88 467.47 187.57 465.35 161.28 C 464.39 148.15 463.19 134.62 457.26 122.65 C 454.48 121.90 451.69 123.39 449.03 124.07 C 436.75 128.35 424.94 134.53 415.17 143.20 C 409.13 148.97 402.68 154.65 398.54 162.02 C 398.32 162.06 397.87 162.14 397.65 162.18 C 393.89 161.11 390.03 160.42 386.22 159.57 C 370.29 155.85 354.96 149.73 340.65 141.83 C 349.82 121.12 365.47 104.05 382.06 88.96 L 382.28 88.82 C 396.28 96.92 412.90 99.94 428.95 98.97 C 433.96 98.59 439.06 98.16 443.76 96.22 C 436.46 85.10 427.79 74.77 417.46 66.34 C 394.33 48.22 366.52 36.63 337.78 31.04 C 329.46 29.07 320.92 27.88 312.37 27.83 M 64.61 100.52 C 30.81 139.95 8.83 189.37 2.36 240.91 C 1.64 247.93 0.32 254.97 1.00 262.06 C 0.94 273.02 1.24 284.00 0.76 294.96 C 2.73 319.83 7.81 344.50 16.43 367.93 C 35.50 420.53 71.55 466.72 117.79 498.18 C 147.10 518.28 180.47 532.31 215.25 539.53 C 226.70 527.10 237.66 513.66 243.67 497.66 C 247.22 489.21 248.30 480.02 249.04 470.97 C 249.55 458.62 247.96 446.33 248.35 433.98 C 226.98 439.26 205.13 442.79 183.09 443.06 C 173.18 442.71 162.71 442.22 154.02 436.88 C 149.03 433.50 145.89 428.14 143.05 422.97 C 138.69 414.89 137.35 405.71 135.36 396.88 C 134.26 391.60 129.92 387.72 125.01 385.95 C 121.79 384.42 117.46 384.93 115.00 382.04 C 112.93 378.14 114.26 373.54 114.64 369.38 C 110.26 369.14 105.01 369.80 101.50 366.65 C 98.55 358.21 102.38 349.45 103.08 340.95 C 103.33 337.57 102.89 333.28 99.56 331.48 C 94.34 328.63 87.67 328.16 83.72 323.24 C 79.12 318.76 79.68 311.54 82.21 306.14 C 86.41 297.04 93.00 289.26 96.95 280.03 C 101.34 271.57 102.33 261.25 98.69 252.34 C 93.34 238.55 87.68 224.67 85.79 209.89 C 84.06 201.37 83.78 192.68 83.23 184.03 C 83.25 176.33 82.41 168.65 83.18 160.96 C 82.89 150.57 83.93 140.22 85.21 129.93 C 88.34 111.40 95.42 93.50 106.08 78.01 C 113.43 66.64 123.04 56.98 132.98 47.89 C 139.69 42.18 147.00 37.26 154.07 32.03 C 119.77 48.02 89.20 71.79 64.61 100.52 M 1508.61 58.79 C 1491.71 60.42 1475.00 66.83 1462.50 78.53 C 1449.30 90.47 1441.77 107.51 1438.68 124.81 C 1435.51 141.01 1436.55 157.57 1436.38 173.97 C 1436.23 186.17 1437.01 198.42 1439.41 210.40 C 1442.68 226.66 1449.41 242.81 1461.59 254.43 C 1473.62 266.50 1490.09 273.43 1506.88 275.38 C 1524.09 277.38 1542.09 276.07 1558.15 269.19 C 1574.13 262.35 1587.47 249.52 1594.72 233.69 C 1604.61 212.63 1605.69 188.84 1605.25 165.96 C 1605.60 145.87 1605.31 125.17 1597.78 106.23 C 1591.64 89.92 1579.52 75.92 1564.05 67.84 C 1547.16 58.89 1527.39 56.96 1508.61 58.79 M 616.01 60.89 C 615.98 131.75 616.01 202.61 616.00 273.46 C 630.63 273.52 645.27 273.55 659.91 273.45 C 659.83 243.17 659.89 212.90 659.88 182.62 C 685.96 182.63 712.04 182.61 738.13 182.63 C 738.11 212.91 738.15 243.19 738.10 273.47 C 752.74 273.53 767.37 273.52 782.00 273.47 C 781.99 202.61 782.02 131.75 781.98 60.90 C 767.36 60.86 752.74 60.87 738.13 60.89 C 738.05 89.15 738.27 117.41 738.02 145.66 C 712.02 145.60 686.01 145.59 660.01 145.67 C 659.69 117.41 659.97 89.15 659.87 60.89 C 645.25 60.87 630.63 60.86 616.01 60.89 M 836.22 60.98 C 836.40 131.85 835.99 202.73 836.43 273.59 C 882.45 273.42 928.48 273.48 974.51 273.57 C 974.79 261.39 974.49 249.21 974.66 237.03 C 943.16 236.68 911.64 236.97 880.13 236.88 C 880.11 218.80 880.15 200.72 880.11 182.64 C 907.88 182.52 935.66 182.78 963.43 182.51 C 963.30 170.22 963.42 157.92 963.37 145.63 C 935.63 145.63 907.89 145.59 880.16 145.65 C 880.05 129.62 880.20 113.59 880.08 97.55 C 911.58 97.43 943.09 97.54 974.59 97.50 C 974.68 85.34 974.56 73.18 974.66 61.02 C 958.41 60.69 942.16 60.97 925.92 60.88 C 896.02 60.94 866.12 60.74 836.22 60.98 M 1018.63 60.88 C 1018.59 131.73 1018.66 202.59 1018.60 273.44 C 1032.06 273.60 1045.52 273.42 1058.99 273.54 C 1060.06 273.31 1061.81 273.94 1062.46 272.71 C 1089.68 225.96 1116.32 178.86 1143.72 132.22 C 1143.81 178.85 1143.70 225.48 1143.77 272.10 C 1143.30 274.07 1145.92 273.32 1146.98 273.54 C 1160.48 273.45 1173.98 273.53 1187.49 273.49 C 1187.56 202.68 1187.40 131.88 1187.57 61.08 C 1172.77 60.63 1157.96 60.97 1143.16 60.90 C 1116.26 107.96 1089.65 155.19 1062.48 202.09 C 1062.52 155.02 1062.52 107.95 1062.48 60.88 C 1047.86 60.87 1033.25 60.88 1018.63 60.88 M 1241.89 60.89 C 1241.86 131.75 1241.88 202.62 1241.88 273.48 C 1256.46 273.58 1271.03 273.38 1285.61 273.59 C 1285.94 250.02 1285.65 226.44 1285.76 202.87 C 1309.49 202.34 1333.90 205.05 1356.91 197.77 C 1370.84 193.57 1383.54 184.86 1391.54 172.58 C 1402.23 156.58 1404.29 136.29 1401.62 117.61 C 1399.02 99.57 1388.56 82.58 1372.84 73.13 C 1357.04 63.57 1338.13 61.10 1319.99 60.89 C 1293.96 60.86 1267.92 60.87 1241.89 60.89 M 493.98 126.87 C 496.38 141.45 498.39 156.20 498.20 171.02 C 498.25 175.99 499.21 180.94 498.75 185.93 C 497.81 194.41 498.52 202.98 497.22 211.44 C 493.96 245.29 482.49 279.10 460.36 305.36 C 447.63 320.69 432.06 333.33 415.88 344.83 C 408.58 350.78 400.35 356.16 395.44 364.44 C 392.51 369.82 393.59 376.25 394.67 381.99 C 397.91 395.74 403.69 408.71 409.42 421.57 C 419.21 442.71 429.62 463.57 438.64 485.06 C 477.74 453.42 507.81 410.70 524.05 363.08 C 537.66 323.69 541.63 281.14 536.26 239.86 C 530.99 199.64 516.45 160.64 493.98 126.87 M 1487.83 346.78 C 1475.20 361.32 1471.23 381.24 1471.00 400.00 C 1471.18 412.65 1470.48 425.33 1471.71 437.94 C 1473.41 455.46 1478.75 473.77 1491.81 486.28 C 1503.36 497.91 1519.82 503.49 1535.97 504.02 C 1553.19 504.65 1571.87 501.89 1585.38 490.32 C 1598.51 479.16 1604.65 462.04 1606.62 445.34 C 1594.61 445.15 1582.59 445.27 1570.59 445.28 C 1568.99 452.77 1566.51 460.47 1561.17 466.17 C 1556.26 471.40 1548.77 472.88 1541.89 473.11 C 1534.32 473.31 1526.17 471.94 1520.25 466.86 C 1514.35 461.85 1511.32 454.38 1509.47 447.05 C 1506.09 433.61 1507.18 419.66 1507.00 405.95 C 1506.86 394.83 1507.29 383.27 1511.96 372.98 C 1516.04 363.90 1525.26 357.65 1535.11 356.66 C 1543.39 355.84 1552.57 356.45 1559.48 361.60 C 1566.04 366.73 1569.06 374.97 1570.61 382.90 C 1582.57 382.86 1594.53 382.84 1606.49 382.91 C 1604.87 366.40 1598.40 349.46 1585.09 338.89 C 1570.08 326.82 1549.76 324.18 1531.11 325.79 C 1514.76 327.10 1498.56 334.14 1487.83 346.78 M 611.88 327.63 C 611.88 385.71 611.85 443.79 611.90 501.88 C 633.26 501.86 654.62 501.89 675.98 501.86 C 690.78 501.77 706.06 499.53 719.04 492.01 C 730.96 485.31 739.59 473.29 742.28 459.90 C 745.28 445.02 743.72 428.60 735.40 415.61 C 728.35 404.55 716.50 397.41 704.07 393.94 C 685.80 388.68 666.61 390.83 647.87 390.37 C 647.87 379.46 647.87 368.54 647.87 357.63 C 674.69 357.53 701.51 357.81 728.31 357.49 C 728.17 347.54 728.28 337.59 728.25 327.64 C 689.46 327.61 650.67 327.64 611.88 327.63 M 822.97 327.64 C 802.84 385.72 782.59 443.77 762.53 501.87 C 774.95 501.86 787.37 501.90 799.79 501.86 C 803.69 490.35 807.74 478.90 811.64 467.40 C 831.38 467.32 851.11 467.42 870.84 467.35 C 874.80 478.80 878.68 490.29 882.48 501.80 C 895.34 501.96 908.19 501.83 921.05 501.87 C 901.11 444.22 881.06 386.60 861.05 328.97 C 860.81 326.95 858.37 327.83 857.06 327.59 C 845.70 327.68 834.33 327.59 822.97 327.64 M 965.10 418.98 C 964.29 432.34 964.48 446.71 957.46 458.59 C 953.33 465.68 944.86 467.84 937.34 469.06 C 937.40 480.71 937.39 492.36 937.34 504.01 C 951.78 503.48 967.61 500.92 978.43 490.48 C 988.95 480.14 993.17 465.32 995.57 451.18 C 1000.42 420.24 998.46 388.82 998.87 357.64 C 1015.28 357.60 1031.70 357.64 1048.13 357.63 C 1048.13 405.71 1048.11 453.79 1048.14 501.87 C 1060.12 501.87 1072.11 501.89 1084.11 501.86 C 1084.15 443.78 1084.12 385.71 1084.12 327.63 C 1044.57 327.59 1005.02 327.70 965.48 327.57 C 965.07 358.04 965.78 388.52 965.10 418.98 M 1111.08 501.71 C 1123.56 502.00 1136.05 501.94 1148.53 501.74 C 1152.27 490.22 1156.36 478.81 1160.32 467.35 C 1180.06 467.42 1199.80 467.33 1219.54 467.40 C 1223.36 478.90 1227.32 490.36 1231.15 501.86 C 1243.95 501.91 1256.76 501.82 1269.57 501.91 C 1264.32 485.87 1258.54 470.02 1253.10 454.05 C 1238.44 411.91 1223.85 369.75 1209.18 327.62 C 1196.68 327.61 1184.18 327.69 1171.69 327.57 C 1151.32 385.56 1131.42 443.71 1111.08 501.71 M 1296.63 327.63 C 1296.65 385.72 1296.57 443.81 1296.67 501.90 C 1308.66 501.82 1320.65 501.94 1332.65 501.83 C 1332.56 477.04 1332.71 452.25 1332.57 427.47 C 1353.96 427.24 1375.35 427.45 1396.74 427.36 C 1396.77 452.20 1396.72 477.04 1396.76 501.87 C 1408.75 501.86 1420.74 501.91 1432.74 501.85 C 1432.79 443.80 1432.69 385.76 1432.79 327.72 C 1420.78 327.52 1408.76 327.67 1396.75 327.63 C 1396.76 350.77 1396.72 373.91 1396.77 397.06 C 1375.39 397.22 1354.01 397.08 1332.63 397.12 C 1332.56 373.94 1332.75 350.76 1332.53 327.58 C 1320.56 327.69 1308.59 327.59 1296.63 327.63 M 601.48 629.66 C 594.33 631.27 588.10 636.47 585.36 643.28 C 582.11 650.77 582.79 659.09 582.74 667.04 C 582.74 675.16 584.15 683.95 589.74 690.21 C 594.98 696.18 603.26 698.49 610.99 698.00 C 618.92 697.88 627.00 694.10 631.20 687.19 C 636.41 678.79 636.05 668.50 636.00 658.99 C 636.00 650.75 634.38 641.74 628.24 635.75 C 621.37 628.84 610.62 627.59 601.48 629.66 M 787.47 629.58 C 782.45 630.73 777.75 633.47 774.50 637.49 C 769.41 643.76 768.28 652.17 768.36 660.00 C 768.28 669.34 768.12 679.46 773.41 687.61 C 778.18 695.08 787.39 698.51 796.00 698.03 C 804.49 698.12 813.17 693.94 817.38 686.39 C 822.44 677.48 821.62 666.90 821.61 657.05 C 821.50 649.01 819.31 640.34 813.03 634.88 C 806.18 628.77 796.15 627.73 787.47 629.58 M 15.63 629.63 C 15.63 652.13 15.62 674.62 15.63 697.12 C 20.31 697.12 24.99 697.19 29.67 697.02 C 29.56 687.52 29.68 678.03 29.60 668.53 C 31.49 668.51 33.37 668.50 35.25 668.50 C 41.21 678.04 47.32 687.49 53.21 697.06 C 58.73 697.17 64.26 697.13 69.78 697.09 C 62.30 685.28 54.56 673.64 46.90 661.95 C 53.81 651.11 61.13 640.54 67.91 629.63 C 62.65 629.62 57.39 629.59 52.13 629.67 C 46.66 638.71 40.84 647.53 35.40 656.59 C 33.45 656.60 31.51 656.56 29.56 656.55 C 29.64 647.56 29.72 638.56 29.52 629.58 C 24.89 629.65 20.26 629.62 15.63 629.63 M 85.75 629.63 C 85.71 640.69 85.82 651.74 85.70 662.80 C 85.39 668.56 85.68 674.71 82.93 679.98 C 81.45 682.97 77.99 683.76 75.03 684.42 C 74.98 688.98 74.99 693.55 75.01 698.11 C 80.12 697.70 85.62 697.08 89.78 693.79 C 94.24 690.22 96.17 684.55 97.23 679.14 C 99.54 666.87 98.41 654.34 98.84 641.95 L 99.26 641.60 C 105.30 641.34 111.37 641.52 117.42 641.58 C 117.29 660.06 117.45 678.54 117.34 697.02 C 122.01 697.19 126.69 697.12 131.36 697.12 C 131.38 674.62 131.37 652.12 131.37 629.62 C 116.16 629.63 100.96 629.62 85.75 629.63 M 148.22 629.68 C 148.27 652.14 148.27 674.59 148.23 697.05 C 152.87 697.17 157.52 697.12 162.16 697.12 C 170.67 682.38 178.92 667.48 187.62 652.85 C 187.64 667.61 187.62 682.37 187.63 697.13 C 192.25 697.12 196.87 697.12 201.50 697.13 C 201.50 674.62 201.50 652.12 201.50 629.62 C 196.77 629.63 192.04 629.57 187.31 629.71 C 179.06 644.46 170.88 659.25 162.28 673.79 C 162.21 659.08 162.27 644.36 162.25 629.64 C 157.57 629.61 152.90 629.59 148.22 629.68 M 218.51 629.62 C 218.49 652.12 218.49 674.62 218.51 697.13 C 223.18 697.12 227.86 697.19 232.53 697.02 C 232.43 687.50 232.58 677.97 232.45 668.45 C 240.54 668.27 248.64 668.42 256.74 668.37 C 256.76 677.95 256.74 687.53 256.75 697.12 C 261.42 697.13 266.09 697.15 270.76 697.07 C 270.75 674.60 270.72 652.14 270.78 629.67 C 266.10 629.60 261.43 629.62 256.75 629.64 C 256.67 638.62 256.92 647.61 256.61 656.59 C 248.58 656.41 240.54 656.53 232.50 656.51 C 232.45 647.53 232.60 638.56 232.42 629.59 C 227.78 629.64 223.15 629.63 218.51 629.62 M 287.63 629.63 C 287.62 652.13 287.62 674.62 287.63 697.12 C 292.32 697.10 297.02 697.25 301.71 696.95 C 309.93 682.21 318.35 667.57 326.84 652.99 C 326.92 667.70 326.85 682.41 326.88 697.12 C 331.54 697.12 336.21 697.13 340.88 697.11 C 340.87 674.62 340.87 652.13 340.88 629.64 C 336.20 629.61 331.52 629.64 326.84 629.61 C 318.33 644.09 310.64 659.07 301.73 673.29 C 301.42 658.72 301.84 644.14 301.51 629.57 C 296.88 629.65 292.26 629.63 287.63 629.63 M 357.75 629.64 C 357.74 652.13 357.75 674.62 357.75 697.12 C 362.42 697.13 367.10 697.16 371.77 697.06 C 371.71 687.55 371.77 678.05 371.74 668.54 C 373.56 668.50 375.38 668.46 377.21 668.40 C 383.39 677.82 389.38 687.37 395.28 696.97 C 400.82 697.26 406.37 697.09 411.92 697.11 C 404.51 685.26 396.70 673.65 389.06 661.94 C 395.96 651.10 403.32 640.55 410.07 629.62 C 404.92 629.59 399.77 629.72 394.63 629.53 C 388.68 638.41 383.19 647.59 377.49 656.64 C 375.54 656.63 373.60 656.53 371.67 656.49 C 371.85 647.55 371.68 638.61 371.77 629.67 C 367.10 629.60 362.42 629.62 357.75 629.64 M 417.47 697.12 C 422.29 697.13 427.11 697.12 431.94 697.13 C 433.53 692.64 434.90 688.08 436.69 683.67 C 444.13 683.85 451.57 683.68 459.01 683.77 C 460.42 688.19 462.01 692.54 463.36 696.98 C 468.39 697.24 473.43 697.10 478.46 697.11 C 470.70 674.62 463.01 652.09 455.18 629.61 C 450.35 629.63 445.52 629.64 440.70 629.60 C 432.92 652.09 425.14 674.59 417.47 697.12 M 521.98 664.11 C 521.45 671.46 519.92 678.88 516.08 685.26 C 513.72 685.24 511.38 685.23 509.04 685.23 C 508.96 693.15 509.02 701.07 509.00 708.99 C 513.20 708.99 517.40 708.99 521.60 709.00 C 521.64 705.06 521.64 701.12 521.59 697.19 C 535.05 697.03 548.51 697.19 561.98 697.10 C 562.00 701.06 562.00 705.03 562.00 708.99 C 566.25 708.99 570.50 709.00 574.76 708.98 C 574.73 701.07 574.77 693.15 574.74 685.24 C 571.98 685.24 569.23 685.25 566.49 685.31 C 566.22 666.75 566.45 648.19 566.37 629.63 C 551.77 629.59 537.17 629.68 522.57 629.59 C 522.35 641.09 522.76 652.62 521.98 664.11 M 650.49 629.63 C 650.51 652.12 650.49 674.62 650.50 697.12 C 655.18 697.11 659.87 697.24 664.55 696.96 C 664.43 687.47 664.54 677.99 664.49 668.51 C 666.34 668.49 668.20 668.49 670.07 668.49 C 676.10 678.03 682.11 687.58 688.15 697.12 C 693.66 697.12 699.17 697.15 704.69 697.09 C 697.10 685.32 689.39 673.63 681.74 661.90 C 688.72 651.12 695.88 640.46 702.83 629.66 C 697.55 629.60 692.28 629.60 687.01 629.66 C 681.48 638.67 675.72 647.54 670.23 656.57 C 668.31 656.60 666.40 656.61 664.50 656.63 C 664.50 647.63 664.51 638.63 664.49 629.63 C 659.82 629.62 655.16 629.63 650.49 629.63 M 708.87 629.63 C 708.87 633.58 708.87 637.54 708.87 641.49 C 715.22 641.48 721.57 641.55 727.92 641.45 C 728.11 660.00 727.94 678.57 728.00 697.13 C 732.62 697.12 737.25 697.12 741.87 697.13 C 741.98 678.57 741.65 660.00 742.04 641.45 C 748.36 641.55 754.68 641.48 761.00 641.50 C 760.99 637.54 761.00 633.59 761.00 629.64 C 743.62 629.62 726.25 629.63 708.87 629.63 M 836.11 629.65 C 836.14 652.14 836.12 674.63 836.12 697.12 C 840.79 697.13 845.45 697.12 850.13 697.13 C 850.12 689.67 850.13 682.21 850.12 674.76 C 858.00 674.52 866.21 675.65 873.76 672.74 C 880.12 670.51 884.98 664.75 886.28 658.16 C 887.84 650.56 886.59 641.77 880.83 636.16 C 875.63 631.02 867.97 629.72 860.94 629.64 C 852.66 629.61 844.39 629.61 836.11 629.65 M 911.21 629.71 C 903.66 652.20 895.79 674.59 888.10 697.04 C 892.96 697.16 897.83 697.20 902.70 697.01 C 904.11 692.58 905.69 688.20 907.13 683.77 C 914.66 683.75 922.19 683.69 929.72 683.81 C 931.10 688.25 932.64 692.65 934.07 697.09 C 939.08 697.15 944.09 697.12 949.10 697.12 C 941.43 674.62 933.58 652.19 925.95 629.68 C 921.03 629.60 916.12 629.57 911.21 629.71 M 985.26 633.26 C 985.23 654.53 985.28 675.79 985.23 697.06 C 999.04 697.14 1012.85 697.21 1026.66 697.03 C 1026.61 693.34 1026.61 689.66 1026.66 685.98 C 1017.26 685.71 1007.86 686.00 998.46 685.82 C 998.52 680.55 998.52 675.29 998.45 670.03 C 1006.71 669.69 1014.97 669.94 1023.24 669.88 C 1023.25 666.13 1023.25 662.38 1023.25 658.64 C 1014.98 658.57 1006.71 658.72 998.45 658.55 C 998.53 653.86 998.51 649.18 998.48 644.50 C 1007.86 644.49 1017.24 644.50 1026.62 644.50 C 1026.62 640.75 1026.62 637.01 1026.62 633.27 C 1012.83 633.23 999.05 633.26 985.26 633.26 M 1039.60 633.19 C 1039.37 654.50 1039.56 675.82 1039.50 697.13 C 1048.00 697.11 1056.51 697.13 1065.01 697.13 C 1071.17 697.08 1077.73 695.77 1082.52 691.65 C 1087.99 686.94 1089.00 678.68 1086.79 672.12 C 1085.48 668.21 1081.99 665.67 1078.51 663.82 C 1081.31 661.49 1084.20 658.88 1085.27 655.25 C 1086.88 649.61 1085.80 642.81 1081.31 638.75 C 1076.91 634.75 1070.78 633.52 1065.01 633.31 C 1056.54 633.13 1048.07 633.36 1039.60 633.19 M 1107.70 633.22 C 1107.45 643.17 1107.88 653.13 1107.39 663.08 C 1107.06 670.92 1105.70 678.90 1101.75 685.81 C 1099.45 685.85 1097.16 685.87 1094.88 685.90 C 1094.87 693.55 1094.87 701.21 1094.87 708.87 C 1098.87 708.87 1102.87 708.87 1106.87 708.88 C 1106.86 704.95 1106.86 701.03 1106.90 697.12 C 1119.63 697.13 1132.36 697.13 1145.09 697.11 C 1145.13 701.03 1145.13 704.95 1145.12 708.87 C 1149.12 708.87 1153.12 708.87 1157.13 708.87 C 1157.12 701.21 1157.13 693.54 1157.12 685.88 C 1154.48 685.87 1151.86 685.86 1149.24 685.86 C 1149.19 668.31 1149.39 650.75 1149.14 633.20 C 1135.32 633.29 1121.51 633.27 1107.70 633.22 M 1181.43 633.54 C 1171.45 636.10 1165.39 646.12 1164.97 655.99 C 1164.68 665.92 1163.75 676.50 1168.14 685.75 C 1171.68 693.25 1179.82 697.81 1187.99 697.98 C 1196.14 698.64 1205.03 695.85 1209.90 688.96 C 1215.66 680.90 1215.33 670.50 1215.26 661.05 C 1215.29 653.25 1213.75 644.75 1207.99 639.06 C 1201.16 632.23 1190.39 631.13 1181.43 633.54 M 1229.04 633.22 C 1228.95 654.52 1229.02 675.82 1229.00 697.13 C 1233.41 697.12 1237.83 697.12 1242.25 697.12 C 1242.24 688.12 1242.26 679.12 1242.24 670.12 C 1244.03 670.12 1245.85 670.15 1247.67 670.20 C 1253.28 679.25 1258.98 688.26 1264.80 697.19 C 1269.97 697.07 1275.14 697.16 1280.32 697.09 C 1273.16 685.98 1265.87 674.95 1258.59 663.92 C 1265.05 653.63 1272.20 643.76 1278.34 633.27 C 1273.41 633.23 1268.49 633.23 1263.57 633.30 C 1258.35 641.84 1252.88 650.23 1247.72 658.81 C 1245.88 658.84 1244.05 658.86 1242.24 658.88 C 1242.24 650.33 1242.29 641.78 1242.21 633.24 C 1237.81 633.26 1233.42 633.26 1229.04 633.22 M 1290.91 633.25 C 1290.83 654.54 1290.89 675.83 1290.88 697.13 C 1295.25 697.12 1299.63 697.11 1304.02 697.14 C 1312.07 683.35 1319.73 669.32 1327.98 655.65 C 1328.32 669.47 1328.03 683.29 1328.12 697.11 C 1332.53 697.13 1336.95 697.12 1341.37 697.12 C 1341.34 675.82 1341.43 654.53 1341.33 633.23 C 1336.91 633.26 1332.51 633.27 1328.11 633.21 C 1320.01 647.13 1312.27 661.26 1304.19 675.20 C 1304.02 661.21 1304.21 647.23 1304.09 633.24 C 1299.69 633.25 1295.30 633.25 1290.91 633.25 M 1357.37 633.27 C 1357.36 654.52 1357.42 675.77 1357.34 697.02 C 1361.55 697.17 1365.77 697.15 1370.00 697.11 C 1370.08 683.64 1369.83 670.16 1370.13 656.70 C 1374.68 665.59 1378.79 674.71 1383.25 683.65 C 1386.40 683.62 1389.55 683.62 1392.71 683.63 C 1397.15 674.62 1401.32 665.49 1405.88 656.55 C 1406.15 670.06 1405.92 683.59 1406.00 697.12 C 1410.22 697.14 1414.45 697.19 1418.67 696.99 C 1418.56 675.75 1418.65 654.51 1418.63 633.28 C 1414.44 633.24 1410.25 633.25 1406.07 633.24 C 1400.19 645.19 1394.20 657.09 1388.46 669.11 C 1382.25 657.32 1376.56 645.25 1370.68 633.29 C 1366.23 633.22 1361.80 633.24 1357.37 633.27 M 1450.14 633.25 C 1445.60 634.35 1441.37 636.83 1438.37 640.43 C 1433.84 645.83 1432.46 653.11 1432.38 659.98 C 1432.33 668.96 1431.81 678.56 1436.27 686.71 C 1440.08 693.80 1448.04 697.91 1455.96 698.00 C 1464.13 698.59 1473.00 695.65 1477.74 688.64 C 1483.30 680.58 1482.94 670.32 1482.88 660.97 C 1482.89 653.25 1481.37 644.88 1475.74 639.19 C 1469.21 632.50 1458.90 631.25 1450.14 633.25 M 1496.74 633.20 C 1496.47 654.50 1496.70 675.82 1496.63 697.13 C 1505.09 697.12 1513.56 697.13 1522.02 697.13 C 1528.20 697.11 1534.74 695.77 1539.57 691.68 C 1545.08 686.97 1546.03 678.67 1543.84 672.09 C 1542.52 668.12 1538.89 665.67 1535.47 663.65 C 1542.93 659.48 1545.14 649.29 1541.01 642.05 C 1537.42 635.86 1529.81 633.68 1523.10 633.36 C 1514.31 633.07 1505.52 633.39 1496.74 633.20 M 1572.37 633.25 C 1565.08 654.55 1557.59 675.78 1550.42 697.12 C 1554.97 697.13 1559.54 697.12 1564.11 697.12 C 1565.84 693.02 1566.50 688.31 1568.85 684.57 C 1575.83 684.39 1582.83 684.49 1589.82 684.57 C 1591.10 688.79 1592.58 692.94 1593.98 697.12 C 1598.70 697.13 1603.43 697.13 1608.16 697.12 C 1600.85 675.80 1593.53 654.49 1586.12 633.22 C 1581.53 633.27 1576.94 633.25 1572.37 633.25 Z" />
<path fill="#ffffff" opacity="1.00" d=" M 1084.54 0.00 L 1122.42 0.00 C 1121.40 5.15 1121.63 10.89 1118.33 15.28 C 1115.05 19.66 1109.21 20.88 1104.04 21.00 C 1098.68 21.06 1092.57 20.39 1088.76 16.19 C 1084.96 11.76 1084.65 5.56 1084.54 0.00 Z" />
<path fill="#ffffff" opacity="1.00" d=" M 1515.23 96.27 C 1523.05 95.49 1531.22 96.19 1538.43 99.52 C 1546.80 103.36 1553.39 110.71 1556.55 119.35 C 1561.82 133.26 1561.49 148.40 1561.50 163.04 C 1561.47 180.66 1562.09 198.91 1555.60 215.63 C 1552.39 224.17 1546.42 232.25 1537.60 235.49 C 1526.90 239.40 1514.71 239.47 1504.01 235.52 C 1494.76 232.08 1488.72 223.36 1485.58 214.36 C 1478.97 196.32 1480.39 176.81 1480.25 157.97 C 1480.11 143.71 1480.46 128.80 1486.72 115.68 C 1491.92 104.73 1503.24 97.34 1515.23 96.27 Z" />
<path fill="#ffffff" opacity="1.00" d=" M 1285.75 97.50 C 1298.16 97.53 1310.57 97.43 1322.98 97.55 C 1332.38 98.01 1342.66 99.54 1349.82 106.21 C 1356.77 112.74 1358.91 122.74 1358.79 131.94 C 1358.87 141.33 1356.41 151.55 1349.03 157.91 C 1341.83 163.92 1332.09 165.43 1323.02 165.84 C 1310.59 165.94 1298.17 165.84 1285.76 165.88 C 1285.74 143.09 1285.76 120.30 1285.75 97.50 Z" />
<path fill="#ffffff" opacity="1.00" d=" M 1189.75 373.12 C 1196.69 394.33 1202.80 415.81 1209.41 437.12 C 1196.32 437.07 1183.22 437.25 1170.14 437.03 C 1176.67 415.73 1183.36 394.47 1189.75 373.12 Z" />
<path fill="#ffffff" opacity="1.00" d=" M 839.77 377.79 C 840.24 376.29 840.80 374.83 841.40 373.38 C 847.95 394.55 854.23 415.80 860.81 436.96 C 847.73 437.34 834.63 437.02 821.54 437.12 C 827.57 417.33 833.73 397.58 839.77 377.79 Z" />
<path fill="#ffffff" opacity="1.00" d=" M 647.87 420.63 C 658.23 420.66 668.59 420.54 678.95 420.69 C 686.68 421.11 695.17 422.38 700.97 428.00 C 707.16 433.95 708.52 443.27 707.33 451.43 C 706.47 457.79 703.00 463.95 697.38 467.25 C 690.95 470.99 683.31 471.74 676.02 471.87 C 666.64 471.89 657.26 471.86 647.89 471.88 C 647.85 454.80 647.89 437.71 647.87 420.63 Z" />
<path fill="#ffffff" opacity="1.00" d=" M 535.50 641.49 C 541.13 641.52 546.77 641.45 552.40 641.55 C 552.33 656.12 552.40 670.69 552.37 685.26 C 545.06 685.25 537.74 685.24 530.43 685.27 C 535.96 671.38 535.48 656.17 535.50 641.49 Z" />
<path fill="#ffffff" opacity="1.00" d=" M 605.38 641.47 C 610.07 640.08 615.81 641.22 618.82 645.31 C 621.84 649.51 621.90 654.96 622.01 659.93 C 621.94 666.56 622.48 673.54 619.70 679.74 C 616.33 688.28 601.70 688.04 598.74 679.28 C 595.87 671.91 596.68 663.78 596.76 656.04 C 596.83 650.20 599.10 643.18 605.38 641.47 Z" />
<path fill="#ffffff" opacity="1.00" d=" M 790.52 641.64 C 795.38 639.99 801.51 641.07 804.61 645.43 C 807.52 649.66 807.63 655.04 807.65 659.99 C 807.55 665.71 808.05 671.59 806.37 677.15 C 805.40 680.68 803.15 684.26 799.42 685.28 C 794.88 686.53 789.02 686.15 786.01 682.07 C 782.54 677.12 782.40 670.79 782.36 664.98 C 782.44 659.32 781.91 653.42 784.01 648.04 C 785.12 645.09 787.54 642.68 790.52 641.64 Z" />
<path fill="#ffffff" opacity="1.00" d=" M 850.11 641.52 C 855.44 641.63 860.87 641.02 866.13 642.21 C 875.37 644.24 875.28 660.43 865.96 662.30 C 860.76 663.42 855.39 662.66 850.13 662.87 C 850.11 655.76 850.15 648.64 850.11 641.52 Z" />
<path fill="#ffffff" opacity="1.00" d=" M 1186.32 644.41 C 1191.19 642.92 1197.27 644.56 1199.75 649.26 C 1202.41 654.39 1201.94 660.36 1202.02 665.96 C 1201.94 671.59 1201.95 677.71 1198.74 682.61 C 1195.81 686.89 1189.70 687.25 1185.17 685.74 C 1180.81 684.09 1179.18 679.16 1178.49 674.97 C 1177.75 668.66 1177.82 662.26 1178.29 655.94 C 1178.65 651.06 1181.22 645.72 1186.32 644.41 Z" />
<path fill="#ffffff" opacity="1.00" d=" M 1453.41 644.58 C 1458.03 642.99 1463.90 644.11 1466.78 648.32 C 1469.46 652.31 1469.54 657.34 1469.64 661.98 C 1469.57 668.24 1470.04 674.81 1467.45 680.69 C 1464.39 688.45 1451.29 688.65 1447.94 681.05 C 1445.54 676.06 1445.62 670.39 1445.60 664.99 C 1445.63 660.32 1445.41 655.49 1447.04 651.04 C 1448.06 648.08 1450.41 645.57 1453.41 644.58 Z" />
<path fill="#ffffff" opacity="1.00" d=" M 1052.74 644.51 C 1058.02 644.73 1063.50 643.81 1068.64 645.40 C 1074.14 647.43 1073.98 656.56 1068.30 658.29 C 1063.25 659.67 1057.91 658.74 1052.75 659.00 C 1052.74 654.16 1052.75 649.33 1052.74 644.51 Z" />
<path fill="#ffffff" opacity="1.00" d=" M 1120.00 644.50 C 1125.33 644.50 1130.66 644.50 1136.00 644.50 C 1135.99 658.30 1136.02 672.09 1135.99 685.89 C 1129.04 685.85 1122.10 685.90 1115.16 685.85 C 1120.53 672.77 1119.97 658.36 1120.00 644.50 Z" />
<path fill="#ffffff" opacity="1.00" d=" M 1509.87 644.52 C 1515.13 644.72 1520.59 643.81 1525.71 645.40 C 1531.23 647.46 1531.05 656.68 1525.27 658.32 C 1520.26 659.65 1514.98 658.75 1509.87 659.00 C 1509.87 654.17 1509.87 649.34 1509.87 644.52 Z" />
<path fill="#ffffff" opacity="1.00" d=" M 447.65 647.83 C 450.39 655.76 452.58 663.87 455.07 671.89 C 450.14 671.86 445.22 671.91 440.31 671.82 C 442.83 663.84 445.28 655.84 447.65 647.83 Z" />
<path fill="#ffffff" opacity="1.00" d=" M 911.00 671.88 C 913.52 663.86 915.77 655.75 918.49 647.80 C 920.85 655.83 923.29 663.83 925.75 671.83 C 920.83 671.90 915.91 671.87 911.00 671.88 Z" />
<path fill="#ffffff" opacity="1.00" d=" M 1572.15 673.28 C 1574.41 665.76 1576.42 658.15 1579.19 650.81 C 1581.50 658.28 1583.82 665.75 1585.93 673.29 C 1581.33 673.23 1576.73 673.23 1572.15 673.28 Z" />
<path fill="#ffffff" opacity="1.00" d=" M 1052.70 685.79 C 1052.78 680.36 1052.73 674.93 1052.75 669.50 C 1058.40 669.69 1064.19 668.91 1069.73 670.35 C 1076.17 672.13 1076.24 682.88 1069.96 684.96 C 1064.38 686.63 1058.43 685.65 1052.70 685.79 Z" />
<path fill="#ffffff" opacity="1.00" d=" M 1509.87 669.51 C 1515.50 669.67 1521.27 668.92 1526.79 670.35 C 1531.78 671.72 1532.91 678.47 1530.36 682.42 C 1528.79 684.80 1525.78 685.55 1523.12 685.77 C 1518.70 686.04 1514.28 685.81 1509.87 685.87 C 1509.87 680.41 1509.87 674.96 1509.87 669.51 Z" />
</g>
<g id="#fcb316ff">
<path fill="#fcb316" opacity="1.00" d=" M 1044.31 0.00 L 1084.54 0.00 C 1084.65 5.56 1084.96 11.76 1088.76 16.19 C 1092.57 20.39 1098.68 21.06 1104.04 21.00 C 1109.21 20.88 1115.05 19.66 1118.33 15.28 C 1121.63 10.89 1121.40 5.15 1122.42 0.00 L 1162.11 0.00 C 1162.27 11.87 1159.59 24.43 1151.48 33.51 C 1144.73 41.45 1134.57 45.44 1124.55 47.30 C 1112.11 49.53 1099.33 49.62 1086.81 48.12 C 1076.35 46.74 1065.54 43.75 1057.58 36.48 C 1047.60 27.37 1043.45 13.21 1044.31 0.00 Z" />
<path fill="#fcb316" opacity="1.00" d=" M 64.61 100.52 C 89.20 71.79 119.77 48.02 154.07 32.03 C 147.00 37.26 139.69 42.18 132.98 47.89 C 123.04 56.98 113.43 66.64 106.08 78.01 C 95.42 93.50 88.34 111.40 85.21 129.93 C 83.93 140.22 82.89 150.57 83.18 160.96 C 82.41 168.65 83.25 176.33 83.23 184.03 C 83.78 192.68 84.06 201.37 85.79 209.89 C 87.68 224.67 93.34 238.55 98.69 252.34 C 102.33 261.25 101.34 271.57 96.95 280.03 C 93.00 289.26 86.41 297.04 82.21 306.14 C 79.68 311.54 79.12 318.76 83.72 323.24 C 87.67 328.16 94.34 328.63 99.56 331.48 C 102.89 333.28 103.33 337.57 103.08 340.95 C 102.38 349.45 98.55 358.21 101.50 366.65 C 105.01 369.80 110.26 369.14 114.64 369.38 C 114.26 373.54 112.93 378.14 115.00 382.04 C 117.46 384.93 121.79 384.42 125.01 385.95 C 129.92 387.72 134.26 391.60 135.36 396.88 C 137.35 405.71 138.69 414.89 143.05 422.97 C 145.89 428.14 149.03 433.50 154.02 436.88 C 162.71 442.22 173.18 442.71 183.09 443.06 C 205.13 442.79 226.98 439.26 248.35 433.98 C 247.96 446.33 249.55 458.62 249.04 470.97 C 248.30 480.02 247.22 489.21 243.67 497.66 C 237.66 513.66 226.70 527.10 215.25 539.53 C 180.47 532.31 147.10 518.28 117.79 498.18 C 71.55 466.72 35.50 420.53 16.43 367.93 C 7.81 344.50 2.73 319.83 0.76 294.96 C 1.24 284.00 0.94 273.02 1.00 262.06 C 0.32 254.97 1.64 247.93 2.36 240.91 C 8.83 189.37 30.81 139.95 64.61 100.52 Z" />
<path fill="#fcb316" opacity="1.00" d=" M 1508.61 58.79 C 1527.39 56.96 1547.16 58.89 1564.05 67.84 C 1579.52 75.92 1591.64 89.92 1597.78 106.23 C 1605.31 125.17 1605.60 145.87 1605.25 165.96 C 1605.69 188.84 1604.61 212.63 1594.72 233.69 C 1587.47 249.52 1574.13 262.35 1558.15 269.19 C 1542.09 276.07 1524.09 277.38 1506.88 275.38 C 1490.09 273.43 1473.62 266.50 1461.59 254.43 C 1449.41 242.81 1442.68 226.66 1439.41 210.40 C 1437.01 198.42 1436.23 186.17 1436.38 173.97 C 1436.55 157.57 1435.51 141.01 1438.68 124.81 C 1441.77 107.51 1449.30 90.47 1462.50 78.53 C 1475.00 66.83 1491.71 60.42 1508.61 58.79 M 1515.23 96.27 C 1503.24 97.34 1491.92 104.73 1486.72 115.68 C 1480.46 128.80 1480.11 143.71 1480.25 157.97 C 1480.39 176.81 1478.97 196.32 1485.58 214.36 C 1488.72 223.36 1494.76 232.08 1504.01 235.52 C 1514.71 239.47 1526.90 239.40 1537.60 235.49 C 1546.42 232.25 1552.39 224.17 1555.60 215.63 C 1562.09 198.91 1561.47 180.66 1561.50 163.04 C 1561.49 148.40 1561.82 133.26 1556.55 119.35 C 1553.39 110.71 1546.80 103.36 1538.43 99.52 C 1531.22 96.19 1523.05 95.49 1515.23 96.27 Z" />
<path fill="#fcb316" opacity="1.00" d=" M 616.01 60.89 C 630.63 60.86 645.25 60.87 659.87 60.89 C 659.97 89.15 659.69 117.41 660.01 145.67 C 686.01 145.59 712.02 145.60 738.02 145.66 C 738.27 117.41 738.05 89.15 738.13 60.89 C 752.74 60.87 767.36 60.86 781.98 60.90 C 782.02 131.75 781.99 202.61 782.00 273.47 C 767.37 273.52 752.74 273.53 738.10 273.47 C 738.15 243.19 738.11 212.91 738.13 182.63 C 712.04 182.61 685.96 182.63 659.88 182.62 C 659.89 212.90 659.83 243.17 659.91 273.45 C 645.27 273.55 630.63 273.52 616.00 273.46 C 616.01 202.61 615.98 131.75 616.01 60.89 Z" />
<path fill="#fcb316" opacity="1.00" d=" M 836.22 60.98 C 866.12 60.74 896.02 60.94 925.92 60.88 C 942.16 60.97 958.41 60.69 974.66 61.02 C 974.56 73.18 974.68 85.34 974.59 97.50 C 943.09 97.54 911.58 97.43 880.08 97.55 C 880.20 113.59 880.05 129.62 880.16 145.65 C 907.89 145.59 935.63 145.63 963.37 145.63 C 963.42 157.92 963.30 170.22 963.43 182.51 C 935.66 182.78 907.88 182.52 880.11 182.64 C 880.15 200.72 880.11 218.80 880.13 236.88 C 911.64 236.97 943.16 236.68 974.66 237.03 C 974.49 249.21 974.79 261.39 974.51 273.57 C 928.48 273.48 882.45 273.42 836.43 273.59 C 835.99 202.73 836.40 131.85 836.22 60.98 Z" />
<path fill="#fcb316" opacity="1.00" d=" M 1018.63 60.88 C 1033.25 60.88 1047.86 60.87 1062.48 60.88 C 1062.52 107.95 1062.52 155.02 1062.48 202.09 C 1089.65 155.19 1116.26 107.96 1143.16 60.90 C 1157.96 60.97 1172.77 60.63 1187.57 61.08 C 1187.40 131.88 1187.56 202.68 1187.49 273.49 C 1173.98 273.53 1160.48 273.45 1146.98 273.54 C 1145.92 273.32 1143.30 274.07 1143.77 272.10 C 1143.70 225.48 1143.81 178.85 1143.72 132.22 C 1116.32 178.86 1089.68 225.96 1062.46 272.71 C 1061.81 273.94 1060.06 273.31 1058.99 273.54 C 1045.52 273.42 1032.06 273.60 1018.60 273.44 C 1018.66 202.59 1018.59 131.73 1018.63 60.88 Z" />
<path fill="#fcb316" opacity="1.00" d=" M 1241.89 60.89 C 1267.92 60.87 1293.96 60.86 1319.99 60.89 C 1338.13 61.10 1357.04 63.57 1372.84 73.13 C 1388.56 82.58 1399.02 99.57 1401.62 117.61 C 1404.29 136.29 1402.23 156.58 1391.54 172.58 C 1383.54 184.86 1370.84 193.57 1356.91 197.77 C 1333.90 205.05 1309.49 202.34 1285.76 202.87 C 1285.65 226.44 1285.94 250.02 1285.61 273.59 C 1271.03 273.38 1256.46 273.58 1241.88 273.48 C 1241.88 202.62 1241.86 131.75 1241.89 60.89 M 1285.75 97.50 C 1285.76 120.30 1285.74 143.09 1285.76 165.88 C 1298.17 165.84 1310.59 165.94 1323.02 165.84 C 1332.09 165.43 1341.83 163.92 1349.03 157.91 C 1356.41 151.55 1358.87 141.33 1358.79 131.94 C 1358.91 122.74 1356.77 112.74 1349.82 106.21 C 1342.66 99.54 1332.38 98.01 1322.98 97.55 C 1310.57 97.43 1298.16 97.53 1285.75 97.50 Z" />
<path fill="#fcb316" opacity="1.00" d=" M 493.98 126.87 C 516.45 160.64 530.99 199.64 536.26 239.86 C 541.63 281.14 537.66 323.69 524.05 363.08 C 507.81 410.70 477.74 453.42 438.64 485.06 C 429.62 463.57 419.21 442.71 409.42 421.57 C 403.69 408.71 397.91 395.74 394.67 381.99 C 393.59 376.25 392.51 369.82 395.44 364.44 C 400.35 356.16 408.58 350.78 415.88 344.83 C 432.06 333.33 447.63 320.69 460.36 305.36 C 482.49 279.10 493.96 245.29 497.22 211.44 C 498.52 202.98 497.81 194.41 498.75 185.93 C 499.21 180.94 498.25 175.99 498.20 171.02 C 498.39 156.20 496.38 141.45 493.98 126.87 Z" />
</g>
<g id="#97defaff">
<path fill="#97defa" opacity="1.00" d=" M 312.37 27.83 C 320.92 27.88 329.46 29.07 337.78 31.04 C 339.40 37.42 341.15 43.84 344.26 49.68 C 347.20 55.23 349.91 61.03 354.21 65.69 C 358.26 70.03 361.71 74.99 366.46 78.62 C 371.44 82.38 376.15 86.68 382.06 88.96 C 365.47 104.05 349.82 121.12 340.65 141.83 C 354.96 149.73 370.29 155.85 386.22 159.57 C 390.03 160.42 393.89 161.11 397.65 162.18 C 394.73 167.66 391.50 172.96 388.58 178.42 C 385.73 186.63 381.19 194.60 381.92 203.60 C 381.19 204.39 380.47 205.18 379.76 205.98 C 374.10 204.98 368.64 203.15 363.02 201.98 C 349.87 199.68 336.49 198.67 323.14 199.30 C 320.86 212.18 321.87 225.38 322.86 238.35 C 318.21 236.04 313.94 233.07 309.37 230.63 C 299.48 225.11 288.95 220.71 277.96 217.92 C 273.58 216.76 269.09 216.06 264.75 214.76 C 278.78 208.13 293.72 203.38 309.03 200.76 C 313.17 199.94 317.46 200.30 321.59 199.41 C 323.56 199.00 323.32 196.57 323.72 195.04 C 325.41 176.19 332.49 158.36 340.44 141.36 C 331.57 137.40 323.94 131.37 316.02 125.88 C 311.17 121.77 306.66 117.28 301.78 113.21 C 296.21 108.53 292.02 102.52 286.89 97.40 C 282.94 103.35 280.13 110.00 275.73 115.67 C 265.95 128.98 255.79 142.14 244.06 153.79 C 242.40 149.43 241.23 144.91 239.41 140.61 C 233.65 126.60 224.48 114.13 213.30 103.96 C 207.62 113.94 200.60 123.24 191.99 130.89 C 184.95 136.90 177.17 142.02 168.90 146.18 C 171.54 160.18 169.95 175.15 162.79 187.63 C 160.60 191.16 158.52 194.82 155.72 197.91 C 154.55 198.85 153.17 197.38 151.99 197.10 C 139.96 191.10 129.23 181.55 123.85 169.03 C 121.95 164.91 120.77 160.50 119.87 156.07 C 126.93 155.66 134.06 156.20 141.06 154.93 C 147.84 154.06 154.32 151.81 160.82 149.81 C 163.41 148.93 166.15 148.03 168.13 146.03 C 166.73 135.27 160.88 125.38 153.04 118.02 C 146.48 111.79 138.80 106.53 130.04 103.98 C 135.50 94.74 142.34 86.11 150.16 78.87 C 154.36 79.76 158.66 79.91 162.91 80.45 C 175.40 82.54 187.45 87.07 198.34 93.52 C 203.72 96.44 208.13 100.86 213.69 103.48 C 224.53 83.69 227.32 60.16 223.68 38.07 C 232.97 35.15 242.49 33.01 252.03 31.10 C 256.49 44.62 261.55 58.01 268.74 70.35 C 274.10 79.51 279.52 88.85 286.97 96.49 C 292.97 87.06 296.87 76.50 301.32 66.29 C 305.79 53.73 309.99 40.97 312.37 27.83 Z" />
<path fill="#97defa" opacity="1.00" d=" M 417.46 66.34 C 427.79 74.77 436.46 85.10 443.76 96.22 C 439.06 98.16 433.96 98.59 428.95 98.97 C 412.90 99.94 396.28 96.92 382.28 88.82 C 390.44 83.95 397.03 76.77 405.66 72.65 C 409.64 70.64 413.58 68.55 417.46 66.34 Z" />
<path fill="#97defa" opacity="1.00" d=" M 449.03 124.07 C 451.69 123.39 454.48 121.90 457.26 122.65 C 463.19 134.62 464.39 148.15 465.35 161.28 C 449.10 163.88 432.56 165.64 416.11 164.04 C 410.25 163.35 404.34 163.13 398.54 162.02 C 402.68 154.65 409.13 148.97 415.17 143.20 C 424.94 134.53 436.75 128.35 449.03 124.07 Z" />
<path fill="#97defa" opacity="1.00" d=" M 205.18 185.22 C 218.83 175.80 232.34 165.93 243.88 153.95 C 246.91 164.84 247.54 176.32 246.47 187.55 C 245.38 196.05 244.60 204.87 240.70 212.66 C 231.26 211.80 221.80 211.25 212.36 210.45 C 198.62 208.87 184.63 208.16 171.31 204.15 C 182.63 197.90 194.45 192.50 205.18 185.22 Z" />
<path fill="#97defa" opacity="1.00" d=" M 381.99 206.45 C 384.64 208.08 387.37 209.65 390.36 210.58 C 399.29 213.15 407.72 217.31 415.40 222.50 C 420.51 225.22 425.21 228.57 429.65 232.27 C 438.07 237.95 445.66 244.95 451.67 253.17 C 445.17 263.76 435.47 272.84 423.41 276.51 C 416.52 278.69 409.18 279.32 402.00 278.84 C 400.12 278.84 399.25 276.92 398.22 275.68 C 389.60 262.56 383.27 247.70 381.32 232.04 C 380.14 224.73 380.42 217.31 380.36 209.94 C 380.31 208.58 381.41 207.59 381.99 206.45 Z" />
</g>
<g id="#1189bbff">
<path fill="#1189bb" opacity="1.00" d=" M 337.78 31.04 C 366.52 36.63 394.33 48.22 417.46 66.34 C 413.58 68.55 409.64 70.64 405.66 72.65 C 397.03 76.77 390.44 83.95 382.28 88.82 L 382.06 88.96 C 376.15 86.68 371.44 82.38 366.46 78.62 C 361.71 74.99 358.26 70.03 354.21 65.69 C 349.91 61.03 347.20 55.23 344.26 49.68 C 341.15 43.84 339.40 37.42 337.78 31.04 Z" />
<path fill="#1189bb" opacity="1.00" d=" M 150.16 78.87 C 170.81 59.43 196.75 46.38 223.68 38.07 C 227.32 60.16 224.53 83.69 213.69 103.48 C 208.13 100.86 203.72 96.44 198.34 93.52 C 187.45 87.07 175.40 82.54 162.91 80.45 C 158.66 79.91 154.36 79.76 150.16 78.87 Z" />
<path fill="#1189bb" opacity="1.00" d=" M 275.73 115.67 C 280.13 110.00 282.94 103.35 286.89 97.40 C 292.02 102.52 296.21 108.53 301.78 113.21 C 306.66 117.28 311.17 121.77 316.02 125.88 C 323.94 131.37 331.57 137.40 340.44 141.36 C 332.49 158.36 325.41 176.19 323.72 195.04 C 323.32 196.57 323.56 199.00 321.59 199.41 C 317.46 200.30 313.17 199.94 309.03 200.76 C 293.72 203.38 278.78 208.13 264.75 214.76 C 256.79 214.48 248.76 212.68 240.70 212.66 C 244.60 204.87 245.38 196.05 246.47 187.55 C 247.54 176.32 246.91 164.84 243.88 153.95 L 244.06 153.79 C 255.79 142.14 265.95 128.98 275.73 115.67 Z" />
<path fill="#1189bb" opacity="1.00" d=" M 130.04 103.98 C 138.80 106.53 146.48 111.79 153.04 118.02 C 160.88 125.38 166.73 135.27 168.13 146.03 C 166.15 148.03 163.41 148.93 160.82 149.81 C 154.32 151.81 147.84 154.06 141.06 154.93 C 134.06 156.20 126.93 155.66 119.87 156.07 C 116.90 138.19 121.11 119.61 130.04 103.98 Z" />
<path fill="#1189bb" opacity="1.00" d=" M 397.65 162.18 C 397.87 162.14 398.32 162.06 398.54 162.02 C 404.34 163.13 410.25 163.35 416.11 164.04 C 432.56 165.64 449.10 163.88 465.35 161.28 C 467.47 187.57 467.19 214.88 457.94 239.91 C 456.22 244.49 454.06 248.90 451.67 253.17 C 445.66 244.95 438.07 237.95 429.65 232.27 C 425.21 228.57 420.51 225.22 415.40 222.50 C 407.72 217.31 399.29 213.15 390.36 210.58 C 387.37 209.65 384.64 208.08 381.99 206.45 C 381.97 205.74 381.94 204.31 381.92 203.60 C 381.19 194.60 385.73 186.63 388.58 178.42 C 391.50 172.96 394.73 167.66 397.65 162.18 Z" />
<path fill="#1189bb" opacity="1.00" d=" M 1487.83 346.78 C 1498.56 334.14 1514.76 327.10 1531.11 325.79 C 1549.76 324.18 1570.08 326.82 1585.09 338.89 C 1598.40 349.46 1604.87 366.40 1606.49 382.91 C 1594.53 382.84 1582.57 382.86 1570.61 382.90 C 1569.06 374.97 1566.04 366.73 1559.48 361.60 C 1552.57 356.45 1543.39 355.84 1535.11 356.66 C 1525.26 357.65 1516.04 363.90 1511.96 372.98 C 1507.29 383.27 1506.86 394.83 1507.00 405.95 C 1507.18 419.66 1506.09 433.61 1509.47 447.05 C 1511.32 454.38 1514.35 461.85 1520.25 466.86 C 1526.17 471.94 1534.32 473.31 1541.89 473.11 C 1548.77 472.88 1556.26 471.40 1561.17 466.17 C 1566.51 460.47 1568.99 452.77 1570.59 445.28 C 1582.59 445.27 1594.61 445.15 1606.62 445.34 C 1604.65 462.04 1598.51 479.16 1585.38 490.32 C 1571.87 501.89 1553.19 504.65 1535.97 504.02 C 1519.82 503.49 1503.36 497.91 1491.81 486.28 C 1478.75 473.77 1473.41 455.46 1471.71 437.94 C 1470.48 425.33 1471.18 412.65 1471.00 400.00 C 1471.23 381.24 1475.20 361.32 1487.83 346.78 Z" />
<path fill="#1189bb" opacity="1.00" d=" M 611.88 327.63 C 650.67 327.64 689.46 327.61 728.25 327.64 C 728.28 337.59 728.17 347.54 728.31 357.49 C 701.51 357.81 674.69 357.53 647.87 357.63 C 647.87 368.54 647.87 379.46 647.87 390.37 C 666.61 390.83 685.80 388.68 704.07 393.94 C 716.50 397.41 728.35 404.55 735.40 415.61 C 743.72 428.60 745.28 445.02 742.28 459.90 C 739.59 473.29 730.96 485.31 719.04 492.01 C 706.06 499.53 690.78 501.77 675.98 501.86 C 654.62 501.89 633.26 501.86 611.90 501.88 C 611.85 443.79 611.88 385.71 611.88 327.63 M 647.87 420.63 C 647.89 437.71 647.85 454.80 647.89 471.88 C 657.26 471.86 666.64 471.89 676.02 471.87 C 683.31 471.74 690.95 470.99 697.38 467.25 C 703.00 463.95 706.47 457.79 707.33 451.43 C 708.52 443.27 707.16 433.95 700.97 428.00 C 695.17 422.38 686.68 421.11 678.95 420.69 C 668.59 420.54 658.23 420.66 647.87 420.63 Z" />
<path fill="#1189bb" opacity="1.00" d=" M 822.97 327.64 C 834.33 327.59 845.70 327.68 857.06 327.59 C 858.37 327.83 860.81 326.95 861.05 328.97 C 881.06 386.60 901.11 444.22 921.05 501.87 C 908.19 501.83 895.34 501.96 882.48 501.80 C 878.68 490.29 874.80 478.80 870.84 467.35 C 851.11 467.42 831.38 467.32 811.64 467.40 C 807.74 478.90 803.69 490.35 799.79 501.86 C 787.37 501.90 774.95 501.86 762.53 501.87 C 782.59 443.77 802.84 385.72 822.97 327.64 M 839.77 377.79 C 833.73 397.58 827.57 417.33 821.54 437.12 C 834.63 437.02 847.73 437.34 860.81 436.96 C 854.23 415.80 847.95 394.55 841.40 373.38 C 840.80 374.83 840.24 376.29 839.77 377.79 Z" />
<path fill="#1189bb" opacity="1.00" d=" M 965.10 418.98 C 965.78 388.52 965.07 358.04 965.48 327.57 C 1005.02 327.70 1044.57 327.59 1084.12 327.63 C 1084.12 385.71 1084.15 443.78 1084.11 501.86 C 1072.11 501.89 1060.12 501.87 1048.14 501.87 C 1048.11 453.79 1048.13 405.71 1048.13 357.63 C 1031.70 357.64 1015.28 357.60 998.87 357.64 C 998.46 388.82 1000.42 420.24 995.57 451.18 C 993.17 465.32 988.95 480.14 978.43 490.48 C 967.61 500.92 951.78 503.48 937.34 504.01 C 937.39 492.36 937.40 480.71 937.34 469.06 C 944.86 467.84 953.33 465.68 957.46 458.59 C 964.48 446.71 964.29 432.34 965.10 418.98 Z" />
<path fill="#1189bb" opacity="1.00" d=" M 1111.08 501.71 C 1131.42 443.71 1151.32 385.56 1171.69 327.57 C 1184.18 327.69 1196.68 327.61 1209.18 327.62 C 1223.85 369.75 1238.44 411.91 1253.10 454.05 C 1258.54 470.02 1264.32 485.87 1269.57 501.91 C 1256.76 501.82 1243.95 501.91 1231.15 501.86 C 1227.32 490.36 1223.36 478.90 1219.54 467.40 C 1199.80 467.33 1180.06 467.42 1160.32 467.35 C 1156.36 478.81 1152.27 490.22 1148.53 501.74 C 1136.05 501.94 1123.56 502.00 1111.08 501.71 M 1189.75 373.12 C 1183.36 394.47 1176.67 415.73 1170.14 437.03 C 1183.22 437.25 1196.32 437.07 1209.41 437.12 C 1202.80 415.81 1196.69 394.33 1189.75 373.12 Z" />
<path fill="#1189bb" opacity="1.00" d=" M 1296.63 327.63 C 1308.59 327.59 1320.56 327.69 1332.53 327.58 C 1332.75 350.76 1332.56 373.94 1332.63 397.12 C 1354.01 397.08 1375.39 397.22 1396.77 397.06 C 1396.72 373.91 1396.76 350.77 1396.75 327.63 C 1408.76 327.67 1420.78 327.52 1432.79 327.72 C 1432.69 385.76 1432.79 443.80 1432.74 501.85 C 1420.74 501.91 1408.75 501.86 1396.76 501.87 C 1396.72 477.04 1396.77 452.20 1396.74 427.36 C 1375.35 427.45 1353.96 427.24 1332.57 427.47 C 1332.71 452.25 1332.56 477.04 1332.65 501.83 C 1320.65 501.94 1308.66 501.82 1296.67 501.90 C 1296.57 443.81 1296.65 385.72 1296.63 327.63 Z" />
<path fill="#1189bb" opacity="1.00" d=" M 601.48 629.66 C 610.62 627.59 621.37 628.84 628.24 635.75 C 634.38 641.74 636.00 650.75 636.00 658.99 C 636.05 668.50 636.41 678.79 631.20 687.19 C 627.00 694.10 618.92 697.88 610.99 698.00 C 603.26 698.49 594.98 696.18 589.74 690.21 C 584.15 683.95 582.74 675.16 582.74 667.04 C 582.79 659.09 582.11 650.77 585.36 643.28 C 588.10 636.47 594.33 631.27 601.48 629.66 M 605.38 641.47 C 599.10 643.18 596.83 650.20 596.76 656.04 C 596.68 663.78 595.87 671.91 598.74 679.28 C 601.70 688.04 616.33 688.28 619.70 679.74 C 622.48 673.54 621.94 666.56 622.01 659.93 C 621.90 654.96 621.84 649.51 618.82 645.31 C 615.81 641.22 610.07 640.08 605.38 641.47 Z" />
<path fill="#1189bb" opacity="1.00" d=" M 787.47 629.58 C 796.15 627.73 806.18 628.77 813.03 634.88 C 819.31 640.34 821.50 649.01 821.61 657.05 C 821.62 666.90 822.44 677.48 817.38 686.39 C 813.17 693.94 804.49 698.12 796.00 698.03 C 787.39 698.51 778.18 695.08 773.41 687.61 C 768.12 679.46 768.28 669.34 768.36 660.00 C 768.28 652.17 769.41 643.76 774.50 637.49 C 777.75 633.47 782.45 630.73 787.47 629.58 M 790.52 641.64 C 787.54 642.68 785.12 645.09 784.01 648.04 C 781.91 653.42 782.44 659.32 782.36 664.98 C 782.40 670.79 782.54 677.12 786.01 682.07 C 789.02 686.15 794.88 686.53 799.42 685.28 C 803.15 684.26 805.40 680.68 806.37 677.15 C 808.05 671.59 807.55 665.71 807.65 659.99 C 807.63 655.04 807.52 649.66 804.61 645.43 C 801.51 641.07 795.38 639.99 790.52 641.64 Z" />
<path fill="#1189bb" opacity="1.00" d=" M 15.63 629.63 C 20.26 629.62 24.89 629.65 29.52 629.58 C 29.72 638.56 29.64 647.56 29.56 656.55 C 31.51 656.56 33.45 656.60 35.40 656.59 C 40.84 647.53 46.66 638.71 52.13 629.67 C 57.39 629.59 62.65 629.62 67.91 629.63 C 61.13 640.54 53.81 651.11 46.90 661.95 C 54.56 673.64 62.30 685.28 69.78 697.09 C 64.26 697.13 58.73 697.17 53.21 697.06 C 47.32 687.49 41.21 678.04 35.25 668.50 C 33.37 668.50 31.49 668.51 29.60 668.53 C 29.68 678.03 29.56 687.52 29.67 697.02 C 24.99 697.19 20.31 697.12 15.63 697.12 C 15.62 674.62 15.63 652.13 15.63 629.63 Z" />
<path fill="#1189bb" opacity="1.00" d=" M 85.75 629.63 C 100.96 629.62 116.16 629.63 131.37 629.62 C 131.37 652.12 131.38 674.62 131.36 697.12 C 126.69 697.12 122.01 697.19 117.34 697.02 C 117.45 678.54 117.29 660.06 117.42 641.58 C 111.37 641.52 105.30 641.34 99.26 641.60 L 98.84 641.95 C 98.41 654.34 99.54 666.87 97.23 679.14 C 96.17 684.55 94.24 690.22 89.78 693.79 C 85.62 697.08 80.12 697.70 75.01 698.11 C 74.99 693.55 74.98 688.98 75.03 684.42 C 77.99 683.76 81.45 682.97 82.93 679.98 C 85.68 674.71 85.39 668.56 85.70 662.80 C 85.82 651.74 85.71 640.69 85.75 629.63 Z" />
<path fill="#1189bb" opacity="1.00" d=" M 148.22 629.68 C 152.90 629.59 157.57 629.61 162.25 629.64 C 162.27 644.36 162.21 659.08 162.28 673.79 C 170.88 659.25 179.06 644.46 187.31 629.71 C 192.04 629.57 196.77 629.63 201.50 629.62 C 201.50 652.12 201.50 674.62 201.50 697.13 C 196.87 697.12 192.25 697.12 187.63 697.13 C 187.62 682.37 187.64 667.61 187.62 652.85 C 178.92 667.48 170.67 682.38 162.16 697.12 C 157.52 697.12 152.87 697.17 148.23 697.05 C 148.27 674.59 148.27 652.14 148.22 629.68 Z" />
<path fill="#1189bb" opacity="1.00" d=" M 218.51 629.62 C 223.15 629.63 227.78 629.64 232.42 629.59 C 232.60 638.56 232.45 647.53 232.50 656.51 C 240.54 656.53 248.58 656.41 256.61 656.59 C 256.92 647.61 256.67 638.62 256.75 629.64 C 261.43 629.62 266.10 629.60 270.78 629.67 C 270.72 652.14 270.75 674.60 270.76 697.07 C 266.09 697.15 261.42 697.13 256.75 697.12 C 256.74 687.53 256.76 677.95 256.74 668.37 C 248.64 668.42 240.54 668.27 232.45 668.45 C 232.58 677.97 232.43 687.50 232.53 697.02 C 227.86 697.19 223.18 697.12 218.51 697.13 C 218.49 674.62 218.49 652.12 218.51 629.62 Z" />
<path fill="#1189bb" opacity="1.00" d=" M 287.63 629.63 C 292.26 629.63 296.88 629.65 301.51 629.57 C 301.84 644.14 301.42 658.72 301.73 673.29 C 310.64 659.07 318.33 644.09 326.84 629.61 C 331.52 629.64 336.20 629.61 340.88 629.64 C 340.87 652.13 340.87 674.62 340.88 697.11 C 336.21 697.13 331.54 697.12 326.88 697.12 C 326.85 682.41 326.92 667.70 326.84 652.99 C 318.35 667.57 309.93 682.21 301.71 696.95 C 297.02 697.25 292.32 697.10 287.63 697.12 C 287.62 674.62 287.62 652.13 287.63 629.63 Z" />
<path fill="#1189bb" opacity="1.00" d=" M 357.75 629.64 C 362.42 629.62 367.10 629.60 371.77 629.67 C 371.68 638.61 371.85 647.55 371.67 656.49 C 373.60 656.53 375.54 656.63 377.49 656.64 C 383.19 647.59 388.68 638.41 394.63 629.53 C 399.77 629.72 404.92 629.59 410.07 629.62 C 403.32 640.55 395.96 651.10 389.06 661.94 C 396.70 673.65 404.51 685.26 411.92 697.11 C 406.37 697.09 400.82 697.26 395.28 696.97 C 389.38 687.37 383.39 677.82 377.21 668.40 C 375.38 668.46 373.56 668.50 371.74 668.54 C 371.77 678.05 371.71 687.55 371.77 697.06 C 367.10 697.16 362.42 697.13 357.75 697.12 C 357.75 674.62 357.74 652.13 357.75 629.64 Z" />
<path fill="#1189bb" opacity="1.00" d=" M 417.47 697.12 C 425.14 674.59 432.92 652.09 440.70 629.60 C 445.52 629.64 450.35 629.63 455.18 629.61 C 463.01 652.09 470.70 674.62 478.46 697.11 C 473.43 697.10 468.39 697.24 463.36 696.98 C 462.01 692.54 460.42 688.19 459.01 683.77 C 451.57 683.68 444.13 683.85 436.69 683.67 C 434.90 688.08 433.53 692.64 431.94 697.13 C 427.11 697.12 422.29 697.13 417.47 697.12 M 447.65 647.83 C 445.28 655.84 442.83 663.84 440.31 671.82 C 445.22 671.91 450.14 671.86 455.07 671.89 C 452.58 663.87 450.39 655.76 447.65 647.83 Z" />
<path fill="#1189bb" opacity="1.00" d=" M 521.98 664.11 C 522.76 652.62 522.35 641.09 522.57 629.59 C 537.17 629.68 551.77 629.59 566.37 629.63 C 566.45 648.19 566.22 666.75 566.49 685.31 C 569.23 685.25 571.98 685.24 574.74 685.24 C 574.77 693.15 574.73 701.07 574.76 708.98 C 570.50 709.00 566.25 708.99 562.00 708.99 C 562.00 705.03 562.00 701.06 561.98 697.10 C 548.51 697.19 535.05 697.03 521.59 697.19 C 521.64 701.12 521.64 705.06 521.60 709.00 C 517.40 708.99 513.20 708.99 509.00 708.99 C 509.02 701.07 508.96 693.15 509.04 685.23 C 511.38 685.23 513.72 685.24 516.08 685.26 C 519.92 678.88 521.45 671.46 521.98 664.11 M 535.50 641.49 C 535.48 656.17 535.96 671.38 530.43 685.27 C 537.74 685.24 545.06 685.25 552.37 685.26 C 552.40 670.69 552.33 656.12 552.40 641.55 C 546.77 641.45 541.13 641.52 535.50 641.49 Z" />
<path fill="#1189bb" opacity="1.00" d=" M 650.49 629.63 C 655.16 629.63 659.82 629.62 664.49 629.63 C 664.51 638.63 664.50 647.63 664.50 656.63 C 666.40 656.61 668.31 656.60 670.23 656.57 C 675.72 647.54 681.48 638.67 687.01 629.66 C 692.28 629.60 697.55 629.60 702.83 629.66 C 695.88 640.46 688.72 651.12 681.74 661.90 C 689.39 673.63 697.10 685.32 704.69 697.09 C 699.17 697.15 693.66 697.12 688.15 697.12 C 682.11 687.58 676.10 678.03 670.07 668.49 C 668.20 668.49 666.34 668.49 664.49 668.51 C 664.54 677.99 664.43 687.47 664.55 696.96 C 659.87 697.24 655.18 697.11 650.50 697.12 C 650.49 674.62 650.51 652.12 650.49 629.63 Z" />
<path fill="#1189bb" opacity="1.00" d=" M 708.87 629.63 C 726.25 629.63 743.62 629.62 761.00 629.64 C 761.00 633.59 760.99 637.54 761.00 641.50 C 754.68 641.48 748.36 641.55 742.04 641.45 C 741.65 660.00 741.98 678.57 741.87 697.13 C 737.25 697.12 732.62 697.12 728.00 697.13 C 727.94 678.57 728.11 660.00 727.92 641.45 C 721.57 641.55 715.22 641.48 708.87 641.49 C 708.87 637.54 708.87 633.58 708.87 629.63 Z" />
<path fill="#1189bb" opacity="1.00" d=" M 836.11 629.65 C 844.39 629.61 852.66 629.61 860.94 629.64 C 867.97 629.72 875.63 631.02 880.83 636.16 C 886.59 641.77 887.84 650.56 886.28 658.16 C 884.98 664.75 880.12 670.51 873.76 672.74 C 866.21 675.65 858.00 674.52 850.12 674.76 C 850.13 682.21 850.12 689.67 850.13 697.13 C 845.45 697.12 840.79 697.13 836.12 697.12 C 836.12 674.63 836.14 652.14 836.11 629.65 M 850.11 641.52 C 850.15 648.64 850.11 655.76 850.13 662.87 C 855.39 662.66 860.76 663.42 865.96 662.30 C 875.28 660.43 875.37 644.24 866.13 642.21 C 860.87 641.02 855.44 641.63 850.11 641.52 Z" />
<path fill="#1189bb" opacity="1.00" d=" M 911.21 629.71 C 916.12 629.57 921.03 629.60 925.95 629.68 C 933.58 652.19 941.43 674.62 949.10 697.12 C 944.09 697.12 939.08 697.15 934.07 697.09 C 932.64 692.65 931.10 688.25 929.72 683.81 C 922.19 683.69 914.66 683.75 907.13 683.77 C 905.69 688.20 904.11 692.58 902.70 697.01 C 897.83 697.20 892.96 697.16 888.10 697.04 C 895.79 674.59 903.66 652.20 911.21 629.71 M 911.00 671.88 C 915.91 671.87 920.83 671.90 925.75 671.83 C 923.29 663.83 920.85 655.83 918.49 647.80 C 915.77 655.75 913.52 663.86 911.00 671.88 Z" />
<path fill="#1189bb" opacity="1.00" d=" M 985.26 633.26 C 999.05 633.26 1012.83 633.23 1026.62 633.27 C 1026.62 637.01 1026.62 640.75 1026.62 644.50 C 1017.24 644.50 1007.86 644.49 998.48 644.50 C 998.51 649.18 998.53 653.86 998.45 658.55 C 1006.71 658.72 1014.98 658.57 1023.25 658.64 C 1023.25 662.38 1023.25 666.13 1023.24 669.88 C 1014.97 669.94 1006.71 669.69 998.45 670.03 C 998.52 675.29 998.52 680.55 998.46 685.82 C 1007.86 686.00 1017.26 685.71 1026.66 685.98 C 1026.61 689.66 1026.61 693.34 1026.66 697.03 C 1012.85 697.21 999.04 697.14 985.23 697.06 C 985.28 675.79 985.23 654.53 985.26 633.26 Z" />
<path fill="#1189bb" opacity="1.00" d=" M 1039.60 633.19 C 1048.07 633.36 1056.54 633.13 1065.01 633.31 C 1070.78 633.52 1076.91 634.75 1081.31 638.75 C 1085.80 642.81 1086.88 649.61 1085.27 655.25 C 1084.20 658.88 1081.31 661.49 1078.51 663.82 C 1081.99 665.67 1085.48 668.21 1086.79 672.12 C 1089.00 678.68 1087.99 686.94 1082.52 691.65 C 1077.73 695.77 1071.17 697.08 1065.01 697.13 C 1056.51 697.13 1048.00 697.11 1039.50 697.13 C 1039.56 675.82 1039.37 654.50 1039.60 633.19 M 1052.74 644.51 C 1052.75 649.33 1052.74 654.16 1052.75 659.00 C 1057.91 658.74 1063.25 659.67 1068.30 658.29 C 1073.98 656.56 1074.14 647.43 1068.64 645.40 C 1063.50 643.81 1058.02 644.73 1052.74 644.51 M 1052.70 685.79 C 1058.43 685.65 1064.38 686.63 1069.96 684.96 C 1076.24 682.88 1076.17 672.13 1069.73 670.35 C 1064.19 668.91 1058.40 669.69 1052.75 669.50 C 1052.73 674.93 1052.78 680.36 1052.70 685.79 Z" />
<path fill="#1189bb" opacity="1.00" d=" M 1107.70 633.22 C 1121.51 633.27 1135.32 633.29 1149.14 633.20 C 1149.39 650.75 1149.19 668.31 1149.24 685.86 C 1151.86 685.86 1154.48 685.87 1157.12 685.88 C 1157.13 693.54 1157.12 701.21 1157.13 708.87 C 1153.12 708.87 1149.12 708.87 1145.12 708.87 C 1145.13 704.95 1145.13 701.03 1145.09 697.11 C 1132.36 697.13 1119.63 697.13 1106.90 697.12 C 1106.86 701.03 1106.86 704.95 1106.87 708.88 C 1102.87 708.87 1098.87 708.87 1094.87 708.87 C 1094.87 701.21 1094.87 693.55 1094.88 685.90 C 1097.16 685.87 1099.45 685.85 1101.75 685.81 C 1105.70 678.90 1107.06 670.92 1107.39 663.08 C 1107.88 653.13 1107.45 643.17 1107.70 633.22 M 1120.00 644.50 C 1119.97 658.36 1120.53 672.77 1115.16 685.85 C 1122.10 685.90 1129.04 685.85 1135.99 685.89 C 1136.02 672.09 1135.99 658.30 1136.00 644.50 C 1130.66 644.50 1125.33 644.50 1120.00 644.50 Z" />
<path fill="#1189bb" opacity="1.00" d=" M 1181.43 633.54 C 1190.39 631.13 1201.16 632.23 1207.99 639.06 C 1213.75 644.75 1215.29 653.25 1215.26 661.05 C 1215.33 670.50 1215.66 680.90 1209.90 688.96 C 1205.03 695.85 1196.14 698.64 1187.99 697.98 C 1179.82 697.81 1171.68 693.25 1168.14 685.75 C 1163.75 676.50 1164.68 665.92 1164.97 655.99 C 1165.39 646.12 1171.45 636.10 1181.43 633.54 M 1186.32 644.41 C 1181.22 645.72 1178.65 651.06 1178.29 655.94 C 1177.82 662.26 1177.75 668.66 1178.49 674.97 C 1179.18 679.16 1180.81 684.09 1185.17 685.74 C 1189.70 687.25 1195.81 686.89 1198.74 682.61 C 1201.95 677.71 1201.94 671.59 1202.02 665.96 C 1201.94 660.36 1202.41 654.39 1199.75 649.26 C 1197.27 644.56 1191.19 642.92 1186.32 644.41 Z" />
<path fill="#1189bb" opacity="1.00" d=" M 1229.04 633.22 C 1233.42 633.26 1237.81 633.26 1242.21 633.24 C 1242.29 641.78 1242.24 650.33 1242.24 658.88 C 1244.05 658.86 1245.88 658.84 1247.72 658.81 C 1252.88 650.23 1258.35 641.84 1263.57 633.30 C 1268.49 633.23 1273.41 633.23 1278.34 633.27 C 1272.20 643.76 1265.05 653.63 1258.59 663.92 C 1265.87 674.95 1273.16 685.98 1280.32 697.09 C 1275.14 697.16 1269.97 697.07 1264.80 697.19 C 1258.98 688.26 1253.28 679.25 1247.67 670.20 C 1245.85 670.15 1244.03 670.12 1242.24 670.12 C 1242.26 679.12 1242.24 688.12 1242.25 697.12 C 1237.83 697.12 1233.41 697.12 1229.00 697.13 C 1229.02 675.82 1228.95 654.52 1229.04 633.22 Z" />
<path fill="#1189bb" opacity="1.00" d=" M 1290.91 633.25 C 1295.30 633.25 1299.69 633.25 1304.09 633.24 C 1304.21 647.23 1304.02 661.21 1304.19 675.20 C 1312.27 661.26 1320.01 647.13 1328.11 633.21 C 1332.51 633.27 1336.91 633.26 1341.33 633.23 C 1341.43 654.53 1341.34 675.82 1341.37 697.12 C 1336.95 697.12 1332.53 697.13 1328.12 697.11 C 1328.03 683.29 1328.32 669.47 1327.98 655.65 C 1319.73 669.32 1312.07 683.35 1304.02 697.14 C 1299.63 697.11 1295.25 697.12 1290.88 697.13 C 1290.89 675.83 1290.83 654.54 1290.91 633.25 Z" />
<path fill="#1189bb" opacity="1.00" d=" M 1357.37 633.27 C 1361.80 633.24 1366.23 633.22 1370.68 633.29 C 1376.56 645.25 1382.25 657.32 1388.46 669.11 C 1394.20 657.09 1400.19 645.19 1406.07 633.24 C 1410.25 633.25 1414.44 633.24 1418.63 633.28 C 1418.65 654.51 1418.56 675.75 1418.67 696.99 C 1414.45 697.19 1410.22 697.14 1406.00 697.12 C 1405.92 683.59 1406.15 670.06 1405.88 656.55 C 1401.32 665.49 1397.15 674.62 1392.71 683.63 C 1389.55 683.62 1386.40 683.62 1383.25 683.65 C 1378.79 674.71 1374.68 665.59 1370.13 656.70 C 1369.83 670.16 1370.08 683.64 1370.00 697.11 C 1365.77 697.15 1361.55 697.17 1357.34 697.02 C 1357.42 675.77 1357.36 654.52 1357.37 633.27 Z" />
<path fill="#1189bb" opacity="1.00" d=" M 1450.14 633.25 C 1458.90 631.25 1469.21 632.50 1475.74 639.19 C 1481.37 644.88 1482.89 653.25 1482.88 660.97 C 1482.94 670.32 1483.30 680.58 1477.74 688.64 C 1473.00 695.65 1464.13 698.59 1455.96 698.00 C 1448.04 697.91 1440.08 693.80 1436.27 686.71 C 1431.81 678.56 1432.33 668.96 1432.38 659.98 C 1432.46 653.11 1433.84 645.83 1438.37 640.43 C 1441.37 636.83 1445.60 634.35 1450.14 633.25 M 1453.41 644.58 C 1450.41 645.57 1448.06 648.08 1447.04 651.04 C 1445.41 655.49 1445.63 660.32 1445.60 664.99 C 1445.62 670.39 1445.54 676.06 1447.94 681.05 C 1451.29 688.65 1464.39 688.45 1467.45 680.69 C 1470.04 674.81 1469.57 668.24 1469.64 661.98 C 1469.54 657.34 1469.46 652.31 1466.78 648.32 C 1463.90 644.11 1458.03 642.99 1453.41 644.58 Z" />
<path fill="#1189bb" opacity="1.00" d=" M 1496.74 633.20 C 1505.52 633.39 1514.31 633.07 1523.10 633.36 C 1529.81 633.68 1537.42 635.86 1541.01 642.05 C 1545.14 649.29 1542.93 659.48 1535.47 663.65 C 1538.89 665.67 1542.52 668.12 1543.84 672.09 C 1546.03 678.67 1545.08 686.97 1539.57 691.68 C 1534.74 695.77 1528.20 697.11 1522.02 697.13 C 1513.56 697.13 1505.09 697.12 1496.63 697.13 C 1496.70 675.82 1496.47 654.50 1496.74 633.20 M 1509.87 644.52 C 1509.87 649.34 1509.87 654.17 1509.87 659.00 C 1514.98 658.75 1520.26 659.65 1525.27 658.32 C 1531.05 656.68 1531.23 647.46 1525.71 645.40 C 1520.59 643.81 1515.13 644.72 1509.87 644.52 M 1509.87 669.51 C 1509.87 674.96 1509.87 680.41 1509.87 685.87 C 1514.28 685.81 1518.70 686.04 1523.12 685.77 C 1525.78 685.55 1528.79 684.80 1530.36 682.42 C 1532.91 678.47 1531.78 671.72 1526.79 670.35 C 1521.27 668.92 1515.50 669.67 1509.87 669.51 Z" />
<path fill="#1189bb" opacity="1.00" d=" M 1572.37 633.25 C 1576.94 633.25 1581.53 633.27 1586.12 633.22 C 1593.53 654.49 1600.85 675.80 1608.16 697.12 C 1603.43 697.13 1598.70 697.13 1593.98 697.12 C 1592.58 692.94 1591.10 688.79 1589.82 684.57 C 1582.83 684.49 1575.83 684.39 1568.85 684.57 C 1566.50 688.31 1565.84 693.02 1564.11 697.12 C 1559.54 697.12 1554.97 697.13 1550.42 697.12 C 1557.59 675.78 1565.08 654.55 1572.37 633.25 M 1572.15 673.28 C 1576.73 673.23 1581.33 673.23 1585.93 673.29 C 1583.82 665.75 1581.50 658.28 1579.19 650.81 C 1576.42 658.15 1574.41 665.76 1572.15 673.28 Z" />
</g>
</svg>
