<svg width="68" height="71" viewBox="0 0 68 71" fill="none" xmlns="http://www.w3.org/2000/svg">
<path d="M2 10C2 4.47715 6.47715 0 12 0H58C63.5228 0 68 4.47715 68 10V59C68 64.5228 63.5228 69 58 69H12C6.47715 69 2 64.5228 2 59V10Z" fill="#FD4C46"/>
<g clip-path="url(#clip0_239_140)">
<path d="M31.4166 19.7917V12.1667C31.4166 11.4926 31.6844 10.8461 32.1611 10.3694C32.6377 9.89278 33.2842 9.625 33.9583 9.625H39.0416C39.7157 9.625 40.3622 9.89278 40.8389 10.3694C41.3155 10.8461 41.5833 11.4926 41.5833 12.1667V19.7917M26.3333 55.375H46.6666C47.3407 55.375 47.9872 55.1072 48.4639 54.6306C48.9405 54.1539 49.2083 53.5074 49.2083 52.8333V27.4167C49.2083 25.3944 48.4049 23.4549 46.975 22.025C45.545 20.595 43.6056 19.7917 41.5833 19.7917H31.4166C29.3943 19.7917 27.4549 20.595 26.0249 22.025C24.595 23.4549 23.7916 25.3944 23.7916 27.4167V52.8333C23.7916 53.5074 24.0594 54.1539 24.5361 54.6306C25.0127 55.1072 25.6592 55.375 26.3333 55.375ZM31.4166 37.5833H41.5833H31.4166ZM36.5 32.5V42.6667V32.5Z" stroke="white" stroke-width="4" stroke-linecap="round" stroke-linejoin="round"/>
</g>
<defs>
<clipPath id="clip0_239_140">
<rect width="61" height="61" fill="white" transform="translate(0 10)"/>
</clipPath>
</defs>
</svg>
