<svg
width="25"
height="25"
viewBox="0 0 25 25"
fill="none"
xmlns="http://www.w3.org/2000/svg"
>
<path
d="M12.4436 0.0165272C9.42969 0.165321 6.62806 1.40252 4.50201 3.52698C2.53315 5.49713 1.32812 8.02388 1.0441 10.7959C0.98343 11.3635 0.98343 12.6641 1.0441 13.2317C1.32812 16.0037 2.53315 18.5304 4.50201 20.5006C6.47363 22.468 9.00227 23.6721 11.7763 23.9559C12.3444 24.0165 13.6459 24.0165 14.214 23.9559C18.4991 23.515 22.208 20.8367 23.9673 16.9102C24.6705 15.3396 24.9986 13.78 24.9986 12.0138C24.9986 11.1954 24.9572 10.6939 24.8359 9.97474C24.1631 6.04546 21.5517 2.68656 17.8952 1.04982C16.7233 0.526287 15.51 0.203899 14.2222 0.0716362C13.8031 0.0275497 12.8187 -0.00275993 12.4436 0.0165272ZM13.0089 5.67347L17.2279 7.32124V8.73478V10.1511L14.5421 12.383L11.8591 14.6122L12.3637 14.8106C12.6422 14.9208 13.8031 15.3727 14.9392 15.8163C16.078 16.2599 17.0597 16.6457 17.1259 16.6732L17.2417 16.7228V18.1336C17.2417 19.2496 17.2334 19.5389 17.2086 19.5279C17.1728 19.5141 10.5603 16.9515 9.41038 16.5079L8.78994 16.2682L8.78443 14.8491L8.77616 13.4328L8.85337 13.3777C9.06294 13.2289 14.2112 8.969 14.1892 8.96349C14.1781 8.95797 12.9565 8.48679 11.4785 7.91366L8.78994 6.8721L8.78167 5.44753C8.77891 4.66498 8.77891 4.02296 8.78167 4.02296C8.78719 4.02296 10.6899 4.76693 13.0089 5.67347Z"
fill="#000"
/>
</svg>